<svg width="65" height="48" viewBox="0 0 65 48" fill="none" xmlns="http://www.w3.org/2000/svg">
<path fill-rule="evenodd" clip-rule="evenodd" d="M58.3524 26.7895C58.8814 26.7895 59.3646 27.0079 59.7172 27.3586C60.0633 27.716 60.2788 28.2057 60.2788 28.7418C60.2788 29.2844 60.0633 29.7742 59.7172 30.1249C59.3646 30.4757 58.8814 30.6941 58.3524 30.6941C58.0651 30.6941 57.7974 30.6345 57.5558 30.522L48.0284 40.1842C46.3502 41.885 44.463 43.2615 42.4452 44.3138C40.5058 45.333 38.4489 46.0477 36.3462 46.4514C36.2678 46.8286 36.0785 47.1661 35.8238 47.4309C35.4712 47.7816 34.9879 48 34.459 48C33.9235 48 33.4469 47.7816 33.0942 47.4309V47.4242C32.7416 47.0735 32.5261 46.5838 32.5261 46.0477C32.5261 45.505 32.7416 45.0153 33.0942 44.6646C33.4403 44.3138 33.9235 44.0888 34.459 44.0888C34.9879 44.0888 35.4712 44.3138 35.8238 44.6646C35.9479 44.7903 36.0523 44.9359 36.1372 45.0881C38.1028 44.7043 40.0161 44.0358 41.8184 43.0895C43.7121 42.1034 45.4817 40.8063 47.062 39.2047L56.5958 29.5492C56.4848 29.3043 56.4195 29.0263 56.4195 28.7418C56.4195 28.4572 56.4848 28.1859 56.5893 27.9344L55.9885 27.3255L45.6646 37.7885C42.2428 41.2629 37.8155 43.149 33.2967 43.4469L30.0055 46.7823L29.6856 46.7492C27.1388 46.4845 24.6248 45.7896 22.274 44.6579C20.0015 43.566 17.8792 42.0769 16.0117 40.1842L13.0405 37.173C12.7989 37.2855 12.5311 37.3451 12.2504 37.3451C11.7149 37.3451 11.2382 37.1267 10.8856 36.776V36.7693C10.533 36.4186 10.3175 35.9289 10.3175 35.3928C10.3175 34.8501 10.533 34.367 10.8856 34.0096C11.2317 33.6589 11.7149 33.4405 12.2504 33.4405C12.7793 33.4405 13.2625 33.6589 13.6151 34.0096C13.9612 34.367 14.1767 34.8501 14.1767 35.3928C14.1767 35.6774 14.1179 35.9553 14.0069 36.2002L16.9716 39.2047C18.7347 40.985 20.7263 42.388 22.8551 43.4138C24.9709 44.4263 27.2172 45.0749 29.5027 45.3462L31.3377 43.4799C26.623 43.3145 21.9475 41.4151 18.369 37.7885L13.6151 32.9706H8.89391L0 23.957L8.37151 15.4662C8.2605 15.2213 8.20173 14.95 8.20173 14.6654C8.20173 14.1227 8.41722 13.633 8.76984 13.2822C9.11593 12.9315 9.59916 12.7065 10.1281 12.7065C10.6636 12.7065 11.1468 12.9315 11.4929 13.2822C11.8455 13.633 12.061 14.1227 12.061 14.6654C12.061 15.2014 11.8455 15.6912 11.4929 16.0485C11.1468 16.3993 10.6636 16.6177 10.1281 16.6177C9.8473 16.6177 9.57957 16.5581 9.33795 16.4456L1.92636 23.957L9.46203 31.5875H13.2168V27.7755L9.44244 23.957L20.5892 12.6932L20.7459 12.5344C22.0062 11.2571 23.4298 10.238 24.9578 9.47691C26.5381 8.68937 28.2228 8.18641 29.9337 7.9614L30.2667 7.91507L33.5905 11.2836C36.1895 11.6145 38.5468 12.7594 40.4079 14.447C42.5497 16.3927 44.0386 19.0729 44.4826 22.0775C44.7961 22.1701 45.0769 22.3422 45.3054 22.5738C45.6515 22.9246 45.867 23.4143 45.867 23.957C45.867 24.493 45.6515 24.9828 45.3054 25.3401C44.9528 25.6909 44.4696 25.9093 43.9406 25.9093C43.4052 25.9093 42.9285 25.6909 42.5758 25.3401V25.3335C42.2232 24.9828 42.0077 24.493 42.0077 23.957C42.0077 23.4143 42.2232 22.9246 42.5758 22.5738C42.7326 22.415 42.9154 22.2826 43.1178 22.1834C42.7065 19.5428 41.3874 17.1868 39.5002 15.4728C37.5151 13.6661 34.89 12.5675 32.0168 12.5675C29.679 12.5675 27.5111 13.2955 25.7088 14.5463C23.9914 15.7309 22.6135 17.392 21.7581 19.331C21.7973 19.3663 21.8364 19.4016 21.8756 19.4369C22.2217 19.7943 22.4372 20.284 22.4372 20.8201C22.4372 21.3627 22.2217 21.8459 21.8756 22.2032C21.523 22.554 21.0398 22.7724 20.5109 22.7724C19.9754 22.7724 19.4987 22.554 19.1461 22.2032C18.7934 21.8459 18.578 21.3561 18.578 20.8201C18.578 20.284 18.7934 19.7943 19.1461 19.4369C19.4856 19.0928 19.9493 18.8744 20.4717 18.8678C21.4251 16.6508 22.9923 14.758 24.9382 13.408C26.845 12.0844 29.124 11.277 31.5727 11.191L29.777 9.37102C28.3208 9.60265 26.8972 10.0461 25.5586 10.7145C24.1677 11.4027 22.8682 12.3359 21.7124 13.5072C20.5174 14.7183 19.5771 16.0949 18.8849 17.5574C18.2188 18.9803 17.7813 20.4892 17.5854 22.0179L20.217 24.6783L22.9596 21.9187C23.4298 19.8208 24.5791 18.0074 26.1463 16.7103V16.7037C27.7592 15.3603 29.8162 14.5661 32.0168 14.5661C34.5635 14.5661 36.8817 15.625 38.5599 17.3258C40.2381 19.0266 41.2829 21.376 41.2829 23.957C41.2829 24.3717 41.2568 24.782 41.2045 25.1879L43.9733 27.9939L43.8231 28.4109C42.9938 30.6477 41.5637 32.5868 39.7418 34.0295C38.1746 35.2671 36.3201 36.134 34.2958 36.5179C34.2109 36.862 34.0346 37.173 33.7929 37.4179C33.4403 37.7686 32.9571 37.987 32.4282 37.987C31.8992 37.987 31.416 37.7686 31.0634 37.4179V37.4113C30.7173 37.0605 30.5018 36.5708 30.5018 36.0347C30.5018 35.4921 30.7173 35.0023 31.0634 34.6516C31.416 34.2942 31.8927 34.0758 32.4282 34.0758C32.9571 34.0758 33.4403 34.2942 33.7929 34.6516C33.9301 34.7972 34.0542 34.956 34.1456 35.1413C35.9087 34.7972 37.5347 34.0229 38.906 32.9442C40.4209 31.7397 41.629 30.158 42.3865 28.3447L40.8519 26.7829C40.3948 28.2322 39.5982 29.5359 38.5599 30.5882C36.8817 32.289 34.5635 33.3479 32.0168 33.3479C30.2798 33.3479 28.6407 32.8515 27.2499 31.9978C25.9373 31.1904 24.8337 30.0654 24.0501 28.7285C24.0022 28.7329 23.9522 28.7351 23.8999 28.7351C23.371 28.7351 22.8878 28.5168 22.5417 28.166V28.1594C22.1891 27.8086 21.9736 27.3189 21.9736 26.7829C21.9736 26.2402 22.1891 25.7505 22.5417 25.3997C22.8878 25.0423 23.371 24.8239 23.8999 24.8239C24.4354 24.8239 24.9186 25.0423 25.2647 25.3997C25.6173 25.7505 25.8328 26.2402 25.8328 26.7829C25.8328 27.3123 25.6239 27.7888 25.2908 28.1395C25.9504 29.2315 26.8711 30.1514 27.9486 30.8132C29.137 31.5412 30.5345 31.9647 32.0168 31.9647C34.1913 31.9647 36.1634 31.0647 37.6 29.6087C39.03 28.1594 39.9181 26.1541 39.9181 23.957C39.9181 21.7532 39.03 19.7546 37.6 18.2986C36.1634 16.8493 34.1913 15.9493 32.0168 15.9493C30.1427 15.9493 28.3861 16.6309 27.0082 17.7758V17.7692C25.6239 18.9207 24.6182 20.5355 24.246 22.4018L24.2069 22.6069L20.9418 25.8894C21.301 27.9873 22.2283 29.8933 23.5604 31.4353C25.0362 33.1493 27.0213 34.42 29.2611 34.9957L29.777 35.1281V38.5363C30.5214 38.6488 31.2658 38.7084 32.0168 38.7084C35.752 38.7084 39.4937 37.2723 42.3277 34.4001C45.1617 31.5279 46.5788 27.7425 46.5788 23.957C46.5788 20.1715 45.1617 16.3794 42.3277 13.5072C41.1523 12.316 39.8071 11.3564 38.3444 10.6483C36.8817 9.93355 35.2883 9.47029 33.6297 9.28499L33.3881 9.2519L30.0774 5.90321C28.1249 6.11499 26.192 6.65104 24.3832 7.51137C22.5548 8.37171 20.8439 9.56956 19.3354 11.0983L18.5192 11.9189C18.6302 12.1704 18.689 12.4417 18.689 12.7263C18.689 13.269 18.4735 13.7587 18.1274 14.1095C17.7748 14.4602 17.2981 14.6786 16.7626 14.6786C16.2337 14.6786 15.7505 14.4602 15.4044 14.1095H15.3978C15.0517 13.7521 14.8362 13.2624 14.8362 12.7263C14.8362 12.1903 15.0517 11.7005 15.3978 11.3432C15.7505 10.9924 16.2271 10.774 16.7626 10.774C17.0434 10.774 17.3177 10.8336 17.5593 10.9461L18.369 10.1255C19.9884 8.48421 21.8299 7.19371 23.8085 6.26058C25.7871 5.32083 27.8963 4.74507 30.0382 4.52668L33.4273 1.09196L33.7342 1.11182C36.3919 1.31035 39.0235 1.98539 41.4853 3.12367C43.8623 4.22225 46.0825 5.76424 48.0284 7.72977L50.6796 10.4167C50.9212 10.3042 51.189 10.2446 51.4698 10.2446C52.0052 10.2446 52.4884 10.463 52.8345 10.8137C53.1872 11.1711 53.4027 11.6608 53.4027 12.1969C53.4027 12.7396 53.1872 13.2293 52.8345 13.58C52.4884 13.9374 52.0052 14.1558 51.4698 14.1558C50.9408 14.1558 50.4576 13.9374 50.1115 13.58C49.7589 13.2227 49.5434 12.7396 49.5434 12.1969C49.5434 11.9123 49.6022 11.641 49.7132 11.3961L47.062 8.70922C45.2336 6.84958 43.144 5.40687 40.9237 4.37447C38.7035 3.34868 36.3462 2.7266 33.9497 2.51482L31.305 5.19509L34.0215 7.94154C35.7389 8.16655 37.3975 8.6629 38.9321 9.40411C40.5385 10.185 42.0143 11.2373 43.2876 12.5344L43.4509 12.6998L57.5492 26.9615C57.7974 26.849 58.0651 26.7895 58.3524 26.7895ZM21.9213 4.9767C20.1452 5.94292 18.4735 7.1871 16.9716 8.70922L14.0657 11.6542V16.4324L6.64758 23.957L9.86689 27.213C10.1085 27.1071 10.3762 27.0409 10.657 27.0409C11.1925 27.0409 11.6757 27.2593 12.0218 27.6167C12.3744 27.9675 12.5899 28.4572 12.5899 28.9999C12.5899 29.5359 12.3744 30.0256 12.0218 30.383C11.6757 30.7338 11.1925 30.9522 10.657 30.9522C10.1281 30.9522 9.64487 30.7338 9.29877 30.383L9.29224 30.3764C8.94615 30.0256 8.73066 29.5359 8.73066 28.9999C8.73066 28.7087 8.78943 28.4373 8.90044 28.1925L4.72122 23.957L12.7075 15.8632V11.0785L16.0117 7.72977C17.5985 6.11499 19.3812 4.79801 21.2749 3.76561C23.0902 2.77954 25.01 2.05818 26.9886 1.60816C27.0605 1.20447 27.2498 0.847098 27.5241 0.569144C27.8702 0.218392 28.3534 0 28.8889 0C29.4178 0 29.901 0.218392 30.2471 0.569144C30.5998 0.926513 30.8153 1.41624 30.8153 1.9523C30.8153 2.49497 30.5998 2.97808 30.2471 3.33545C29.901 3.6862 29.4178 3.90459 28.8889 3.90459C28.3534 3.90459 27.8767 3.6862 27.5241 3.33545C27.4109 3.22074 27.3152 3.095 27.2368 2.95822C25.4018 3.38177 23.6126 4.0568 21.9213 4.9767ZM10.6178 14.169C10.4938 14.0433 10.324 13.9639 10.1346 13.9639C9.93872 13.9639 9.76894 14.0433 9.64487 14.169C9.52079 14.2948 9.44244 14.4735 9.44244 14.6654C9.44244 14.8573 9.52079 15.036 9.64487 15.1617C9.76894 15.2875 9.93872 15.3603 10.1346 15.3603C10.324 15.3603 10.4938 15.2875 10.6178 15.1551C10.7419 15.0294 10.8203 14.8573 10.8203 14.6654C10.8203 14.4735 10.7419 14.2948 10.6178 14.169ZM17.2524 12.23C17.1283 12.1042 16.952 12.0314 16.7626 12.0314C16.5732 12.0314 16.3969 12.1042 16.2729 12.23C16.1488 12.3623 16.077 12.5344 16.077 12.7263C16.077 12.9182 16.1488 13.0969 16.2729 13.2227C16.3969 13.3484 16.5732 13.4278 16.7626 13.4278C16.952 13.4278 17.1283 13.3484 17.2524 13.2227C17.3764 13.0969 17.4548 12.9182 17.4548 12.7263C17.4548 12.5344 17.3764 12.3623 17.2524 12.23ZM28.4122 36.1936C26.1136 35.4921 24.0828 34.1354 22.5352 32.3419C21.0137 30.5749 19.9558 28.3844 19.5771 25.9755L16.1618 22.5209L16.1945 22.1966C16.3447 20.7936 16.6712 19.4105 17.174 18.0869L11.3688 23.957L14.575 27.1998V31.9912L19.3354 36.809C22.816 40.343 27.4196 42.11 32.0168 42.11C36.6205 42.11 41.2176 40.343 44.7046 36.809L55.0221 26.3527L53.6247 24.9364L43.4443 35.2141L43.2876 35.3796C40.1924 38.5231 36.1046 40.0915 32.0168 40.0915C27.9355 40.0915 23.8477 38.5231 20.7459 35.3796C19.7599 34.3736 18.924 33.2684 18.2515 32.0904C17.6376 31.0183 17.1544 29.8867 16.8018 28.7219C16.3643 28.669 15.9659 28.4638 15.6656 28.166V28.1594C15.3129 27.8086 15.0974 27.3189 15.0974 26.7829C15.0974 26.2402 15.3129 25.7505 15.6656 25.3997C16.0117 25.0423 16.4949 24.8239 17.0303 24.8239C17.5593 24.8239 18.0425 25.0423 18.3886 25.3997C18.7412 25.7505 18.9567 26.2402 18.9567 26.7829C18.9567 27.3189 18.7412 27.8086 18.3886 28.166C18.3059 28.2498 18.2166 28.3248 18.1209 28.391C18.4408 29.4234 18.8783 30.436 19.4269 31.3956C20.0407 32.4677 20.8047 33.4802 21.7124 34.4001C23.6257 36.3392 25.9504 37.6297 28.4122 38.2584V36.1936ZM61.3171 23.1496L54.2907 16.0353H51.5024L57.5558 22.1768C57.8039 22.0643 58.0716 22.0047 58.3524 22.0047C58.8879 22.0047 59.3711 22.2231 59.7172 22.5738C60.0633 22.9312 60.2788 23.4143 60.2788 23.957C60.2788 24.4997 60.0633 24.9828 59.7172 25.3401C59.3711 25.6909 58.8879 25.9093 58.3524 25.9093C57.8235 25.9093 57.3403 25.6909 56.9942 25.3401L56.9876 25.3335C56.6416 24.9828 56.4261 24.493 56.4261 23.957C56.4261 23.6724 56.4848 23.3945 56.5958 23.1496L44.7046 11.0983C43.5815 9.96002 42.3473 9.00703 41.0348 8.23935C39.8332 7.53123 38.5599 6.98194 37.2473 6.57824C37.182 6.67531 37.108 6.76575 37.0253 6.84958C36.6727 7.20695 36.1895 7.42534 35.6605 7.42534C35.1316 7.42534 34.6484 7.20695 34.2958 6.84958C33.9497 6.49883 33.7342 6.0091 33.7342 5.47305C33.7342 4.93037 33.9497 4.44065 34.2958 4.08989C34.6418 3.73252 35.1251 3.51413 35.6605 3.51413C36.1895 3.51413 36.6727 3.73252 37.0253 4.08989C37.3192 4.3877 37.5216 4.7914 37.5738 5.24142C39.0039 5.67158 40.3948 6.27382 41.7204 7.04812C43.1374 7.88198 44.463 8.90776 45.6646 10.1255L50.1442 14.6588H54.8654L62.277 22.1768C62.5186 22.0643 62.7928 22.0047 63.0736 22.0047C63.6091 22.0047 64.0858 22.2231 64.4384 22.5738C64.7845 22.9312 65 23.4143 65 23.957C65 24.493 64.7845 24.9828 64.4384 25.3401C64.0858 25.6909 63.6091 25.9093 63.0736 25.9093C62.5447 25.9093 62.0615 25.6909 61.7089 25.3401V25.3335C61.3628 24.9828 61.1473 24.493 61.1473 23.957C61.1473 23.6724 61.206 23.3945 61.3171 23.1496ZM46.8661 18.1001C47.5844 19.9796 47.937 21.965 47.937 23.957C47.937 25.949 47.5844 27.941 46.8661 29.8205L52.6582 23.9636L46.8661 18.1001ZM58.3524 28.0469C58.163 28.0469 57.9867 28.1263 57.8627 28.252C57.7386 28.3778 57.6602 28.5498 57.6602 28.7418C57.6602 28.9403 57.7386 29.1124 57.8627 29.2381C57.9867 29.3639 58.1565 29.4433 58.3524 29.4433C58.5418 29.4433 58.7116 29.3639 58.8356 29.2381C58.9597 29.1124 59.0381 28.9337 59.0381 28.7418C59.0381 28.5498 58.9597 28.3778 58.8356 28.252C58.7116 28.1263 58.5418 28.0469 58.3524 28.0469ZM11.1468 28.5035C11.0227 28.3778 10.8464 28.2984 10.657 28.2984C10.4677 28.2984 10.2979 28.3778 10.1738 28.5035C10.0497 28.6293 9.97137 28.8079 9.97137 28.9999C9.97137 29.1918 10.0497 29.3705 10.1673 29.4962C10.2979 29.622 10.4677 29.6947 10.657 29.6947C10.8464 29.6947 11.0227 29.622 11.1468 29.4896C11.2708 29.3639 11.3492 29.1918 11.3492 28.9999C11.3492 28.8079 11.2708 28.6293 11.1468 28.5035ZM36.1503 4.9767C36.0197 4.85096 35.8499 4.77154 35.6605 4.77154C35.4712 4.77154 35.2949 4.85096 35.1708 4.9767C35.0467 5.10244 34.9684 5.27451 34.9684 5.47305C34.9684 5.66497 35.0467 5.83703 35.1708 5.96277C35.2949 6.08852 35.4712 6.16793 35.6605 6.16793C35.8499 6.16793 36.0197 6.08852 36.1503 5.96277C36.2744 5.83703 36.3462 5.66497 36.3462 5.47305C36.3462 5.27451 36.2744 5.10244 36.1503 4.9767ZM32.9179 35.5384C32.7939 35.4127 32.6175 35.3332 32.4282 35.3332C32.2388 35.3332 32.0625 35.4127 31.9384 35.5384C31.8143 35.6641 31.736 35.8428 31.736 36.0347C31.736 36.2267 31.8143 36.4054 31.9384 36.5311C32.0625 36.6568 32.2388 36.7296 32.4282 36.7296C32.6175 36.7296 32.7939 36.6568 32.9179 36.5311C33.042 36.3987 33.1204 36.2267 33.1204 36.0347C33.1204 35.8428 33.042 35.6641 32.9179 35.5384ZM24.3897 26.2865C24.2656 26.1608 24.0958 26.0813 23.9065 26.0813C23.7106 26.0813 23.5408 26.1608 23.4167 26.2865C23.2926 26.4122 23.2143 26.5909 23.2143 26.7829C23.2143 26.9748 23.2926 27.1535 23.4167 27.2792C23.5408 27.4049 23.7106 27.4777 23.9065 27.4777C24.0958 27.4777 24.2656 27.4049 24.3897 27.2792C24.5138 27.1468 24.5921 26.9748 24.5921 26.7829C24.5921 26.5909 24.5138 26.4122 24.3897 26.2865ZM34.9422 45.5514C34.8182 45.4256 34.6484 45.3462 34.459 45.3462C34.2696 45.3462 34.0933 45.4256 33.9693 45.5514C33.8452 45.6771 33.7668 45.8558 33.7668 46.0477C33.7668 46.2396 33.8452 46.4183 33.9693 46.5441C34.0933 46.6698 34.2631 46.7492 34.459 46.7492C34.6484 46.7492 34.8182 46.6698 34.9422 46.5441C35.0663 46.4183 35.1447 46.2396 35.1447 46.0477C35.1447 45.8558 35.0663 45.6771 34.9422 45.5514ZM12.2504 34.6979C12.061 34.6979 11.8847 34.7707 11.7606 34.8965C11.6365 35.0222 11.5582 35.2009 11.5582 35.3928C11.5582 35.5847 11.6365 35.7634 11.7606 35.8891C11.8847 36.0149 12.0545 36.0943 12.2504 36.0943C12.4397 36.0943 12.6095 36.0149 12.7336 35.8891C12.8576 35.7634 12.936 35.5847 12.936 35.3928C12.936 35.2009 12.8576 35.0222 12.7336 34.8965C12.6095 34.7707 12.4397 34.6979 12.2504 34.6979ZM17.5136 26.2865C17.3895 26.1608 17.2197 26.0813 17.0303 26.0813C16.8344 26.0813 16.6647 26.1608 16.5406 26.2865C16.4165 26.4122 16.3382 26.5909 16.3382 26.7829C16.3382 26.9748 16.4165 27.1535 16.5406 27.2792C16.6647 27.4049 16.8344 27.4777 17.0303 27.4777C17.2197 27.4777 17.3895 27.4049 17.5136 27.2792C17.6376 27.1468 17.716 26.9748 17.716 26.7829C17.716 26.5909 17.6376 26.4122 17.5136 26.2865ZM58.8422 23.4606C58.7181 23.3349 58.5418 23.2555 58.3524 23.2555C58.163 23.2555 57.9933 23.3349 57.8627 23.4606C57.7386 23.5864 57.6668 23.7651 57.6668 23.957C57.6668 24.1489 57.7386 24.3276 57.8627 24.4533C57.9867 24.5791 58.163 24.6519 58.3524 24.6519C58.5418 24.6519 58.7181 24.5791 58.8422 24.4533C58.9662 24.3276 59.0446 24.1489 59.0446 23.957C59.0446 23.7651 58.9662 23.5864 58.8422 23.4606ZM51.9595 11.7072C51.8354 11.5814 51.6657 11.502 51.4698 11.502C51.2804 11.502 51.1106 11.5814 50.9865 11.7072C50.8625 11.8329 50.7841 12.005 50.7841 12.1969C50.7841 12.3954 50.8625 12.5675 50.9865 12.6932C51.1106 12.819 51.2804 12.8984 51.4698 12.8984C51.6657 12.8984 51.8354 12.819 51.9595 12.6932C52.0836 12.5675 52.1619 12.3954 52.1619 12.1969C52.1619 12.005 52.0836 11.8329 51.9595 11.7072ZM20.9941 20.3303C20.87 20.198 20.7002 20.1252 20.5109 20.1252C20.3215 20.1252 20.1452 20.198 20.0211 20.3303C19.897 20.4561 19.8187 20.6282 19.8187 20.8201C19.8187 21.012 19.897 21.1907 20.0211 21.3164C20.1452 21.4422 20.3149 21.5216 20.5109 21.5216C20.7002 21.5216 20.87 21.4422 20.9941 21.3164C21.1181 21.1907 21.1965 21.012 21.1965 20.8201C21.1965 20.6282 21.1181 20.4561 20.9941 20.3303ZM44.4239 23.4606C44.2998 23.3349 44.13 23.2555 43.9406 23.2555C43.7513 23.2555 43.5749 23.3349 43.4509 23.4606C43.3268 23.5864 43.2484 23.7651 43.2484 23.957C43.2484 24.1489 43.3268 24.3276 43.4509 24.4533C43.5749 24.5791 43.7447 24.6519 43.9406 24.6519C44.13 24.6519 44.2998 24.5791 44.4239 24.4533C44.5479 24.3276 44.6263 24.1489 44.6263 23.957C44.6263 23.7651 44.5479 23.5864 44.4239 23.4606ZM29.3721 1.46257C29.248 1.33021 29.0783 1.25741 28.8889 1.25741C28.693 1.25741 28.5232 1.33021 28.3991 1.46257C28.2751 1.58831 28.1967 1.76038 28.1967 1.9523C28.1967 2.15083 28.2751 2.3229 28.3991 2.44864C28.5232 2.57438 28.693 2.6538 28.8889 2.6538C29.0783 2.6538 29.248 2.57438 29.3721 2.44864C29.4962 2.3229 29.5745 2.14422 29.5745 1.9523C29.5745 1.76038 29.4962 1.58831 29.3721 1.46257ZM63.5634 23.4606C63.4393 23.3349 63.263 23.2555 63.0736 23.2555C62.8843 23.2555 62.708 23.3349 62.5839 23.4606C62.4598 23.5864 62.3815 23.7651 62.3815 23.957C62.3815 24.1489 62.4598 24.3276 62.5839 24.4533C62.708 24.5791 62.8843 24.6519 63.0736 24.6519C63.263 24.6519 63.4393 24.5791 63.5634 24.4533C63.6875 24.3276 63.7658 24.1489 63.7658 23.957C63.7658 23.7651 63.6875 23.5864 63.5634 23.4606Z" fill="url(#paint0_linear_380_4114)"/>
<defs>
<linearGradient id="paint0_linear_380_4114" x1="2.36812" y1="24" x2="65.1233" y2="24" gradientUnits="userSpaceOnUse">
<stop stop-color="#00AFB6"/>
<stop offset="1" stop-color="#F3E688"/>
</linearGradient>
</defs>
</svg>
