<svg width="100" height="100" viewBox="0 0 100 100" fill="none" xmlns="http://www.w3.org/2000/svg">
<path d="M80.1394 30.6456C80.1394 34.2528 83.0741 37.1875 86.6813 37.1875C90.2884 37.1875 93.2231 34.2528 93.2231 30.6456C93.2231 27.0385 90.2884 24.1038 86.6813 24.1038C83.0741 24.1038 80.1394 27.0385 80.1394 30.6456ZM90.7234 30.6456C90.7234 32.8741 88.9098 34.6877 86.6813 34.6877C84.4527 34.6877 82.6392 32.8741 82.6392 30.6456C82.6392 28.4171 84.4527 26.6035 86.6813 26.6035C88.9098 26.6035 90.7234 28.4171 90.7234 30.6456Z" fill="white"/>
<path d="M43.4558 30.6456C43.4558 34.2528 46.3905 37.1875 49.9977 37.1875C53.6048 37.1875 56.5395 34.2528 56.5395 30.6456C56.5395 27.0385 53.6048 24.1038 49.9977 24.1038C46.3905 24.1038 43.4558 27.0385 43.4558 30.6456ZM54.0398 30.6456C54.0398 32.8741 52.2262 34.6877 49.9977 34.6877C47.7691 34.6877 45.9556 32.8741 45.9556 30.6456C45.9556 28.4171 47.7691 26.6035 49.9977 26.6035C52.2262 26.6035 54.0398 28.4171 54.0398 30.6456Z" fill="white"/>
<path d="M6.77173 30.6456C6.77173 34.2528 9.70644 37.1875 13.3136 37.1875C16.9207 37.1875 19.8554 34.2528 19.8554 30.6456C19.8554 27.0385 16.9207 24.1038 13.3136 24.1038C9.70644 24.1038 6.77173 27.0385 6.77173 30.6456ZM17.3557 30.6456C17.3557 32.8741 15.5421 34.6877 13.3136 34.6877C11.085 34.6877 9.27148 32.8741 9.27148 30.6456C9.27148 28.4171 11.085 26.6035 13.3136 26.6035C15.5421 26.6035 17.3557 28.4171 17.3557 30.6456Z" fill="white"/>
<path d="M5.90191 12.915H12.0638V17.6008C5.30822 18.2332 0.00249957 23.9301 0.00249957 30.8482C0.00249957 36.0589 3.0197 40.5672 7.39301 42.752V53.9671C7.39301 56.0807 9.11284 57.8005 11.2264 57.8005H12.0638V60.6202C9.78278 60.8889 7.57175 61.8888 5.82442 63.6349C1.69483 67.7645 1.69483 74.4838 5.82442 78.6134C6.31312 79.1021 7.10304 79.1021 7.59175 78.6134C8.08045 78.1247 8.08045 77.3348 7.59175 76.8461C4.43706 73.6914 4.43706 68.5569 7.59175 65.4023C10.7464 62.2488 15.8797 62.2488 19.0356 65.4023C22.1903 68.5569 22.1903 73.6914 19.0356 76.8461C18.5469 77.3348 18.5469 78.1247 19.0356 78.6134C19.2793 78.8572 19.5993 78.9797 19.9193 78.9797C20.2392 78.9797 20.5592 78.8572 20.8029 78.6134C24.9325 74.4838 24.9325 67.7645 20.8029 63.6349C19.0556 61.8888 16.8446 60.8889 14.5636 60.6202V57.8005H15.401C17.5145 57.8005 19.2343 56.0807 19.2343 53.9671V42.752C23.6077 40.5685 26.6248 36.0589 26.6248 30.8482C26.6248 23.9301 21.3191 18.2332 14.5636 17.6008V12.915H48.7477V17.6008C41.9933 18.2332 36.6876 23.9301 36.6876 30.8482C36.6876 36.0589 39.7048 40.5672 44.0769 42.752V53.9671C44.0769 56.0807 45.7967 57.8005 47.9102 57.8005H48.7477V60.6202C46.4654 60.8889 44.2543 61.8888 42.5083 63.6349C38.3787 67.7645 38.3787 74.4838 42.5083 78.6134C42.997 79.1021 43.7869 79.1021 44.2756 78.6134C44.7643 78.126 44.7643 77.3348 44.2756 76.8461C41.1209 73.6914 41.1209 68.5569 44.2756 65.4023C47.4303 62.2476 52.5635 62.2476 55.7195 65.4023C58.8741 68.5569 58.8741 73.6914 55.7195 76.8461C55.2308 77.3348 55.2308 78.126 55.7195 78.6134C55.9632 78.8572 56.2831 78.9797 56.6031 78.9797C56.9231 78.9797 57.2431 78.8572 57.4868 78.6134C61.6164 74.4838 61.6164 67.7645 57.4868 63.6349C55.7407 61.8888 53.5284 60.8889 51.2474 60.6202V57.8005H52.0836C54.1971 57.8005 55.9169 56.0807 55.9169 53.9671V42.752C60.289 40.5685 63.3074 36.0589 63.3074 30.8482C63.3074 23.9301 58.0017 18.2332 51.2474 17.6008V12.915H85.4315V17.6008C78.6759 18.2332 73.3714 23.9301 73.3714 30.8482C73.3714 36.0589 76.3886 40.5672 80.762 42.752V53.9671C80.762 56.0807 82.4818 57.8005 84.5953 57.8005H85.4315V60.619C83.1505 60.8877 80.9394 61.8876 79.1921 63.6349C75.0625 67.7645 75.0625 74.4838 79.1921 78.6134C79.6808 79.1021 80.4707 79.1021 80.9594 78.6134C81.4482 78.1247 81.4482 77.3348 80.9594 76.8461C77.8048 73.6914 77.8048 68.5569 80.9594 65.4023C84.1141 62.2476 89.2486 62.2476 92.4033 65.4023C95.558 68.5569 95.558 73.6914 92.4033 76.8461C91.9146 77.3348 91.9146 78.1247 92.4033 78.6134C92.647 78.8572 92.967 78.9797 93.287 78.9797C93.6069 78.9797 93.9269 78.8572 94.1706 78.6134C98.3002 74.4838 98.3002 67.7645 94.1706 63.6349C92.4233 61.8876 90.2123 60.8877 87.9313 60.619V57.8005H88.7687C90.8822 57.8005 92.602 56.0807 92.602 53.9671V42.752C96.9753 40.5685 99.9926 36.0589 99.9926 30.8482C99.9926 23.9301 94.6868 18.2332 87.9313 17.6008V12.915H94.0894C97.3441 12.915 99.9901 10.2677 99.9901 7.0143V5.90066C99.9901 2.64599 97.3428 0 94.0894 0H5.90191C2.64724 0 0 2.64724 0 5.90066V7.0143C0 10.2677 2.64724 12.915 5.90191 12.915ZM16.7346 53.9671C16.7346 54.7021 16.1359 55.3008 15.401 55.3008H11.2264C10.4915 55.3008 9.89277 54.7021 9.89277 53.9671V43.6969C10.9864 43.9881 12.1288 44.1594 13.3137 44.1594C14.4986 44.1594 15.6409 43.9894 16.7346 43.6969V53.9671ZM24.1238 30.8482C24.1238 36.8101 19.2743 41.6584 13.3124 41.6584C7.35052 41.6584 2.50225 36.8101 2.50225 30.8482C2.50225 24.8863 7.35177 20.0368 13.3124 20.0368C19.2731 20.0368 24.1238 24.8875 24.1238 30.8482ZM53.4184 53.9671C53.4184 54.7021 52.8197 55.3008 52.0848 55.3008H47.9102C47.1753 55.3008 46.5766 54.7021 46.5766 53.9671V43.6969C47.6703 43.9881 48.8139 44.1594 49.9975 44.1594C51.1824 44.1594 52.3248 43.9894 53.4184 43.6969V53.9671ZM60.8077 30.8482C60.8077 36.8101 55.9582 41.6584 49.9975 41.6584C44.0369 41.6584 39.1874 36.8088 39.1874 30.8482C39.1874 24.8875 44.0369 20.0368 49.9975 20.0368C55.9582 20.0368 60.8077 24.8875 60.8077 30.8482ZM90.1023 53.9671C90.1023 54.7021 89.5036 55.3008 88.7687 55.3008H84.5953C83.8604 55.3008 83.2617 54.7021 83.2617 53.9671V43.6969C84.3554 43.9881 85.499 44.1594 86.6826 44.1594C87.8675 44.1594 89.0099 43.9894 90.1035 43.6969L90.1023 53.9671ZM97.4928 30.8482C97.4928 36.8101 92.6433 41.6584 86.6826 41.6584C80.722 41.6584 75.8712 36.8088 75.8712 30.8482C75.8712 24.8875 80.7207 20.0368 86.6826 20.0368C92.6445 20.0368 97.4928 24.8875 97.4928 30.8482ZM2.49975 5.90066C2.49975 4.02585 4.02585 2.49975 5.90191 2.49975H94.0894C95.9642 2.49975 97.4903 4.02585 97.4903 5.90066V7.0143C97.4903 8.88912 95.9642 10.4152 94.0894 10.4152H5.90191C4.02585 10.4152 2.49975 8.88912 2.49975 7.0143V5.90066Z" fill="url(#paint0_linear_59_23568)"/>
<path d="M1.24988 99.9999H98.7427C99.4326 99.9999 99.9926 99.4399 99.9926 98.75V85.7738C99.9926 85.0839 99.4326 84.5239 98.7427 84.5239H1.24988C0.559944 84.5239 0 85.0839 0 85.7738V98.75C0 99.4399 0.559944 99.9999 1.24988 99.9999ZM2.49975 87.0237H97.4928V97.5001H2.49975V87.0237Z" fill="url(#paint1_linear_59_23568)"/>
<path d="M9.2179 90.1997C8.5279 90.1997 7.9679 90.7597 7.9679 91.4497V93.591C7.9679 94.281 8.5279 94.841 9.2179 94.841C9.9079 94.841 10.4679 94.281 10.4679 93.591V91.4497C10.4679 90.7585 9.9079 90.1997 9.2179 90.1997Z" fill="white"/>
<path d="M16.6322 90.1997C15.9422 90.1997 15.3822 90.7597 15.3822 91.4497V93.591C15.3822 94.281 15.9422 94.841 16.6322 94.841C17.3222 94.841 17.8822 94.281 17.8822 93.591V91.4497C17.8822 90.7585 17.3222 90.1997 16.6322 90.1997Z" fill="white"/>
<path d="M24.0465 90.1997C23.3565 90.1997 22.7965 90.7597 22.7965 91.4497V93.591C22.7965 94.281 23.3565 94.841 24.0465 94.841C24.7365 94.841 25.2965 94.281 25.2965 93.591V91.4497C25.2965 90.7585 24.7378 90.1997 24.0465 90.1997Z" fill="white"/>
<path d="M31.4608 90.1997C30.7708 90.1997 30.2108 90.7597 30.2108 91.4497V93.591C30.2108 94.281 30.7708 94.841 31.4608 94.841C32.1508 94.841 32.7108 94.281 32.7108 93.591V91.4497C32.7108 90.7585 32.1521 90.1997 31.4608 90.1997Z" fill="white"/>
<path d="M38.8762 90.1997C38.1862 90.1997 37.6262 90.7597 37.6262 91.4497V93.591C37.6262 94.281 38.1862 94.841 38.8762 94.841C39.5662 94.841 40.1262 94.281 40.1262 93.591V91.4497C40.1262 90.7585 39.5662 90.1997 38.8762 90.1997Z" fill="white"/>
<path d="M46.2905 90.1997C45.6005 90.1997 45.0405 90.7597 45.0405 91.4497V93.591C45.0405 94.281 45.6005 94.841 46.2905 94.841C46.9805 94.841 47.5405 94.281 47.5405 93.591V91.4497C47.5405 90.7585 46.9805 90.1997 46.2905 90.1997Z" fill="white"/>
<path d="M53.7048 90.1997C53.0148 90.1997 52.4548 90.7597 52.4548 91.4497V93.591C52.4548 94.281 53.0148 94.841 53.7048 94.841C54.3948 94.841 54.9548 94.281 54.9548 93.591V91.4497C54.9548 90.7585 54.3961 90.1997 53.7048 90.1997Z" fill="white"/>
<path d="M61.1191 90.1997C60.4291 90.1997 59.8691 90.7597 59.8691 91.4497V93.591C59.8691 94.281 60.4291 94.841 61.1191 94.841C61.8091 94.841 62.3691 94.281 62.3691 93.591V91.4497C62.3691 90.7585 61.8104 90.1997 61.1191 90.1997Z" fill="white"/>
<path d="M68.5345 90.1997C67.8445 90.1997 67.2845 90.7597 67.2845 91.4497V93.591C67.2845 94.281 67.8445 94.841 68.5345 94.841C69.2245 94.841 69.7845 94.281 69.7845 93.591V91.4497C69.7845 90.7585 69.2245 90.1997 68.5345 90.1997Z" fill="white"/>
<path d="M75.9489 90.1997C75.2589 90.1997 74.6989 90.7597 74.6989 91.4497V93.591C74.6989 94.281 75.2589 94.841 75.9489 94.841C76.6389 94.841 77.1989 94.281 77.1989 93.591V91.4497C77.1989 90.7585 76.6389 90.1997 75.9489 90.1997Z" fill="white"/>
<path d="M83.3632 90.1997C82.6732 90.1997 82.1132 90.7597 82.1132 91.4497V93.591C82.1132 94.281 82.6732 94.841 83.3632 94.841C84.0532 94.841 84.6132 94.281 84.6132 93.591V91.4497C84.6132 90.7585 84.0532 90.1997 83.3632 90.1997Z" fill="white"/>
<path d="M90.7773 90.1997C90.0873 90.1997 89.5273 90.7597 89.5273 91.4497V93.591C89.5273 94.281 90.0873 94.841 90.7773 94.841C91.4673 94.841 92.0273 94.281 92.0273 93.591V91.4497C92.0273 90.7585 91.4673 90.1997 90.7773 90.1997Z" fill="white"/>
<defs>
<linearGradient id="paint0_linear_59_23568" x1="49.9963" y1="-26.4202" x2="49.9963" y2="78.98" gradientUnits="userSpaceOnUse">
<stop stop-color="#00AFB6"/>
<stop offset="1" stop-color="#F3E688"/>
</linearGradient>
<linearGradient id="paint1_linear_59_23568" x1="49.9963" y1="79.3469" x2="49.9963" y2="99.9999" gradientUnits="userSpaceOnUse">
<stop stop-color="#00AFB6"/>
<stop offset="1" stop-color="#F3E688"/>
</linearGradient>
</defs>
</svg>
