<svg width="117" height="100" viewBox="0 0 117 100" fill="none" xmlns="http://www.w3.org/2000/svg">
<path d="M115.117 97.9373H112.442C112.839 97.4417 113.055 96.8257 113.055 96.1908V86.7979C114.226 85.9939 115.109 84.8363 115.575 83.4945C116.041 82.1527 116.065 80.697 115.644 79.3403C115.223 77.9837 114.379 76.7973 113.236 75.9548C112.092 75.1123 110.709 74.6578 109.288 74.6578C107.868 74.6578 106.485 75.1123 105.341 75.9548C104.198 76.7973 103.354 77.9837 102.933 79.3403C102.512 80.697 102.536 82.1527 103.002 83.4945C103.468 84.8363 104.351 85.9939 105.522 86.7979V96.1873C105.523 96.8217 105.739 97.4371 106.133 97.9338H100.445C100.786 97.3314 100.967 96.651 100.969 95.9585V49.0481C102.291 48.75 103.481 48.0294 104.358 46.9953C105.235 45.9611 105.751 44.6696 105.829 43.316C105.868 43.2035 105.887 43.0855 105.887 42.9667V33.2978C105.886 31.8008 105.409 30.3428 104.525 29.1347C103.641 27.9266 102.395 27.0309 100.969 26.5771V20.6895C100.967 19.884 100.647 19.1118 100.077 18.5422C99.5075 17.9726 98.7353 17.6519 97.9298 17.6506H95.4619C94.2026 12.6135 91.2972 8.1413 87.2066 4.94365C83.116 1.746 78.0747 0.006079 72.8826 0H44.3232C39.1311 0.006079 34.0898 1.746 29.9992 4.94365C25.9086 8.1413 23.0032 12.6135 21.7439 17.6506H19.2813C18.4754 17.6515 17.7028 17.9719 17.1328 18.5416C16.5628 19.1112 16.2419 19.8837 16.2405 20.6895V26.3204C14.5687 26.5708 13.0422 27.4127 11.9384 28.6931C10.8347 29.9735 10.2268 31.6074 10.2254 33.2978V42.8601C10.2261 44.2962 10.7124 45.6898 11.6053 46.8145C12.4982 47.9392 13.7452 48.7288 15.1437 49.0551V95.962C15.1456 96.6545 15.3261 97.3349 15.6677 97.9373H9.97568C10.3703 97.4406 10.5857 96.8252 10.587 96.1908V86.7979C11.7585 85.9939 12.642 84.836 13.1082 83.4938C13.5744 82.1516 13.5988 80.6954 13.1779 79.3383C12.757 77.9811 11.9128 76.7943 10.7689 75.9515C9.62504 75.1086 8.24144 74.6539 6.82055 74.6539C5.39966 74.6539 4.01606 75.1086 2.87217 75.9515C1.72827 76.7943 0.884124 77.9811 0.463219 79.3383C0.0423143 80.6954 0.0667448 82.1516 0.532936 83.4938C0.999127 84.836 1.88261 85.9939 3.05413 86.7979V96.1873C3.05413 96.8222 3.27035 97.4382 3.66717 97.9338H0.991467C0.724827 97.9448 0.472753 98.0584 0.287968 98.251C0.103183 98.4435 0 98.7001 0 98.9669C0 99.2338 0.103183 99.4903 0.287968 99.6829C0.472753 99.8754 0.724827 99.989 0.991467 100H115.117C115.384 99.989 115.636 99.8754 115.821 99.6829C116.006 99.4903 116.109 99.2338 116.109 98.9669C116.109 98.7001 116.006 98.4435 115.821 98.251C115.636 98.0584 115.384 97.9448 115.117 97.9338V97.9373ZM104.289 81.3138C104.292 80.4191 104.535 79.5416 104.992 78.7729C105.45 78.0042 106.106 77.3725 106.891 76.9437C107.676 76.5149 108.562 76.3048 109.456 76.3353C110.35 76.3658 111.22 76.6358 111.974 77.1171C112.728 77.5984 113.339 78.2733 113.743 79.0714C114.148 79.8695 114.33 80.7616 114.272 81.6543C114.214 82.5471 113.917 83.4078 113.413 84.1467C112.908 84.8856 112.215 85.4754 111.404 85.8548C110.743 86.1642 110.021 86.3246 109.291 86.3246C108.561 86.3246 107.839 86.1642 107.178 85.8548C106.315 85.4504 105.585 84.8085 105.073 84.0043C104.561 83.2001 104.289 82.2669 104.289 81.3138ZM109.291 87.9698C110.01 87.9679 110.723 87.85 111.404 87.6205V96.1786C111.403 96.4865 111.28 96.7814 111.062 96.9988C110.844 97.2162 110.549 97.3383 110.241 97.3383H108.337C108.03 97.3378 107.735 97.2155 107.518 96.9981C107.301 96.7807 107.178 96.486 107.178 96.1786V87.6205C107.858 87.8499 108.571 87.9679 109.289 87.9698H109.291ZM1.81583 81.3138C1.81812 80.4186 2.06076 79.5404 2.51842 78.771C2.97607 78.0017 3.63193 77.3693 4.41749 76.9401C5.20305 76.5108 6.08947 76.3004 6.98415 76.3308C7.87883 76.3612 8.74892 76.6313 9.50353 77.1129C10.2581 77.5945 10.8696 78.2699 11.274 79.0685C11.6783 79.8672 11.8608 80.7598 11.8023 81.653C11.7439 82.5463 11.4466 83.4075 10.9415 84.1466C10.4365 84.8857 9.7422 85.4757 8.93125 85.8548C8.26969 86.1642 7.54827 86.3246 6.81793 86.3246C6.08759 86.3246 5.36617 86.1642 4.70462 85.8548C3.84206 85.4497 3.11249 84.8077 2.601 84.0036C2.08951 83.1996 1.8172 82.2667 1.81583 81.3138ZM6.81793 87.9698C7.53659 87.9681 8.25025 87.8501 8.93125 87.6205V96.1786C8.93078 96.486 8.80845 96.7807 8.59107 96.9981C8.37368 97.2155 8.07897 97.3378 7.77154 97.3383H5.86781C5.55992 97.3383 5.26458 97.2162 5.04654 96.9988C4.8285 96.7814 4.70554 96.4865 4.70462 96.1786V87.6205C5.38621 87.8502 6.10044 87.9681 6.81968 87.9698H6.81793ZM103.814 33.2978V42.6488C103.783 42.7519 103.766 42.8589 103.765 42.9667C103.776 43.5205 103.677 44.0711 103.473 44.5861C103.269 45.1011 102.964 45.5702 102.576 45.9659C102.189 46.3616 101.726 46.6759 101.215 46.8905C100.704 47.1052 100.156 47.2157 99.6021 47.2157C99.0481 47.2157 98.4997 47.1052 97.989 46.8905C97.4783 46.6759 97.0156 46.3616 96.6279 45.9659C96.2402 45.5702 95.9354 45.1011 95.7313 44.5861C95.5272 44.0711 95.4279 43.5205 95.4392 42.9667C95.4392 42.9667 95.4392 42.9667 95.4392 42.9562V28.3114H98.8327C100.154 28.3142 101.42 28.8406 102.354 29.7753C103.287 30.71 103.812 31.9767 103.814 33.2978ZM22.6835 43.0785C22.6835 43.0418 22.694 43.0051 22.694 42.9667V28.3114H31.0075V42.9667C30.999 44.0536 30.5657 45.0941 29.8003 45.8659C29.0349 46.6376 27.998 47.0795 26.9112 47.097C25.8244 47.1146 24.7738 46.7065 23.9838 45.9598C23.1939 45.2132 22.7272 44.1872 22.6835 43.1012V43.0785ZM33.0789 28.3114H41.4064V42.9719C41.3841 44.0617 40.9355 45.0993 40.157 45.8621C39.3784 46.6249 38.3318 47.0521 37.2418 47.0521C36.1518 47.0521 35.1053 46.6249 34.3267 45.8621C33.5481 45.0993 33.0995 44.0617 33.0772 42.9719L33.0789 28.3114ZM43.4726 28.3114H51.8019V42.9579C51.8017 42.9609 51.8017 42.9638 51.8019 42.9667C51.8132 43.5205 51.7139 44.0711 51.5098 44.5861C51.3057 45.1011 51.0009 45.5702 50.6132 45.9659C50.2255 46.3616 49.7628 46.6759 49.2521 46.8905C48.7413 47.1052 48.1929 47.2157 47.639 47.2157C47.085 47.2157 46.5366 47.1052 46.0259 46.8905C45.5152 46.6759 45.0525 46.3616 44.6648 45.9659C44.2771 45.5702 43.9723 45.1011 43.7682 44.5861C43.564 44.0711 43.4648 43.5205 43.4761 42.9667L43.4726 28.3114ZM53.8628 42.9667V28.3114H62.1938V42.9667C62.1938 44.071 61.7551 45.13 60.9743 45.9109C60.1934 46.6918 59.1343 47.1304 58.03 47.1304C56.9257 47.1304 55.8667 46.6918 55.0858 45.9109C54.305 45.13 53.8663 44.071 53.8663 42.9667C53.8663 42.9667 53.8628 42.9702 53.8628 42.9667ZM64.2565 42.9667V28.3114H72.584V42.9667C72.584 44.071 72.1453 45.13 71.3644 45.9109C70.5836 46.6918 69.5245 47.1304 68.4202 47.1304C67.3159 47.1304 66.2569 46.6918 65.476 45.9109C64.6951 45.13 64.2565 44.071 64.2565 42.9667ZM74.6466 28.3114H82.9741V42.9702C82.9741 44.0745 82.5355 45.1335 81.7546 45.9144C80.9738 46.6952 79.9147 47.1339 78.8104 47.1339C77.7061 47.1339 76.647 46.6952 75.8662 45.9144C75.0853 45.1335 74.6466 44.0745 74.6466 42.9702V28.3114ZM85.0403 28.3114H93.3678V42.9737C93.3678 44.078 92.9291 45.137 92.1483 45.9179C91.3674 46.6987 90.3083 47.1374 89.204 47.1374C88.0998 47.1374 87.0407 46.6987 86.2598 45.9179C85.479 45.137 85.0403 44.078 85.0403 42.9737V28.3114ZM44.3232 2.06616H72.8826C77.5266 2.07045 82.0413 3.59682 85.7351 6.41152C89.4289 9.22622 92.0984 13.1741 93.3346 17.6506H23.8782C25.1138 13.1751 27.7821 9.22791 31.4746 6.41328C35.1671 3.59865 39.6803 2.07169 44.3232 2.06616ZM19.2813 19.7167H97.9263C98.1842 19.7172 98.4313 19.8198 98.6137 20.0022C98.796 20.1845 98.8986 20.4317 98.8991 20.6895V26.2488H18.3067V20.6895C18.3071 20.4314 18.41 20.1839 18.5927 20.0015C18.7755 19.8191 19.0231 19.7167 19.2813 19.7167ZM12.2951 42.8601V33.2978C12.2965 31.9764 12.8218 30.7094 13.7559 29.7747C14.6899 28.84 15.9565 28.3138 17.278 28.3114H20.6348V42.8077C20.6243 42.8653 20.6196 42.9239 20.6209 42.9824C20.6206 43.539 20.5088 44.09 20.2921 44.6027C20.0754 45.1154 19.7582 45.5796 19.3592 45.9677C18.9602 46.3558 18.4874 46.66 17.9689 46.8624C17.4503 47.0648 16.8965 47.1613 16.3401 47.1462C14.1045 47.0676 12.2951 45.1533 12.2951 42.8601ZM24.8492 97.9373V72.8814C24.8492 71.5312 25.1152 70.1942 25.6319 68.9467C26.1486 67.6993 26.906 66.5658 27.8607 65.6111C28.8155 64.6563 29.949 63.8989 31.1964 63.3822C32.4439 62.8655 33.7809 62.5996 35.1311 62.5996C36.4814 62.5996 37.8184 62.8655 39.0658 63.3822C40.3133 63.8989 41.4468 64.6563 42.4015 65.6111C43.3563 66.5658 44.1136 67.6993 44.6304 68.9467C45.1471 70.1942 45.413 71.5312 45.413 72.8814V97.9373H24.8492ZM47.4792 97.9373V72.8814C47.4792 69.6054 46.1778 66.4635 43.8612 64.147C41.5447 61.8304 38.4028 60.529 35.1268 60.529C31.8507 60.529 28.7088 61.8304 26.3923 64.147C24.0757 66.4635 22.7743 69.6054 22.7743 72.8814V97.9373H19.1869C18.6632 97.9369 18.161 97.7286 17.7907 97.3583C17.4203 96.9879 17.2121 96.4857 17.2116 95.962V49.1547C18.1063 49.0436 18.9664 48.7405 19.7331 48.266C20.4997 47.7915 21.1546 47.1569 21.6531 46.4056C22.2204 47.2649 22.9921 47.9701 23.8989 48.458C24.8057 48.9459 25.8193 49.2013 26.849 49.2013C27.8787 49.2013 28.8924 48.9459 29.7992 48.458C30.706 47.9701 31.4776 47.2649 32.045 46.4056C32.612 47.2657 33.3836 47.9715 34.2906 48.4599C35.1976 48.9483 36.2117 49.204 37.2418 49.204C38.272 49.204 39.286 48.9483 40.193 48.4599C41.1 47.9715 41.8716 47.2657 42.4387 46.4056C43.0055 47.2657 43.7769 47.9716 44.6838 48.46C45.5907 48.9484 46.6046 49.2041 47.6346 49.2041C48.6646 49.2041 49.6786 48.9484 50.5854 48.46C51.4923 47.9716 52.2638 47.2657 52.8306 46.4056C53.3978 47.2657 54.1696 47.9715 55.0767 48.4599C55.9839 48.9482 56.998 49.2039 58.0283 49.2039C59.0585 49.2039 60.0727 48.9482 60.9798 48.4599C61.887 47.9715 62.6588 47.2657 63.226 46.4056C63.793 47.2657 64.5646 47.9715 65.4716 48.4599C66.3786 48.9483 67.3927 49.204 68.4228 49.204C69.453 49.204 70.467 48.9483 71.374 48.4599C72.281 47.9715 73.0526 47.2657 73.6197 46.4056C74.1869 47.2657 74.9587 47.9715 75.8658 48.4599C76.773 48.9482 77.7871 49.2039 78.8174 49.2039C79.8476 49.2039 80.8618 48.9482 81.7689 48.4599C82.6761 47.9715 83.4478 47.2657 84.0151 46.4056C84.5821 47.2657 85.3537 47.9715 86.2607 48.4599C87.1677 48.9483 88.1818 49.204 89.2119 49.204C90.2421 49.204 91.2561 48.9483 92.1631 48.4599C93.0701 47.9715 93.8417 47.2657 94.4088 46.4056C94.9103 47.1649 95.5721 47.8051 96.3476 48.2812C97.123 48.7573 97.9933 49.0579 98.8974 49.1617V95.969C98.8969 96.4927 98.6886 96.9949 98.3183 97.3652C97.9479 97.7356 97.4458 97.9439 96.922 97.9443L47.4792 97.9373Z" fill="url(#paint0_linear_59_23461)"/>
<path d="M91.8413 63.0208H55.2355C54.43 63.0212 53.6575 63.3413 53.0878 63.9107C52.518 64.4802 52.1975 65.2524 52.1965 66.058V84.6744C52.1975 85.4801 52.5179 86.2525 53.0877 86.8222C53.6574 87.392 54.4298 87.7124 55.2355 87.7134H91.8413C92.6468 87.7124 93.4191 87.3919 93.9885 86.8221C94.558 86.2524 94.8781 85.4799 94.8785 84.6744V66.058C94.8781 65.2526 94.5579 64.4803 93.9884 63.9108C93.4189 63.3414 92.6467 63.0212 91.8413 63.0208ZM92.8124 84.6779C92.8124 84.9356 92.7101 85.1828 92.5281 85.3651C92.346 85.5475 92.099 85.6502 91.8413 85.6507H55.2355C54.9775 85.6507 54.7301 85.5482 54.5476 85.3658C54.3652 85.1833 54.2627 84.9359 54.2627 84.6779V66.058C54.2632 65.8003 54.3659 65.5533 54.5482 65.3712C54.7306 65.1892 54.9778 65.0869 55.2355 65.0869H91.8413C92.0987 65.0874 92.3454 65.1898 92.5274 65.3718C92.7094 65.5539 92.8119 65.8006 92.8124 66.058V84.6779Z" fill="white"/>
<defs>
<linearGradient id="paint0_linear_59_23461" x1="58.0545" y1="-33.4517" x2="58.0545" y2="100" gradientUnits="userSpaceOnUse">
<stop stop-color="#00AFB6"/>
<stop offset="1" stop-color="#F3E688"/>
</linearGradient>
</defs>
</svg>
