<svg width="61" height="100" viewBox="0 0 61 100" fill="none" xmlns="http://www.w3.org/2000/svg">
<path d="M5.81395 0C2.61313 0 0 2.61314 0 5.81395V94.186C0 97.3869 2.61313 100 5.81395 100H54.6512C57.852 100 60.4651 97.3869 60.4651 94.186V5.81395C60.4651 2.61314 57.852 0 54.6512 0H5.81395ZM5.81395 2.32558H54.6512C56.6038 2.32558 58.1395 3.86128 58.1395 5.81395V11.6279H2.32558V5.81395C2.32558 3.86128 3.86127 2.32558 5.81395 2.32558ZM2.32558 13.9535H58.1395V81.3953H2.32558V13.9535ZM2.32558 83.7209H58.1395V94.186C58.1395 96.1387 56.6038 97.6744 54.6512 97.6744H5.81395C3.86127 97.6744 2.32558 96.1387 2.32558 94.186V83.7209Z" fill="url(#paint0_linear_59_23618)"/>
<path d="M23.2557 5.81396C22.6135 5.81396 22.0929 6.33455 22.0929 6.97676C22.0929 7.61896 22.6135 8.13955 23.2557 8.13955H37.2092C37.8514 8.13955 38.372 7.61896 38.372 6.97676C38.372 6.33455 37.8514 5.81396 37.2092 5.81396H23.2557ZM34.8473 36.0103C34.634 36.0155 34.4263 36.0792 34.2469 36.1946C34.0674 36.3099 33.9231 36.4723 33.8298 36.6642L22.2019 59.92C22.1327 60.0584 22.0914 60.2091 22.0804 60.3634C22.0694 60.5178 22.089 60.6728 22.1379 60.8196C22.1868 60.9664 22.2641 61.1021 22.3655 61.2191C22.4669 61.336 22.5903 61.4317 22.7287 61.5009C22.8671 61.5702 23.0178 61.6114 23.1721 61.6224C23.3265 61.6333 23.4815 61.6138 23.6283 61.5648C23.7751 61.5159 23.9108 61.4385 24.0277 61.3371C24.1446 61.2357 24.2403 61.1123 24.3095 60.9738L35.9374 37.718C36.0343 37.5361 36.0811 37.3316 36.073 37.1256C36.0649 36.9196 36.0021 36.7195 35.8912 36.5457C35.7803 36.372 35.6252 36.2307 35.4417 36.1367C35.2583 36.0426 35.0531 35.999 34.8473 36.0103ZM18.4955 38.3358C18.1939 38.3758 17.92 38.5323 17.7325 38.7719L10.7557 46.9114C10.5813 47.1205 10.4858 47.3841 10.4858 47.6563C10.4858 47.9286 10.5813 48.1921 10.7557 48.4012L17.7325 56.5407C17.8195 56.6856 17.937 56.8098 18.0769 56.9046C18.2167 56.9994 18.3756 57.0626 18.5424 57.0898C18.7091 57.117 18.8798 57.1075 19.0426 57.062C19.2053 57.0165 19.3562 56.936 19.4847 56.8263C19.6132 56.7165 19.7162 56.5801 19.7866 56.4264C19.857 56.2728 19.8931 56.1057 19.8923 55.9367C19.8915 55.7678 19.854 55.601 19.7822 55.448C19.7104 55.2951 19.6061 55.1595 19.4767 55.051L13.154 47.6744L19.4767 40.2616C19.6304 40.0868 19.7281 39.8698 19.7572 39.6388C19.7862 39.4078 19.7452 39.1733 19.6395 38.9658C19.5338 38.7584 19.3683 38.5874 19.1643 38.4751C18.9604 38.3628 18.7274 38.3143 18.4955 38.3358ZM41.715 40.6614C41.5047 40.6875 41.3056 40.7706 41.1391 40.9016C40.9725 41.0326 40.845 41.2067 40.7702 41.4049C40.6954 41.6032 40.6761 41.818 40.7146 42.0264C40.753 42.2348 40.8477 42.4287 40.9883 42.5872L47.311 50L40.9883 57.3765C40.8588 57.4851 40.7545 57.6206 40.6828 57.7736C40.611 57.9266 40.5734 58.0933 40.5726 58.2623C40.5719 58.4313 40.6079 58.5984 40.6783 58.752C40.7487 58.9056 40.8518 59.0421 40.9802 59.1519C41.1087 59.2616 41.2596 59.3421 41.4223 59.3876C41.5851 59.4331 41.7558 59.4426 41.9226 59.4154C42.0893 59.3882 42.2482 59.325 42.3881 59.2302C42.5279 59.1353 42.6455 59.0112 42.7325 58.8663L49.7092 50.7268C49.8836 50.5177 49.9791 50.2541 49.9791 49.9819C49.9791 49.7097 49.8836 49.4461 49.7092 49.237L42.7325 41.0975C42.6125 40.946 42.4566 40.8268 42.279 40.7506C42.1013 40.6745 41.9075 40.6438 41.715 40.6614ZM30.2325 87.2093C28.3059 87.2093 26.7441 88.7712 26.7441 90.6977C26.7441 92.6243 28.3059 94.1861 30.2325 94.1861C32.159 94.1861 33.7208 92.6243 33.7208 90.6977C33.7208 88.7712 32.159 87.2093 30.2325 87.2093Z" fill="white"/>
<defs>
<linearGradient id="paint0_linear_59_23618" x1="30.2326" y1="-33.4517" x2="30.2326" y2="100" gradientUnits="userSpaceOnUse">
<stop stop-color="#00AFB6"/>
<stop offset="1" stop-color="#F3E688"/>
</linearGradient>
</defs>
</svg>
