<svg width="98" height="100" viewBox="0 0 98 100" fill="none" xmlns="http://www.w3.org/2000/svg">
<path d="M18.3036 8.85705C18.1363 8.69075 17.91 8.59741 17.6741 8.59741C17.4382 8.59741 17.2119 8.69075 17.0447 8.85705L12.9464 12.9374L10.8036 10.8035C10.6355 10.6365 10.4079 10.5432 10.171 10.5441C9.93403 10.5449 9.70714 10.6398 9.54019 10.8079C9.37325 10.9761 9.27993 11.2036 9.28077 11.4406C9.2816 11.6775 9.37653 11.9044 9.54466 12.0713L12.3125 14.8303C12.3959 14.913 12.4949 14.9785 12.6037 15.0229C12.7124 15.0673 12.8289 15.0899 12.9464 15.0892C13.1807 15.0882 13.4051 14.9952 13.5714 14.8303L18.3036 10.1249C18.3873 10.0419 18.4537 9.94315 18.499 9.83435C18.5443 9.72554 18.5677 9.60884 18.5677 9.49098C18.5677 9.37311 18.5443 9.25641 18.499 9.14761C18.4537 9.0388 18.3873 8.94005 18.3036 8.85705Z" fill="white"/>
<path d="M18.3036 27.0895C18.1363 26.9232 17.91 26.8298 17.6741 26.8298C17.4383 26.8298 17.212 26.9232 17.0447 27.0895L12.9465 31.1698L10.8036 29.0359C10.7206 28.9522 10.6219 28.8858 10.5131 28.8405C10.4043 28.7951 10.2876 28.7718 10.1697 28.7718C10.0518 28.7718 9.93512 28.7951 9.82631 28.8405C9.71751 28.8858 9.61876 28.9522 9.53576 29.0359C9.36946 29.2032 9.27612 29.4295 9.27612 29.6654C9.27612 29.9012 9.36946 30.1275 9.53576 30.2948L12.2768 33.0359C12.3603 33.1186 12.4592 33.1841 12.568 33.2285C12.6768 33.273 12.7932 33.2955 12.9108 33.2948C13.145 33.2938 13.3695 33.2008 13.5358 33.0359L18.3036 28.3573C18.3873 28.2743 18.4537 28.1756 18.499 28.0668C18.5444 27.958 18.5677 27.8413 18.5677 27.7234C18.5677 27.6055 18.5444 27.4888 18.499 27.38C18.4537 27.2712 18.3873 27.1725 18.3036 27.0895Z" fill="white"/>
<path d="M18.3036 45.3216C18.1363 45.1554 17.91 45.062 17.6741 45.062C17.4383 45.062 17.212 45.1554 17.0447 45.3216L12.9465 49.402L10.8036 47.2681C10.7206 47.1844 10.6219 47.118 10.5131 47.0726C10.4043 47.0273 10.2876 47.004 10.1697 47.004C10.0518 47.004 9.93512 47.0273 9.82631 47.0726C9.71751 47.118 9.61876 47.1844 9.53576 47.2681C9.36946 47.4354 9.27612 47.6617 9.27612 47.8975C9.27612 48.1334 9.36946 48.3597 9.53576 48.527L12.3036 51.2859C12.387 51.3687 12.486 51.4341 12.5948 51.4786C12.7036 51.523 12.82 51.5455 12.9375 51.5449C13.1718 51.5439 13.3962 51.4509 13.5625 51.2859L18.3036 46.5895C18.3873 46.5065 18.4537 46.4077 18.499 46.2989C18.5444 46.1901 18.5677 46.0734 18.5677 45.9556C18.5677 45.8377 18.5444 45.721 18.499 45.6122C18.4537 45.5034 18.3873 45.4046 18.3036 45.3216Z" fill="white"/>
<path d="M59.4286 10.9463H21.4822C21.2454 10.9463 21.0183 11.0404 20.8509 11.2078C20.6834 11.3752 20.5894 11.6023 20.5894 11.8391C20.5894 12.0759 20.6834 12.303 20.8509 12.4705C21.0183 12.6379 21.2454 12.732 21.4822 12.732H59.4286C59.6654 12.732 59.8925 12.6379 60.0599 12.4705C60.2274 12.303 60.3215 12.0759 60.3215 11.8391C60.3215 11.6023 60.2274 11.3752 60.0599 11.2078C59.8925 11.0404 59.6654 10.9463 59.4286 10.9463Z" fill="white"/>
<path d="M59.4286 15.5178H21.4822C21.2454 15.5178 21.0183 15.6119 20.8509 15.7793C20.6834 15.9468 20.5894 16.1739 20.5894 16.4107C20.5894 16.6475 20.6834 16.8746 20.8509 17.042C21.0183 17.2095 21.2454 17.3035 21.4822 17.3035H59.4286C59.6654 17.3035 59.8925 17.2095 60.0599 17.042C60.2274 16.8746 60.3215 16.6475 60.3215 16.4107C60.3215 16.1739 60.2274 15.9468 60.0599 15.7793C59.8925 15.6119 59.6654 15.5178 59.4286 15.5178Z" fill="white"/>
<path d="M59.4286 29.1873H21.4822C21.2454 29.1873 21.0183 29.2813 20.8509 29.4488C20.6834 29.6162 20.5894 29.8433 20.5894 30.0801C20.5894 30.3169 20.6834 30.544 20.8509 30.7115C21.0183 30.8789 21.2454 30.973 21.4822 30.973H59.4286C59.6654 30.973 59.8925 30.8789 60.0599 30.7115C60.2274 30.544 60.3215 30.3169 60.3215 30.0801C60.3215 29.8433 60.2274 29.6162 60.0599 29.4488C59.8925 29.2813 59.6654 29.1873 59.4286 29.1873Z" fill="white"/>
<path d="M59.4286 33.75H21.4822C21.2454 33.75 21.0183 33.8441 20.8509 34.0115C20.6834 34.179 20.5894 34.4061 20.5894 34.6429C20.5894 34.8797 20.6834 35.1068 20.8509 35.2742C21.0183 35.4416 21.2454 35.5357 21.4822 35.5357H59.4286C59.6654 35.5357 59.8925 35.4416 60.0599 35.2742C60.2274 35.1068 60.3215 34.8797 60.3215 34.6429C60.3215 34.4061 60.2274 34.179 60.0599 34.0115C59.8925 33.8441 59.6654 33.75 59.4286 33.75Z" fill="white"/>
<path d="M59.4286 47.4197H21.4822C21.2454 47.4197 21.0183 47.5137 20.8509 47.6812C20.6834 47.8486 20.5894 48.0757 20.5894 48.3125C20.5894 48.5493 20.6834 48.7764 20.8509 48.9439C21.0183 49.1113 21.2454 49.2054 21.4822 49.2054H59.4286C59.6654 49.2054 59.8925 49.1113 60.0599 48.9439C60.2274 48.7764 60.3215 48.5493 60.3215 48.3125C60.3215 48.0757 60.2274 47.8486 60.0599 47.6812C59.8925 47.5137 59.6654 47.4197 59.4286 47.4197Z" fill="white"/>
<path d="M60.3215 52.875C60.3215 52.6382 60.2274 52.4111 60.0599 52.2437C59.8925 52.0762 59.6654 51.9822 59.4286 51.9822H21.4822C21.2454 51.9822 21.0183 52.0762 20.8509 52.2437C20.6834 52.4111 20.5894 52.6382 20.5894 52.875C20.5894 53.1118 20.6834 53.3389 20.8509 53.5064C21.0183 53.6738 21.2454 53.7679 21.4822 53.7679H59.4286C59.6654 53.7679 59.8925 53.6738 60.0599 53.5064C60.2274 53.3389 60.3215 53.1118 60.3215 52.875Z" fill="white"/>
<path d="M40.2144 83.7411C39.9776 83.7411 39.7505 83.8351 39.583 84.0026C39.4156 84.17 39.3215 84.3971 39.3215 84.6339C39.3215 84.8707 39.4156 85.0978 39.583 85.2653C39.7505 85.4327 39.9776 85.5268 40.2144 85.5268H44.8751V89.2143C44.8751 89.4511 44.9692 89.6782 45.1366 89.8456C45.3041 90.0131 45.5312 90.1071 45.768 90.1071C46.0048 90.1071 46.2319 90.0131 46.3993 89.8456C46.5667 89.6782 46.6608 89.4511 46.6608 89.2143V85.5268H48.5001C49.4804 85.5268 50.4206 85.1373 51.1139 84.4441C51.8071 83.7509 52.1965 82.8107 52.1965 81.8303C52.1965 80.85 51.8071 79.9098 51.1139 79.2166C50.4206 78.5234 49.4804 78.1339 48.5001 78.1339H46.6608V74.3125H51.3394C51.5762 74.3125 51.8033 74.2184 51.9707 74.051C52.1382 73.8835 52.2322 73.6564 52.2322 73.4196C52.2322 73.1828 52.1382 72.9557 51.9707 72.7883C51.8033 72.6209 51.5762 72.5268 51.3394 72.5268H46.6608V68.8304C46.6608 68.5936 46.5667 68.3665 46.3993 68.199C46.2319 68.0316 46.0048 67.9375 45.768 67.9375C45.5312 67.9375 45.3041 68.0316 45.1366 68.199C44.9692 68.3665 44.8751 68.5936 44.8751 68.8304V72.5268H43.0358C42.0555 72.5268 41.1153 72.9162 40.422 73.6094C39.7288 74.3027 39.3394 75.2429 39.3394 76.2232C39.3394 77.2036 39.7288 78.1438 40.422 78.837C41.1153 79.5302 42.0555 79.9196 43.0358 79.9196H44.8751V83.7411H40.2144ZM46.6608 79.9196H48.5001C49.0068 79.9196 49.4928 80.1209 49.8512 80.4793C50.2095 80.8376 50.4108 81.3236 50.4108 81.8303C50.4108 82.3371 50.2095 82.8231 49.8512 83.1814C49.4928 83.5398 49.0068 83.7411 48.5001 83.7411H46.6608V79.9196ZM43.0358 78.1339C42.5291 78.1339 42.0431 77.9326 41.6847 77.5743C41.3264 77.216 41.1251 76.73 41.1251 76.2232C41.1251 75.7165 41.3264 75.2305 41.6847 74.8721C42.0431 74.5138 42.5291 74.3125 43.0358 74.3125H44.8751V78.1339H43.0358Z" fill="white"/>
<path d="M0 0.892856V79.4642C0 79.701 0.0940687 79.9281 0.261512 80.0956C0.428955 80.263 0.656056 80.3571 0.892856 80.3571H22.8928C23.1296 80.3571 23.3567 80.263 23.5242 80.0956C23.6916 79.9281 23.7857 79.701 23.7857 79.4642C23.7857 79.2274 23.6916 79.0003 23.5242 78.8329C23.3567 78.6654 23.1296 78.5714 22.8928 78.5714H20.2143V61.1607C20.2143 60.9239 20.1202 60.6968 19.9528 60.5293C19.7853 60.3619 19.5582 60.2678 19.3214 60.2678H5.97321C5.73641 60.2678 5.50931 60.3619 5.34186 60.5293C5.17442 60.6968 5.08035 60.9239 5.08035 61.1607C5.08035 61.3975 5.17442 61.6246 5.34186 61.792C5.50931 61.9594 5.73641 62.0535 5.97321 62.0535H18.4018V77.3124L1.78571 60.7946V1.78571H64.2053V66.866C64.2053 67.1028 64.2994 67.3299 64.4668 67.4974C64.6343 67.6648 64.8614 67.7589 65.0982 67.7589C65.335 67.7589 65.5621 67.6648 65.7295 67.4974C65.8969 67.3299 65.991 67.1028 65.991 66.866V0.892856C65.991 0.656056 65.8969 0.428955 65.7295 0.261512C65.5621 0.0940687 65.335 0 65.0982 0H0.892856C0.656056 0 0.428955 0.0940687 0.261512 0.261512C0.0940687 0.428955 0 0.656056 0 0.892856ZM1.78571 63.3124L17.125 78.5714H1.78571V63.3124Z" fill="url(#paint0_linear_59_23530)"/>
<path d="M13.8929 9.74982C14.1297 9.74982 14.3568 9.65576 14.5243 9.48831C14.6917 9.32087 14.7858 9.09377 14.7858 8.85697C14.7858 8.62017 14.6917 8.39307 14.5243 8.22562C14.3568 8.05818 14.1297 7.96411 13.8929 7.96411H6.29471C6.05791 7.96411 5.83081 8.05818 5.66337 8.22562C5.49592 8.39307 5.40186 8.62017 5.40186 8.85697V16.4105C5.40186 16.6473 5.49592 16.8744 5.66337 17.0419C5.83081 17.2093 6.05791 17.3034 6.29471 17.3034H13.8929C14.1297 17.3034 14.3568 17.2093 14.5243 17.0419C14.6917 16.8744 14.7858 16.6473 14.7858 16.4105C14.7858 16.1737 14.6917 15.9466 14.5243 15.7792C14.3568 15.6117 14.1297 15.5177 13.8929 15.5177H7.18757V9.74982H13.8929Z" fill="url(#paint1_linear_59_23530)"/>
<path d="M5.40186 34.643C5.40186 34.8798 5.49592 35.1069 5.66337 35.2743C5.83081 35.4417 6.05791 35.5358 6.29471 35.5358H13.8929C14.1297 35.5358 14.3568 35.4417 14.5243 35.2743C14.6917 35.1069 14.7858 34.8798 14.7858 34.643C14.7858 34.4062 14.6917 34.1791 14.5243 34.0116C14.3568 33.8442 14.1297 33.7501 13.8929 33.7501H7.18757V27.9822H13.8929C14.1297 27.9822 14.3568 27.8882 14.5243 27.7207C14.6917 27.5533 14.7858 27.3262 14.7858 27.0894C14.7858 26.8526 14.6917 26.6255 14.5243 26.458C14.3568 26.2906 14.1297 26.1965 13.8929 26.1965H6.29471C6.05791 26.1965 5.83081 26.2906 5.66337 26.458C5.49592 26.6255 5.40186 26.8526 5.40186 27.0894V34.643Z" fill="url(#paint2_linear_59_23530)"/>
<path d="M5.40186 52.8751C5.40186 53.1119 5.49592 53.339 5.66337 53.5065C5.83081 53.6739 6.05791 53.768 6.29471 53.768H13.8929C14.1297 53.768 14.3568 53.6739 14.5243 53.5065C14.6917 53.339 14.7858 53.1119 14.7858 52.8751C14.7858 52.6383 14.6917 52.4112 14.5243 52.2438C14.3568 52.0763 14.1297 51.9823 13.8929 51.9823H7.18757V46.2144H13.8929C14.1297 46.2144 14.3568 46.1204 14.5243 45.9529C14.6917 45.7855 14.7858 45.5584 14.7858 45.3216C14.7858 45.0848 14.6917 44.8577 14.5243 44.6902C14.3568 44.5228 14.1297 44.4287 13.8929 44.4287H6.29471C6.05791 44.4287 5.83081 44.5228 5.66337 44.6902C5.49592 44.8577 5.40186 45.0848 5.40186 45.3216V52.8751Z" fill="url(#paint3_linear_59_23530)"/>
<path d="M45.7678 100C49.9113 99.9789 53.9557 98.7309 57.3906 96.4135C60.8255 94.0961 63.497 90.8132 65.068 86.979C66.639 83.1449 67.0391 78.9313 66.2177 74.8699C65.3964 70.8086 63.3905 67.0816 60.4531 64.1591C57.5158 61.2367 53.7786 59.2498 49.7131 58.4492C45.6477 57.6486 41.4362 58.0701 37.61 59.6606C33.7839 61.2512 30.5147 63.9394 28.2148 67.386C25.915 70.8327 24.6876 74.8834 24.6875 79.0269C24.7088 84.6013 26.94 89.9398 30.8918 93.8715C34.8436 97.8032 40.1933 100.007 45.7678 100ZM45.7678 59.8215C49.5574 59.8427 53.2558 60.9855 56.3966 63.1059C59.5375 65.2263 61.9801 68.2293 63.4165 71.7361C64.8529 75.2429 65.2186 79.0966 64.4677 82.811C63.7167 86.5254 61.8826 89.9343 59.1968 92.6078C56.5109 95.2812 53.0936 97.0994 49.3757 97.8331C45.6578 98.5669 41.8059 98.1832 38.3058 96.7306C34.8057 95.278 31.8141 92.8215 29.7083 89.6708C27.6025 86.5201 26.4768 82.8165 26.4732 79.0269C26.4898 73.9229 28.5307 69.0341 32.1482 65.4334C35.7656 61.8327 40.6639 59.8144 45.7678 59.8215Z" fill="url(#paint4_linear_59_23530)"/>
<path d="M45.7679 95.4732C49.0193 95.4574 52.1932 94.4786 54.8889 92.6604C57.5846 90.8423 59.6812 88.2662 60.9141 85.2575C62.1469 82.2488 62.4609 78.9423 61.8162 75.7554C61.1715 72.5684 59.597 69.6439 57.2917 67.351C54.9863 65.058 52.0533 63.4995 48.8629 62.872C45.6725 62.2446 42.3677 62.5764 39.3657 63.8256C36.3637 65.0747 33.7991 67.1852 31.9956 69.8907C30.1921 72.5962 29.2305 75.7753 29.2322 79.0268C29.2464 83.3998 30.9959 87.5883 34.0965 90.6721C37.197 93.7559 41.3949 95.4827 45.7679 95.4732ZM45.7679 64.3572C48.6658 64.3731 51.4941 65.2469 53.8959 66.8684C56.2977 68.49 58.1654 70.7866 59.2634 73.4685C60.3614 76.1503 60.6405 79.0974 60.0654 81.9377C59.4903 84.778 58.0869 87.3843 56.0321 89.4279C53.9774 91.4715 51.3634 92.8606 48.52 93.4202C45.6766 93.9797 42.7311 93.6846 40.0553 92.5719C37.3794 91.4593 35.0931 89.5791 33.4847 87.1684C31.8763 84.7578 31.0179 81.9248 31.0179 79.0268C31.0297 75.1259 32.5901 71.3893 35.356 68.6385C38.1219 65.8876 41.8669 64.3477 45.7679 64.3572Z" fill="url(#paint5_linear_59_23530)"/>
<path d="M94.5179 94.7053V89.3482H96.4286C96.6654 89.3482 96.8925 89.2541 97.0599 89.0867C97.2274 88.9192 97.3214 88.6921 97.3214 88.4553V63.4554C97.3214 63.2186 97.2274 62.9915 97.0599 62.824C96.8925 62.6566 96.6654 62.5625 96.4286 62.5625H70.0893C69.8525 62.5625 69.6254 62.6566 69.458 62.824C69.2905 62.9915 69.1965 63.2186 69.1965 63.4554V87.5625H67.25C67.0132 87.5625 66.7861 87.6565 66.6187 87.824C66.4512 87.9914 66.3572 88.2185 66.3572 88.4553V94.7053C66.3572 94.9421 66.4512 95.1692 66.6187 95.3367C66.7861 95.5041 67.0132 95.5982 67.25 95.5982H93.625C93.8618 95.5982 94.0889 95.5041 94.2564 95.3367C94.4238 95.1692 94.5179 94.9421 94.5179 94.7053ZM70.9822 64.3571H95.5357V68.8214H70.9822V64.3571ZM70.9822 70.6071H95.5357V75.0714H70.9822V70.6071ZM70.9822 76.8571H95.5357V81.3214H70.9822V76.8571ZM70.9822 83.1071H95.5357V87.5714H70.9822V83.1071ZM92.7679 93.8214H68.1429V89.3571H92.7322L92.7679 93.8214Z" fill="url(#paint6_linear_59_23530)"/>
<defs>
<linearGradient id="paint0_linear_59_23530" x1="32.9955" y1="-26.8808" x2="32.9955" y2="80.3571" gradientUnits="userSpaceOnUse">
<stop stop-color="#00AFB6"/>
<stop offset="1" stop-color="#F3E688"/>
</linearGradient>
<linearGradient id="paint1_linear_59_23530" x1="10.0938" y1="4.83996" x2="10.0938" y2="17.3034" gradientUnits="userSpaceOnUse">
<stop stop-color="#00AFB6"/>
<stop offset="1" stop-color="#F3E688"/>
</linearGradient>
<linearGradient id="paint2_linear_59_23530" x1="10.0938" y1="23.0724" x2="10.0938" y2="35.5358" gradientUnits="userSpaceOnUse">
<stop stop-color="#00AFB6"/>
<stop offset="1" stop-color="#F3E688"/>
</linearGradient>
<linearGradient id="paint3_linear_59_23530" x1="10.0938" y1="41.3046" x2="10.0938" y2="53.768" gradientUnits="userSpaceOnUse">
<stop stop-color="#00AFB6"/>
<stop offset="1" stop-color="#F3E688"/>
</linearGradient>
<linearGradient id="paint4_linear_59_23530" x1="45.6607" y1="44.0222" x2="45.6607" y2="100" gradientUnits="userSpaceOnUse">
<stop stop-color="#00AFB6"/>
<stop offset="1" stop-color="#F3E688"/>
</linearGradient>
<linearGradient id="paint5_linear_59_23530" x1="45.6875" y1="51.5536" x2="45.6875" y2="95.4733" gradientUnits="userSpaceOnUse">
<stop stop-color="#00AFB6"/>
<stop offset="1" stop-color="#F3E688"/>
</linearGradient>
<linearGradient id="paint6_linear_59_23530" x1="81.8393" y1="51.5115" x2="81.8393" y2="95.5982" gradientUnits="userSpaceOnUse">
<stop stop-color="#00AFB6"/>
<stop offset="1" stop-color="#F3E688"/>
</linearGradient>
</defs>
</svg>
