<svg width="69" height="78" viewBox="0 0 69 78" fill="none" xmlns="http://www.w3.org/2000/svg">
<path d="M42.3133 30.984L31.4423 43.2991L26.2914 38.7415C25.6526 38.1769 24.6703 38.2344 24.1026 38.8747C23.535 39.5165 23.5956 40.4958 24.2358 41.0634L30.5493 46.6488C30.8338 46.9 31.2001 47.0378 31.577 47.0378C31.6088 47.0378 31.6406 47.0363 31.6724 47.0348C32.0826 47.009 32.4671 46.8213 32.7395 46.5141L44.6383 33.0365C45.2044 32.3948 45.1439 31.4154 44.5021 30.8478C43.8603 30.2817 42.8825 30.3422 42.3133 30.984Z" fill="url(#paint0_linear_101_413)"/>
<path d="M34.3693 19.7549C23.8949 19.7549 15.373 28.2767 15.373 38.7512C15.373 49.2256 23.8949 57.7475 34.3693 57.7475C44.8438 57.7475 53.3656 49.2256 53.3656 38.7512C53.3656 28.2767 44.8438 19.7549 34.3693 19.7549ZM34.3693 54.6475C25.6038 54.6475 18.473 47.5167 18.473 38.7512C18.473 29.9856 25.6038 22.8548 34.3693 22.8548C43.1349 22.8548 50.2657 29.9856 50.2657 38.7512C50.2657 47.5167 43.1349 54.6475 34.3693 54.6475Z" fill="url(#paint1_linear_101_413)"/>
<path d="M68.7403 24.71C68.6858 21.2014 68.5087 17.552 68.2136 13.8617C68.1076 12.569 67.4583 11.7244 66.2231 11.2794C56.0726 7.63454 45.9342 3.9594 35.7973 0.275183C34.7998 -0.0850655 33.8886 -0.0926336 32.9335 0.258533C22.7996 3.94729 12.6596 7.62092 2.51215 11.2673C1.29518 11.7047 0.647336 12.5403 0.530785 13.8238C-0.145815 21.3694 -0.176088 28.1308 0.442994 34.4957C1.34059 43.7396 3.38099 51.0717 6.86389 57.5698C12.313 67.7339 20.4216 74.2547 30.9657 76.9475C31.9602 77.2018 33.1302 77.5 34.4077 77.5C34.8982 77.5 35.4052 77.4561 35.9244 77.3486C38.7489 76.7629 41.1677 76.0212 43.3186 75.0782C53.0801 70.7915 59.9203 63.3716 64.2296 52.3931C67.2751 44.6357 68.6661 36.1078 68.7403 24.7448V24.71ZM61.3446 51.2609C57.3501 61.4372 51.0458 68.3 42.0729 72.2386C40.1233 73.0938 37.9058 73.7719 35.2947 74.3123C34.1247 74.5605 32.9107 74.2441 31.7316 73.9444C21.9292 71.4394 14.6879 65.6042 9.59602 56.1046C6.31292 49.9804 4.38453 43.0191 3.52781 34.196C2.93446 28.0748 2.95868 21.5571 3.61863 14.1644C13.7525 10.5226 23.8758 6.85501 33.996 3.17079C34.2322 3.083 34.3971 3.06484 34.7392 3.18896C44.8262 6.85652 54.9177 10.512 65.1288 14.1886C65.4148 17.7775 65.5859 21.3285 65.6404 24.7418C65.5677 35.6976 64.2418 43.8773 61.3446 51.2609Z" fill="url(#paint2_linear_101_413)"/>
<defs>
<linearGradient id="paint0_linear_101_413" x1="34.3698" y1="24.9144" x2="34.3698" y2="47.0378" gradientUnits="userSpaceOnUse">
<stop stop-color="#00AFB6"/>
<stop offset="1" stop-color="#F3E688"/>
</linearGradient>
<linearGradient id="paint1_linear_101_413" x1="34.3693" y1="7.04571" x2="34.3693" y2="57.7475" gradientUnits="userSpaceOnUse">
<stop stop-color="#00AFB6"/>
<stop offset="1" stop-color="#F3E688"/>
</linearGradient>
<linearGradient id="paint2_linear_101_413" x1="34.3702" y1="-25.9251" x2="34.3702" y2="77.5" gradientUnits="userSpaceOnUse">
<stop stop-color="#00AFB6"/>
<stop offset="1" stop-color="#F3E688"/>
</linearGradient>
</defs>
</svg>
