<svg width="93" height="100" viewBox="0 0 93 100" fill="none" xmlns="http://www.w3.org/2000/svg">
<path d="M89.2778 37.6194H76.4387C74.7347 37.6194 73.3474 39.0067 73.3474 40.7107V40.8004C73.3474 41.9164 73.9431 42.893 74.8322 43.4366V91.9728C74.8322 96.3994 78.4339 100 82.8582 100C87.2837 100 90.8854 96.3994 90.8854 91.9728V43.4355C91.7734 42.8919 92.3691 41.9142 92.3691 40.7993V40.7096C92.3702 39.0067 90.9818 37.6194 89.2778 37.6194ZM88.7983 52.8068H83.9045C83.3277 52.8068 82.8615 53.2741 82.8615 53.8498C82.8615 54.4255 83.3288 54.8939 83.9045 54.8939H88.7983V56.516H86.2795C85.7037 56.516 85.2365 56.9832 85.2365 57.56C85.2365 58.1358 85.7048 58.603 86.2795 58.603H88.7983V60.2262H83.9045C83.3277 60.2262 82.8615 60.6934 82.8615 61.2702C82.8615 61.846 83.3288 62.3132 83.9045 62.3132H88.7983V63.9342H86.2795C85.7037 63.9342 85.2365 64.4025 85.2365 64.9794C85.2365 65.5551 85.7048 66.0212 86.2795 66.0212H88.7983V67.6455H83.9045C83.3277 67.6455 82.8615 68.1127 82.8615 68.6885C82.8615 69.2653 83.3288 69.7337 83.9045 69.7337H88.7983V71.3546H86.2795C85.7037 71.3546 85.2365 71.823 85.2365 72.3976C85.2365 72.9744 85.7048 73.4417 86.2795 73.4417H88.7983V75.0648H83.9045C83.3277 75.0648 82.8615 75.5332 82.8615 76.1078C82.8615 76.6846 83.3288 77.1519 83.9045 77.1519H88.7983V78.7739H86.2795C85.7037 78.7739 85.2365 79.2412 85.2365 79.818C85.2365 80.3949 85.7048 80.861 86.2795 80.861H88.7983V82.4841H83.9045C83.3277 82.4841 82.8615 82.9514 82.8615 83.5283C82.8615 84.1051 83.3288 84.5712 83.9045 84.5712H88.7983V91.9684C88.7983 95.2435 86.1344 97.9074 82.8594 97.9074C79.5854 97.9074 76.9214 95.2435 76.9214 91.9684V43.8872H88.7995V52.8068H88.7983ZM90.282 40.8004C90.282 41.354 89.8314 41.8046 89.2778 41.8046H76.4387C75.8862 41.8046 75.4356 41.354 75.4356 40.8004V40.7107C75.4356 40.1571 75.8851 39.7065 76.4387 39.7065H89.2778C89.8314 39.7065 90.282 40.1571 90.282 40.7107V40.8004Z" fill="url(#paint0_linear_59_23694)"/>
<path d="M81.8153 11.0653V34.9044C81.8153 35.4802 82.2826 35.9485 82.8583 35.9485C83.4352 35.9485 83.9024 35.4802 83.9024 34.9044V11.0687C83.9024 11.0687 83.9024 11.0675 83.9024 11.0664C83.9024 4.96467 78.9388 0 72.8348 0C66.7331 0 61.7684 4.96467 61.7684 11.0664L61.7673 22.2602C61.7673 27.2116 57.7404 31.2385 52.7901 31.2385C47.8376 31.2385 43.8097 27.2105 43.8097 22.2602V11.0664C43.8097 4.96467 38.8461 0 32.7432 0C26.6403 0 21.6757 4.96467 21.6757 11.0664V30.7978C21.6757 31.3736 22.1429 31.8419 22.7197 31.8419C23.2966 31.8419 23.7638 31.3736 23.7638 30.7978V11.0664C23.7638 6.11616 27.7929 2.08818 32.7432 2.08818C37.6946 2.08818 41.7215 6.11616 41.7215 11.0664V22.2602C41.7215 28.362 46.6861 33.3266 52.7901 33.3266C58.8919 33.3266 63.8555 28.362 63.8555 22.2602L63.8566 11.0664C63.8566 6.11616 67.8846 2.08818 72.8348 2.08818C77.7851 2.08818 81.8142 6.11506 81.8153 11.0653Z" fill="white"/>
<path d="M55.3599 37.6194C49.6833 37.6194 45.0641 42.2386 45.0641 47.9163C45.0641 48.4932 45.5313 48.9604 46.1082 48.9604C46.685 48.9604 47.1523 48.4932 47.1523 47.9163C47.1523 43.3901 50.8348 39.7076 55.3599 39.7076C59.8862 39.7076 63.5687 43.3901 63.5687 47.9163C63.5687 52.4437 59.8862 56.1251 55.3599 56.1251C54.7831 56.1251 54.3169 56.5934 54.3169 57.1681V57.1703V63.7736C54.3169 64.3505 54.7842 64.8166 55.3599 64.8166C55.9368 64.8166 56.404 64.3494 56.404 63.7736V58.1601C61.5934 57.6342 65.6558 53.2408 65.6558 47.9163C65.6569 42.2386 61.0388 37.6194 55.3599 37.6194Z" fill="white"/>
<path d="M55.4274 65.2793C53.513 65.2793 51.953 66.836 51.953 68.7526C51.953 70.6692 53.5119 72.2281 55.4274 72.2281C57.3428 72.2281 58.9018 70.6703 58.9018 68.7526C58.9018 66.836 57.3428 65.2793 55.4274 65.2793ZM55.4274 70.1388C54.6634 70.1388 54.0412 69.5155 54.0412 68.7515C54.0412 67.9886 54.6634 67.3664 55.4274 67.3664C56.1914 67.3664 56.8136 67.9886 56.8136 68.7515C56.8136 69.5166 56.1914 70.1388 55.4274 70.1388Z" fill="white"/>
<path d="M45.2899 74.6607C44.32 66.266 38.7453 59.036 30.7469 56.0188V43.4366C31.6348 42.893 32.2305 41.9153 32.2305 40.8004V40.7107C32.2305 39.0145 30.8576 37.6349 29.1658 37.6205V34.5558C29.1658 33.9789 28.6986 33.5117 28.1217 33.5117H17.3177C16.7408 33.5117 16.2736 33.9789 16.2736 34.5558V37.6205C14.5807 37.6349 13.2078 39.0156 13.2078 40.7107V40.8004C13.2078 41.9165 13.8045 42.8941 14.6936 43.4366V56.0188C6.69522 59.036 1.12049 66.266 0.150581 74.6607C0.057576 74.8169 0 74.9984 0 75.1933C0 75.3184 0.0254628 75.438 0.0664292 75.5487C0.0232485 76.1222 0 76.6991 0 77.2804C0 89.8072 10.1929 100 22.7197 100C35.2476 100 45.4405 89.8083 45.4405 77.2804C45.4405 76.6991 45.4173 76.12 45.3741 75.5487C45.415 75.4369 45.4405 75.3184 45.4405 75.1933C45.4405 74.9984 45.384 74.8169 45.2899 74.6607ZM18.3618 35.5999H27.0776V37.6194H18.3618V35.5999ZM15.297 40.7107C15.297 40.1571 15.7477 39.7065 16.3024 39.7065H29.1392C29.6928 39.7065 30.1435 40.1571 30.1435 40.7107V40.8004C30.1435 41.354 29.6928 41.8046 29.1392 41.8046H16.3024C15.7488 41.8046 15.297 41.354 15.297 40.8004V40.7107ZM16.0743 57.7416L16.7818 57.5014V43.8928H28.6587V57.5003L29.3662 57.7416C36.7789 60.2627 42.0325 66.7166 43.1342 74.3064C41.6461 74.694 40.7449 75.7292 39.9931 76.5983C39.0387 77.7011 38.4375 78.3256 37.1697 78.3256C35.902 78.3256 35.3008 77.7022 34.3464 76.5983C33.4019 75.5066 32.2272 74.1492 29.9442 74.1492C27.66 74.1492 26.4853 75.5066 25.5408 76.5983C24.5875 77.7011 23.9852 78.3256 22.7186 78.3256C21.452 78.3256 20.8496 77.7022 19.8952 76.5983C18.9519 75.5066 17.7761 74.1492 15.493 74.1492C13.2089 74.1492 12.0341 75.5066 11.0908 76.5983C10.1364 77.7011 9.53518 78.3256 8.26744 78.3256C7.00081 78.3256 6.3985 77.7022 5.4452 76.5983C4.69341 75.7303 3.79326 74.6928 2.30519 74.3064C3.40796 66.7166 8.6616 60.2627 16.0743 57.7416ZM22.7208 97.913C11.3443 97.913 2.08818 88.6579 2.08818 77.2804C2.08818 76.9969 2.09481 76.7135 2.10588 76.4311C2.74031 76.6958 3.22416 77.2195 3.86744 77.9635C4.81188 79.0552 5.98551 80.4126 8.26856 80.4126C10.5527 80.4126 11.7274 79.0552 12.6719 77.9635C13.6263 76.8607 14.2275 76.2363 15.4952 76.2363C16.763 76.2363 17.3642 76.8596 18.3186 77.9635C19.2619 79.0552 20.4367 80.4126 22.7208 80.4126C25.005 80.4126 26.1797 79.0552 27.123 77.9635C28.0774 76.8607 28.6786 76.2363 29.9464 76.2363C31.213 76.2363 31.8153 76.8596 32.7697 77.9635C33.7131 79.0552 34.8889 80.4126 37.172 80.4126C39.4561 80.4126 40.6308 79.0552 41.5742 77.9635C42.2174 77.2195 42.7013 76.6958 43.3357 76.4311C43.3479 76.7135 43.3545 76.9969 43.3545 77.2804C43.3534 88.6579 34.0973 97.913 22.7208 97.913Z" fill="url(#paint1_linear_59_23694)"/>
<path d="M15.6325 83.4075C13.4447 83.4075 11.6654 85.1879 11.6654 87.3746C11.6654 89.5635 13.4458 91.3416 15.6325 91.3416C17.8192 91.3416 19.5996 89.5635 19.5996 87.3746C19.5996 85.1879 17.8192 83.4075 15.6325 83.4075ZM15.6325 89.2535C14.5962 89.2535 13.7525 88.4109 13.7525 87.3746C13.7525 86.3382 14.5962 85.4956 15.6325 85.4956C16.6688 85.4956 17.5114 86.3393 17.5114 87.3746C17.5114 88.4109 16.6677 89.2535 15.6325 89.2535Z" fill="white"/>
<path d="M22.588 89.9631C20.9393 89.9631 19.5985 91.304 19.5985 92.9526C19.5985 94.6001 20.9393 95.9409 22.588 95.9409C24.2366 95.9409 25.5774 94.6001 25.5774 92.9526C25.5774 91.3029 24.2377 89.9631 22.588 89.9631ZM22.588 93.8527C22.0908 93.8527 21.6867 93.4497 21.6867 92.9526C21.6867 92.4566 22.0908 92.0513 22.588 92.0513C23.0851 92.0513 23.4892 92.4566 23.4892 92.9526C23.4903 93.4497 23.0851 93.8527 22.588 93.8527Z" fill="white"/>
<defs>
<linearGradient id="paint0_linear_59_23694" x1="82.8582" y1="16.752" x2="82.8582" y2="100" gradientUnits="userSpaceOnUse">
<stop stop-color="#00AFB6"/>
<stop offset="1" stop-color="#F3E688"/>
</linearGradient>
<linearGradient id="paint1_linear_59_23694" x1="22.7203" y1="11.2702" x2="22.7203" y2="100" gradientUnits="userSpaceOnUse">
<stop stop-color="#00AFB6"/>
<stop offset="1" stop-color="#F3E688"/>
</linearGradient>
</defs>
</svg>
