<svg width="115" height="72" viewBox="0 0 115 72" fill="none" xmlns="http://www.w3.org/2000/svg">
<path d="M111.749 51.5753C110.802 43.2843 105.354 36.4146 97.4178 33.5719H97.2994L95.8781 33.2166C99.4314 29.7817 101.682 25.044 101.682 19.714C101.682 9.40948 93.2723 1 82.9678 1C72.6632 1 64.2537 9.40948 64.2537 19.714C64.2537 25.044 66.5041 29.7817 70.0574 33.2166L68.5177 33.5719C63.7799 35.2301 59.9898 38.4281 57.5024 42.4552L59.2791 47.6667C61.0557 42.9289 64.8459 39.1388 69.8205 37.3621L74.0845 36.1777C76.8087 37.599 79.7698 38.4281 83.0862 38.4281C86.2842 38.4281 89.3637 37.599 92.0879 36.1777L96.3518 37.3621C102.748 39.731 107.249 45.2978 108.078 52.0491L109.262 66.9729H85.3366C85.8104 68.2758 85.8104 69.6971 85.3366 70.8816H111.513C112.105 70.8816 112.579 70.6447 112.934 70.2893C113.289 69.934 113.526 69.3418 113.408 68.7496L111.749 51.5753ZM82.9678 34.5195C74.7952 34.5195 68.1623 27.8866 68.1623 19.714C68.1623 11.5415 74.7952 4.90863 82.9678 4.90863C91.1404 4.90863 97.7732 11.5415 97.7732 19.714C97.7732 27.7682 91.1404 34.5195 82.9678 34.5195Z" fill="url(#paint0_linear_148_269)" stroke="#071718" stroke-width="2"/>
<path d="M78.4667 59.6295C78.2298 58.8004 77.4007 58.3266 76.5716 58.3266H58.6867L50.3957 34.0457C50.1588 33.2166 49.3297 32.7429 48.5006 32.7429H2.89989C2.30768 32.7429 1.71546 33.0982 1.36013 33.572C1.0048 34.0457 0.886356 34.7564 1.12324 35.3486L12.9676 69.6972C13.2045 70.5263 14.0336 71 14.8627 71H80.0065C80.5987 71 81.1909 70.6447 81.6647 70.171C82.02 69.6972 82.1385 68.9865 81.9016 68.3943L78.4667 59.6295ZM16.0471 66.973L5.62409 36.533H47.1977L55.4887 60.8139C55.7256 61.643 56.5547 62.1168 57.3838 62.1168H75.3872L77.0454 66.973H16.0471Z" fill="white" stroke="#071718" stroke-width="2"/>
<path d="M31.4452 47.9035C29.3133 47.9035 27.5366 49.6802 27.5366 51.8121C27.5366 53.9441 29.3133 55.7208 31.4452 55.7208C33.5772 55.7208 35.3539 53.9441 35.3539 51.8121C35.3539 49.6802 33.5772 47.9035 31.4452 47.9035Z" fill="white"/>
<defs>
<linearGradient id="paint0_linear_148_269" x1="85.4705" y1="-22.3766" x2="85.4705" y2="70.8816" gradientUnits="userSpaceOnUse">
<stop stop-color="#00AFB6"/>
<stop offset="1" stop-color="#F3E688"/>
</linearGradient>
</defs>
</svg>
