<svg width="107" height="100" viewBox="0 0 107 100" fill="none" xmlns="http://www.w3.org/2000/svg">
<path fill-rule="evenodd" clip-rule="evenodd" d="M56.5304 15.8422H50.1754V23.1146C50.1754 23.4377 50.047 23.7476 49.8186 23.9761C49.5901 24.2046 49.2802 24.333 48.957 24.333H41.6821V30.6868H48.9546C49.2777 30.6868 49.5876 30.8152 49.8161 31.0436C50.0446 31.2721 50.173 31.582 50.173 31.9052V39.1776H56.528V31.9125C56.528 31.5893 56.6564 31.2794 56.8848 31.051C57.1133 30.8225 57.4232 30.6941 57.7464 30.6941H65.0188V24.3366H57.7512C57.4281 24.3366 57.1182 24.2083 56.8897 23.9798C56.6612 23.7513 56.5329 23.4414 56.5329 23.1183V15.8422H56.5304ZM48.9546 13.3993H57.7512C58.0744 13.3993 58.3843 13.5277 58.6128 13.7562C58.8412 13.9847 58.9696 14.2946 58.9696 14.6177V21.8889H66.2421C66.5652 21.8889 66.8751 22.0173 67.1036 22.2458C67.3321 22.4743 67.4604 22.7842 67.4604 23.1073V31.9052C67.4604 32.2283 67.3321 32.5382 67.1036 32.7667C66.8751 32.9952 66.5652 33.1235 66.2421 33.1235H58.9733V40.396C58.9733 40.7191 58.8449 41.029 58.6164 41.2575C58.3879 41.486 58.078 41.6144 57.7549 41.6144H48.9546C48.6315 41.6144 48.3216 41.486 48.0931 41.2575C47.8646 41.029 47.7362 40.7191 47.7362 40.396V33.1345H40.4601C40.137 33.1345 39.8271 33.0061 39.5986 32.7776C39.3701 32.5492 39.2417 32.2393 39.2417 31.9161V23.1146C39.2417 22.7915 39.3701 22.4816 39.5986 22.2531C39.8271 22.0246 40.137 21.8962 40.4601 21.8962H47.7326V14.6214C47.7326 14.2982 47.8609 13.9883 48.0894 13.7598C48.3179 13.5313 48.6278 13.403 48.9509 13.403L48.9546 13.3993ZM44.1761 0.212906C47.4499 0.67171 50.5828 1.84467 53.3529 3.64871C57.284 1.08636 61.9186 -0.181103 66.6066 0.0241405C71.2946 0.229384 75.8007 1.89703 79.4928 4.79314C83.1849 7.68925 85.8778 11.6685 87.1937 16.1727C88.5096 20.6769 88.3824 25.48 86.8301 29.9083C83.9791 38.036 70.376 47.2749 60.5316 53.9625C58.0948 55.6207 55.8859 57.1181 54.0937 58.4364C53.8844 58.5967 53.6287 58.6848 53.3651 58.6874C53.1015 58.69 52.8441 58.6071 52.6316 58.451C50.837 57.1291 48.6256 55.6281 46.1743 53.9625C36.3298 47.2761 22.7267 38.036 19.8758 29.9083C18.6022 26.2724 18.2846 22.3703 18.9532 18.5763C19.6219 14.7823 21.2544 11.2239 23.6942 8.24251C26.134 5.2611 29.299 2.95678 32.8857 1.55069C36.4724 0.144602 40.3602 -0.316063 44.1761 0.212906ZM52.6304 6.10495C52.8363 6.25649 53.0846 6.33944 53.3402 6.34206C53.5958 6.34469 53.8458 6.26685 54.0547 6.11957C57.5234 3.66528 61.6825 2.37743 65.9312 2.44214C70.1798 2.50684 74.2978 3.92075 77.6901 6.47953C81.0825 9.0383 83.5733 12.6094 84.8028 16.6768C86.0323 20.7442 85.9367 25.0971 84.5298 29.1066C81.9444 36.474 68.73 45.4522 59.167 51.9473C56.9739 53.435 54.9697 54.7971 53.3529 55.9594C51.7361 54.7971 49.7307 53.435 47.5389 51.9473C37.9759 45.451 24.7614 36.474 22.176 29.1053C20.7668 25.097 20.6685 20.7444 21.8955 16.6766C23.1225 12.6088 25.6112 9.0365 29.0018 6.47601C32.3925 3.91552 36.5095 2.49949 40.7578 2.43257C45.0061 2.36565 49.1657 3.65131 52.6353 6.10373L52.6304 6.10495Z" fill="white"/>
<path fill-rule="evenodd" clip-rule="evenodd" d="M66.2153 84.6254L86.4232 85.014L86.5158 83.3375C86.5182 83.0416 86.6282 82.7566 86.8253 82.5359L100.294 67.3891C101.653 65.9154 102.408 63.9842 102.408 61.9795C102.896 53.8408 103.73 39.8052 104.258 30.9988C104.292 30.5733 104.241 30.1453 104.109 29.7396C103.976 29.3338 103.765 28.9582 103.487 28.6345C103.209 28.3108 102.869 28.0453 102.488 27.8535C102.107 27.6616 101.691 27.5472 101.265 27.5167C100.853 27.4875 100.44 27.5405 100.049 27.6724C99.6572 27.8044 99.296 28.0128 98.9859 28.2855C98.3256 28.8678 97.91 29.6781 97.8223 30.5541L95.8949 48.7797C96.5571 49.1372 97.1412 49.6235 97.6128 50.21C98.4673 51.5229 98.8509 53.0869 98.7008 54.6461C98.6228 55.3461 98.4048 56.0232 98.0596 56.6372C97.7144 57.2511 97.2492 57.7893 96.6917 58.2196L83.2896 68.7122C83.1647 68.8201 83.0192 68.9015 82.8619 68.9514C82.7046 69.0013 82.5388 69.0188 82.3746 69.0027C82.2103 68.9867 82.051 68.9374 81.9064 68.8579C81.7618 68.7784 81.6348 68.6704 81.5332 68.5404C81.4316 68.4103 81.3574 68.261 81.3153 68.1014C81.2731 67.9419 81.2638 67.7754 81.2879 67.6122C81.312 67.4489 81.369 67.2923 81.4555 67.1517C81.542 67.0111 81.6561 66.8896 81.791 66.7945L95.1931 56.3007C95.4945 56.0663 95.7458 55.7737 95.9318 55.4403C96.1179 55.1069 96.235 54.7394 96.2762 54.3598C96.3631 53.4334 96.1569 52.503 95.6865 51.7001C95.1472 51.058 94.3805 50.6491 93.5468 50.559C92.7131 50.4688 91.8768 50.7044 91.2127 51.2164L72.864 65.5822C71.3875 66.7002 70.3473 68.2984 69.9229 70.1012L66.2153 84.6254ZM90.188 100L58.5457 99.3908C58.223 99.3853 57.9156 99.2521 57.6911 99.0202C57.4665 98.7883 57.3432 98.4769 57.348 98.1541L57.5917 85.6805C57.5972 85.3577 57.7304 85.0504 57.9623 84.8258C58.1942 84.6013 58.5056 84.4779 58.8284 84.4828L63.7116 84.5766L67.5556 69.492C68.121 67.1696 69.4658 65.1115 71.3654 63.6609L89.7141 49.295C90.7936 48.4487 92.1447 48.025 93.5142 48.1035L95.3965 30.3031C95.5488 28.8144 96.2582 27.4382 97.3825 26.4506C97.9324 25.9657 98.5731 25.5948 99.2675 25.3595C99.9619 25.1242 100.696 25.0292 101.427 25.0799C102.93 25.1864 104.328 25.8849 105.315 27.022C106.302 28.1591 106.798 29.6416 106.692 31.1438L104.843 62.0051C104.834 64.5969 103.863 67.0931 102.118 69.0095L88.9294 83.8419L88.8624 85.0603L90.4658 85.092C90.7885 85.0971 91.096 85.2301 91.3208 85.4617C91.5455 85.6933 91.6692 86.0047 91.6647 86.3274L91.421 98.8023C91.4156 99.125 91.2823 99.4324 91.0504 99.6569C90.8186 99.8815 90.5071 100.005 90.1843 100H90.188ZM59.8104 96.9796L89.0184 97.5425L89.2121 87.5019L60.0041 86.9403L59.8104 96.9796ZM17.6974 97.5425L46.8957 96.9796L46.7019 86.9403L17.4939 87.5019L17.6877 97.5425H17.6974ZM20.2828 85.014L40.4907 84.6254L36.7832 70.1012C36.3564 68.3024 35.3165 66.7084 33.842 65.5932L15.4934 51.2164C14.8297 50.704 13.9937 50.4678 13.16 50.5573C12.3263 50.6467 11.5594 51.0549 11.0195 51.6965C10.5492 52.4993 10.3429 53.4297 10.4298 54.3562C10.4712 54.7357 10.5884 55.1031 10.7745 55.4365C10.9605 55.7699 11.2117 56.0625 11.513 56.297L24.915 66.7908C25.1517 66.9953 25.3008 67.283 25.3312 67.5943C25.3617 67.9056 25.2712 68.2167 25.0787 68.4631C24.8861 68.7096 24.6061 68.8725 24.2966 68.9182C23.9872 68.9639 23.672 68.8888 23.4164 68.7086L10.0144 58.216C9.4568 57.7856 8.99158 57.2475 8.64641 56.6335C8.30124 56.0196 8.0832 55.3425 8.00526 54.6425C7.85671 53.1658 8.18735 51.6804 8.94828 50.4062C9.43885 49.7307 10.0757 49.1747 10.8112 48.7797L8.88249 30.5541C8.7948 29.6781 8.37916 28.8678 7.71895 28.2855C7.4088 28.0128 7.04758 27.8044 6.65626 27.6724C6.26495 27.5405 5.85132 27.4875 5.43938 27.5167C4.58722 27.5776 3.79387 27.9735 3.23287 28.6179C2.67188 29.2622 2.3889 30.1025 2.44584 30.9549L4.29654 61.8516C4.29826 62.8752 4.48014 63.8906 4.83385 64.8512C5.2037 65.7861 5.74038 66.646 6.41773 67.3891L19.8807 82.5359C20.0778 82.7566 20.1878 83.0416 20.1902 83.3375L20.2828 85.014ZM48.1603 99.3908L16.518 100C16.1953 100.005 15.8838 99.8815 15.652 99.6569C15.4201 99.4324 15.2868 99.125 15.2814 98.8023L15.0377 86.3274C15.0331 86.0047 15.1568 85.6933 15.3816 85.4617C15.6064 85.2301 15.9139 85.0971 16.2366 85.092L17.8399 85.0603L17.7729 83.8419L4.58774 69.0119C2.84283 67.0955 1.87195 64.5993 1.86346 62.0075L0.0139722 31.1462C-0.09154 29.6441 0.403745 28.1615 1.39095 27.0244C2.37816 25.8873 3.77649 25.1888 5.27855 25.0824C6.00996 25.0316 6.74416 25.1266 7.43854 25.3619C8.13292 25.5972 8.77365 25.9681 9.32354 26.453C10.4478 27.4407 11.1572 28.8168 11.3095 30.3055L13.1919 48.1059C14.5614 48.0274 15.9125 48.4511 16.992 49.2975L35.3406 63.6633C37.2398 65.1133 38.5845 67.1705 39.1505 69.492L42.9969 84.5766L47.8789 84.4828C48.2016 84.4779 48.5131 84.6013 48.7449 84.8258C48.9768 85.0504 49.1101 85.3577 49.1155 85.6805L49.3592 98.1541C49.3641 98.4769 49.2407 98.7883 49.0162 99.0202C48.7916 99.2521 48.483 99.3853 48.1603 99.3908Z" fill="url(#paint0_linear_59_11258)"/>
<defs>
<linearGradient id="paint0_linear_59_11258" x1="53.353" y1="0.000116445" x2="53.353" y2="100" gradientUnits="userSpaceOnUse">
<stop stop-color="#00AFB6"/>
<stop offset="1" stop-color="#F3E688"/>
</linearGradient>
</defs>
</svg>
