<svg width="107" height="101" viewBox="0 0 107 101" fill="none" xmlns="http://www.w3.org/2000/svg">
<path d="M99.5203 0.54541H7.85362C6.01251 0.547579 4.24742 1.27992 2.94556 2.58179C1.64369 3.88365 0.911348 5.64874 0.90918 7.48985V93.601C0.911348 95.4421 1.64369 97.2072 2.94556 98.509C4.24742 99.8109 6.01251 100.543 7.85362 100.545H99.5203C101.361 100.543 103.126 99.8109 104.428 98.509C105.73 97.2072 106.463 95.4421 106.465 93.601V7.48985C106.463 5.64874 105.73 3.88365 104.428 2.58179C103.126 1.27992 101.361 0.547579 99.5203 0.54541ZM7.85362 3.32319H99.5203C100.625 3.3244 101.684 3.76378 102.465 4.54492C103.246 5.32606 103.686 6.38516 103.687 7.48985V17.2121H3.68696V7.48985C3.68817 6.38516 4.12755 5.32606 4.90869 4.54492C5.68982 3.76378 6.74893 3.3244 7.85362 3.32319ZM99.5203 97.7676H7.85362C6.74893 97.7664 5.68982 97.327 4.90869 96.5459C4.12755 95.7648 3.68817 94.7057 3.68696 93.601V19.9899H103.687V93.601C103.686 94.7057 103.246 95.7648 102.465 96.5459C101.684 97.327 100.625 97.7664 99.5203 97.7676Z" fill="url(#paint0_linear_436_15)"/>
<path d="M13.4091 14.4344C14.2332 14.4344 15.0388 14.19 15.724 13.7322C16.4092 13.2744 16.9432 12.6236 17.2586 11.8623C17.574 11.1009 17.6565 10.2631 17.4957 9.45487C17.3349 8.64661 16.9381 7.90418 16.3554 7.32146C15.7727 6.73875 15.0302 6.34191 14.222 6.18114C13.4137 6.02037 12.5759 6.10288 11.8146 6.41824C11.0532 6.73361 10.4025 7.26766 9.94464 7.95287C9.4868 8.63807 9.24243 9.44365 9.24243 10.2677C9.24364 11.3724 9.68302 12.4315 10.4642 13.2127C11.2453 13.9938 12.3044 14.4332 13.4091 14.4344ZM13.4091 8.87885C13.6838 8.87885 13.9523 8.96031 14.1807 9.11292C14.4091 9.26554 14.5871 9.48245 14.6923 9.73624C14.7974 9.99002 14.8249 10.2693 14.7713 10.5387C14.7177 10.8081 14.5854 11.0556 14.3912 11.2498C14.197 11.4441 13.9495 11.5764 13.6801 11.6299C13.4106 11.6835 13.1314 11.656 12.8776 11.5509C12.6238 11.4458 12.4069 11.2678 12.2543 11.0394C12.1017 10.811 12.0202 10.5424 12.0202 10.2677C12.0205 9.89949 12.167 9.54641 12.4274 9.28602C12.6878 9.02562 13.0408 8.87919 13.4091 8.87885Z" fill="white"/>
<path d="M24.5202 14.4344C25.3443 14.4344 26.1499 14.19 26.8351 13.7322C27.5203 13.2744 28.0543 12.6236 28.3697 11.8623C28.685 11.1009 28.7676 10.2631 28.6068 9.45487C28.446 8.64661 28.0492 7.90418 27.4665 7.32146C26.8837 6.73875 26.1413 6.34191 25.3331 6.18114C24.5248 6.02037 23.687 6.10288 22.9257 6.41824C22.1643 6.73361 21.5136 7.26766 21.0557 7.95287C20.5979 8.63807 20.3535 9.44365 20.3535 10.2677C20.3547 11.3724 20.7941 12.4315 21.5752 13.2127C22.3564 13.9938 23.4155 14.4332 24.5202 14.4344ZM24.5202 8.87885C24.7949 8.87885 25.0634 8.96031 25.2918 9.11292C25.5202 9.26554 25.6982 9.48245 25.8033 9.73624C25.9085 9.99002 25.936 10.2693 25.8824 10.5387C25.8288 10.8081 25.6965 11.0556 25.5023 11.2498C25.308 11.4441 25.0606 11.5764 24.7911 11.6299C24.5217 11.6835 24.2425 11.656 23.9887 11.5509C23.7349 11.4458 23.518 11.2678 23.3654 11.0394C23.2127 10.811 23.1313 10.5424 23.1313 10.2677C23.1316 9.89949 23.2781 9.54641 23.5385 9.28602C23.7988 9.02562 24.1519 8.87919 24.5202 8.87885Z" fill="url(#paint1_linear_436_15)"/>
<path d="M35.6315 14.4344C36.4556 14.4344 37.2612 14.19 37.9464 13.7322C38.6316 13.2744 39.1656 12.6236 39.481 11.8623C39.7964 11.1009 39.8789 10.2631 39.7181 9.45487C39.5573 8.64661 39.1605 7.90418 38.5778 7.32146C37.9951 6.73875 37.2526 6.34191 36.4444 6.18114C35.6361 6.02037 34.7984 6.10288 34.037 6.41824C33.2756 6.73361 32.6249 7.26766 32.1671 7.95287C31.7092 8.63807 31.4648 9.44365 31.4648 10.2677C31.4661 11.3724 31.9054 12.4315 32.6866 13.2127C33.4677 13.9938 34.5268 14.4332 35.6315 14.4344ZM35.6315 8.87885C35.9062 8.87885 36.1747 8.96031 36.4031 9.11292C36.6315 9.26554 36.8096 9.48245 36.9147 9.73624C37.0198 9.99002 37.0473 10.2693 36.9937 10.5387C36.9401 10.8081 36.8078 11.0556 36.6136 11.2498C36.4194 11.4441 36.1719 11.5764 35.9025 11.6299C35.6331 11.6835 35.3538 11.656 35.1 11.5509C34.8462 11.4458 34.6293 11.2678 34.4767 11.0394C34.3241 10.811 34.2426 10.5424 34.2426 10.2677C34.243 9.89949 34.3894 9.54641 34.6498 9.28602C34.9102 9.02562 35.2633 8.87919 35.6315 8.87885Z" fill="white"/>
<path d="M68.9648 11.6564H96.7426C97.111 11.6564 97.4642 11.5101 97.7247 11.2496C97.9852 10.9892 98.1315 10.6359 98.1315 10.2676C98.1315 9.89919 97.9852 9.54593 97.7247 9.28546C97.4642 9.02499 97.111 8.87866 96.7426 8.87866H68.9648C68.5965 8.87866 68.2432 9.02499 67.9827 9.28546C67.7223 9.54593 67.5759 9.89919 67.5759 10.2676C67.5759 10.6359 67.7223 10.9892 67.9827 11.2496C68.2432 11.5101 68.5965 11.6564 68.9648 11.6564Z" fill="white"/>
<path d="M81.4648 42.212H46.7425C46.3742 42.212 46.0209 42.3584 45.7604 42.6188C45.5 42.8793 45.3536 43.2326 45.3536 43.6009C45.3536 43.9693 45.5 44.3225 45.7604 44.583C46.0209 44.8435 46.3742 44.9898 46.7425 44.9898H79.608L73.4814 65.8231H49.1924L41.1381 36.2909C41.0579 35.997 40.8833 35.7376 40.6411 35.5526C40.399 35.3677 40.1028 35.2676 39.7981 35.2676H28.687C28.3186 35.2676 27.9654 35.4139 27.7049 35.6744C27.4444 35.9348 27.2981 36.2881 27.2981 36.6565C27.2981 37.0248 27.4444 37.3781 27.7049 37.6386C27.9654 37.899 28.3186 38.0454 28.687 38.0454H38.7374L46.313 65.8231H38.4092C37.3041 65.8231 36.2443 66.2621 35.4629 67.0435C34.6815 67.8249 34.2425 68.8847 34.2425 69.9898C34.2425 71.0949 34.6815 72.1547 35.4629 72.9361C36.2443 73.7175 37.3041 74.1565 38.4092 74.1565H44.7374C44.2371 74.9971 43.9704 75.956 43.9648 76.9342C43.9648 78.4077 44.5501 79.8208 45.5919 80.8626C46.6338 81.9045 48.0469 82.4898 49.5203 82.4898C50.9937 82.4898 52.4068 81.9045 53.4487 80.8626C54.4906 79.8208 55.0759 78.4077 55.0759 76.9342C55.0702 75.956 54.8035 74.9971 54.3032 74.1565H64.1818C63.6816 74.9971 63.4148 75.956 63.4092 76.9342C63.4092 78.4077 63.9945 79.8208 65.0364 80.8626C66.0783 81.9045 67.4913 82.4898 68.9648 82.4898C70.4382 82.4898 71.8513 81.9045 72.8931 80.8626C73.935 79.8208 74.5203 78.4077 74.5203 76.9342C74.5147 75.956 74.248 74.9971 73.7477 74.1565H80.0759C80.4442 74.1565 80.7975 74.0101 81.058 73.7497C81.3184 73.4892 81.4648 73.1359 81.4648 72.7676C81.4648 72.3992 81.3184 72.046 81.058 71.7855C80.7975 71.525 80.4442 71.3787 80.0759 71.3787H38.4092C38.0408 71.3787 37.6876 71.2324 37.4271 70.9719C37.1666 70.7114 37.0203 70.3582 37.0203 69.9898C37.0203 69.6214 37.1666 69.2682 37.4271 69.0077C37.6876 68.7472 38.0408 68.6009 38.4092 68.6009H74.5203C74.8202 68.6008 75.112 68.5036 75.3521 68.3239C75.5922 68.1442 75.7676 67.8917 75.8523 67.604L82.7967 43.9929C82.8578 43.7858 82.8697 43.5673 82.8316 43.3548C82.7934 43.1423 82.7062 42.9416 82.5769 42.7687C82.4476 42.5958 82.2797 42.4555 82.0867 42.3588C81.8936 42.2622 81.6807 42.2119 81.4648 42.212ZM52.2981 76.9342C52.2981 77.4836 52.1352 78.0207 51.83 78.4775C51.5247 78.9343 51.0909 79.2903 50.5833 79.5006C50.0758 79.7108 49.5172 79.7658 48.9784 79.6586C48.4396 79.5515 47.9446 79.2869 47.5561 78.8984C47.1677 78.51 46.9031 78.015 46.7959 77.4762C46.6887 76.9373 46.7437 76.3788 46.954 75.8712C47.1642 75.3637 47.5203 74.9298 47.9771 74.6246C48.4339 74.3194 48.9709 74.1565 49.5203 74.1565C50.2568 74.1573 50.9628 74.4502 51.4836 74.971C52.0043 75.4917 52.2972 76.1978 52.2981 76.9342ZM71.7425 76.9342C71.7425 77.4836 71.5796 78.0207 71.2744 78.4775C70.9692 78.9343 70.5353 79.2903 70.0278 79.5006C69.5202 79.7108 68.9617 79.7658 68.4228 79.6586C67.884 79.5515 67.3891 79.2869 67.0006 78.8984C66.6121 78.51 66.3475 78.015 66.2404 77.4762C66.1332 76.9373 66.1882 76.3788 66.3984 75.8712C66.6087 75.3637 66.9647 74.9298 67.4215 74.6246C67.8783 74.3194 68.4154 74.1565 68.9648 74.1565C69.7012 74.1573 70.4073 74.4502 70.928 74.971C71.4488 75.4917 71.7417 76.1978 71.7425 76.9342Z" fill="white"/>
<path d="M32.8537 44.99C32.8537 44.6216 32.7073 44.2683 32.4469 44.0079C32.1864 43.7474 31.8331 43.6011 31.4648 43.6011H17.5759C17.2075 43.6011 16.8543 43.7474 16.5938 44.0079C16.3333 44.2683 16.187 44.6216 16.187 44.99C16.187 45.3583 16.3333 45.7116 16.5938 45.9721C16.8543 46.2325 17.2075 46.3789 17.5759 46.3789H31.4648C31.8331 46.3789 32.1864 46.2325 32.4469 45.9721C32.7073 45.7116 32.8537 45.3583 32.8537 44.99Z" fill="url(#paint2_linear_436_15)"/>
<path d="M37.0202 51.9343C37.0202 51.5659 36.8739 51.2127 36.6134 50.9522C36.3529 50.6917 35.9997 50.5454 35.6313 50.5454H23.1313C22.763 50.5454 22.4097 50.6917 22.1492 50.9522C21.8888 51.2127 21.7424 51.5659 21.7424 51.9343C21.7424 52.3027 21.8888 52.6559 22.1492 52.9164C22.4097 53.1769 22.763 53.3232 23.1313 53.3232H35.6313C35.9997 53.3232 36.3529 53.1769 36.6134 52.9164C36.8739 52.6559 37.0202 52.3027 37.0202 51.9343Z" fill="url(#paint3_linear_436_15)"/>
<path d="M41.187 58.8786C41.187 58.5103 41.0407 58.157 40.7802 57.8965C40.5197 57.6361 40.1665 57.4897 39.7981 57.4897H28.687C28.3186 57.4897 27.9654 57.6361 27.7049 57.8965C27.4444 58.157 27.2981 58.5103 27.2981 58.8786C27.2981 59.247 27.4444 59.6003 27.7049 59.8607C27.9654 60.1212 28.3186 60.2675 28.687 60.2675H39.7981C40.1665 60.2675 40.5197 60.1212 40.7802 59.8607C41.0407 59.6003 41.187 59.247 41.187 58.8786Z" fill="url(#paint4_linear_436_15)"/>
<defs>
<linearGradient id="paint0_linear_436_15" x1="53.687" y1="-32.9063" x2="53.687" y2="100.545" gradientUnits="userSpaceOnUse">
<stop stop-color="#00AFB6"/>
<stop offset="1" stop-color="#F3E688"/>
</linearGradient>
<linearGradient id="paint1_linear_436_15" x1="24.5202" y1="3.31343" x2="24.5202" y2="14.4344" gradientUnits="userSpaceOnUse">
<stop stop-color="#00AFB6"/>
<stop offset="1" stop-color="#F3E688"/>
</linearGradient>
<linearGradient id="paint2_linear_436_15" x1="24.5203" y1="42.6719" x2="24.5203" y2="46.3789" gradientUnits="userSpaceOnUse">
<stop stop-color="#00AFB6"/>
<stop offset="1" stop-color="#F3E688"/>
</linearGradient>
<linearGradient id="paint3_linear_436_15" x1="29.3813" y1="49.6162" x2="29.3813" y2="53.3232" gradientUnits="userSpaceOnUse">
<stop stop-color="#00AFB6"/>
<stop offset="1" stop-color="#F3E688"/>
</linearGradient>
<linearGradient id="paint4_linear_436_15" x1="34.2425" y1="56.5605" x2="34.2425" y2="60.2675" gradientUnits="userSpaceOnUse">
<stop stop-color="#00AFB6"/>
<stop offset="1" stop-color="#F3E688"/>
</linearGradient>
</defs>
</svg>
