<svg width="82" height="80" viewBox="0 0 82 80" fill="none" xmlns="http://www.w3.org/2000/svg">
<path fill-rule="evenodd" clip-rule="evenodd" d="M65.2207 21.7773C64.5163 21.6582 63.8081 21.3804 63.1405 20.9539C62.4666 20.5216 61.9326 19.8223 61.5639 18.8687C59.555 13.6939 53.7445 10.973 49.2181 9.58714C43.3695 7.80711 37.3682 7.84525 31.8501 9.70157C24.3231 12.2318 20.5088 16.987 18.9068 19.5934C18.295 20.5817 17.3396 21.2458 16.2705 21.4932C14.3015 26.2253 13.337 31.6611 13.323 38.0931H15.0989C15.4983 36.6324 16.8412 35.5502 18.4237 35.5502C20.4325 35.5502 21.971 37.1013 21.971 38.9958V61.7802C21.971 63.6873 20.4198 65.2258 18.5254 65.2258H18.4237C16.8412 65.2258 15.4983 64.1435 15.0989 62.6829H7.94654C6.87852 62.6829 6.01393 61.8183 6.01393 60.7503V57.6351H1.9326C0.864586 57.6351 0 56.7705 0 55.7025V44.9969C0 43.9289 0.864586 43.0643 1.9326 43.0643H6.01393V40.0257C6.01393 38.9576 6.87852 38.0931 7.94654 38.0931H9.15042C9.04651 32.2011 10.1162 26.236 12.3061 20.3577C11.9245 19.9769 11.6138 19.5214 11.3925 19.0086C10.8712 17.788 10.9475 16.4148 11.5832 15.2578C14.7873 9.44728 20.8139 4.88277 29.0275 2.06015C37.8895 -0.978611 47.3872 -0.648034 55.7661 3.00103C62.2251 5.81093 66.7641 10.0449 69.6249 15.9444C70.2352 17.2031 70.2098 18.678 69.5741 19.7969C69.4355 20.0362 69.2758 20.2585 69.0976 20.4614C71.2615 26.3236 72.3135 32.2508 72.2215 38.0931H73.4259C74.4939 38.0931 75.3585 38.9576 75.3585 40.0257V43.0643H79.4402C80.5082 43.0643 81.3728 43.9289 81.3728 44.9969V55.7025C81.3728 56.7705 80.5082 57.6351 79.4402 57.6351H75.3585V60.7503C75.3585 61.8183 74.4939 62.6829 73.4259 62.6829H66.276C65.8807 64.1502 64.5438 65.2258 62.9491 65.2258H62.8474C60.953 65.2258 59.4018 63.6746 59.4018 61.7802V38.9958C59.4018 37.1013 60.953 35.5502 62.8474 35.5502C64.5254 35.5502 65.8752 36.6324 66.2743 38.0931H68.05C68.036 31.787 67.1108 26.438 65.2207 21.7773ZM66.5941 21.8043C68.4202 26.4997 69.3168 31.8455 69.3225 38.0931H70.9496C71.0454 32.5434 70.069 26.9013 68.0605 21.3071C67.742 21.4881 67.3968 21.6264 67.0312 21.7168C66.8891 21.755 66.7424 21.7839 66.5941 21.8043ZM68.5569 39.3645C68.5978 39.3729 68.6403 39.3772 68.684 39.3772C68.7262 39.3772 68.7675 39.3728 68.8077 39.3645H71.4373C71.472 39.3716 71.5078 39.3759 71.5446 39.3772H71.57C71.6129 39.3772 71.6549 39.3728 71.6954 39.3645H73.4259C73.7946 39.3645 74.087 39.6569 74.087 40.0257V60.7503C74.087 61.119 73.7946 61.4115 73.4259 61.4115H66.3948V39.3645H68.5569ZM14.533 20.2292C14.9042 20.3284 15.2787 20.3554 15.64 20.3166C15.6981 20.2998 15.7589 20.2912 15.8206 20.2915C16.6375 20.1524 17.3712 19.6735 17.826 18.9323C19.5171 16.1732 23.5476 11.1637 31.4433 8.49369C34.393 7.50196 37.4699 7.00609 40.5977 7.00609C43.5856 7.00609 46.6117 7.46382 49.5996 8.37926C54.3929 9.84143 60.5595 12.7658 62.7591 18.411C63.0261 19.1103 63.3948 19.6062 63.8398 19.8859C64.7934 20.4962 65.8233 20.7123 66.7387 20.4835C67.4762 20.3055 68.0992 19.835 68.4806 19.1612C68.9129 18.3983 68.9256 17.3811 68.4933 16.4911C65.7724 10.8713 61.4495 6.84081 55.283 4.15805C47.1838 0.661559 38.0167 0.343697 29.4471 3.28075C21.437 6.02708 15.8044 10.261 12.7148 15.8808C12.2571 16.7073 12.2189 17.6608 12.5749 18.5254C12.7574 18.9619 13.0366 19.335 13.3836 19.6275C13.4351 19.6579 13.4811 19.6948 13.5211 19.7366C13.8205 19.96 14.1632 20.1273 14.533 20.2292ZM12.0516 38.0931C12.065 31.7456 12.9787 26.3296 14.8603 21.5753C14.641 21.551 14.4212 21.5094 14.2024 21.4498C13.9151 21.3722 13.6408 21.2667 13.3823 21.136C11.3204 26.769 10.3273 32.4718 10.4234 38.0931H12.0516ZM9.80354 39.3645H7.94654C7.57782 39.3645 7.28538 39.6569 7.28538 40.0257V43.6942L7.28541 43.7L7.28538 43.7059V56.9936L7.28541 56.9994L7.28538 57.0051V60.7503C7.28538 61.119 7.57782 61.4115 7.94654 61.4115H14.978V39.3645H9.93234C9.89847 39.3716 9.86366 39.3759 9.82817 39.3772C9.81735 39.3664 9.80653 39.3647 9.80354 39.3645ZM6.01393 56.3637V44.3358H1.9326C1.56388 44.3358 1.27145 44.6282 1.27145 44.9969V55.7025C1.27145 56.0712 1.56388 56.3637 1.9326 56.3637H6.01393ZM18.5254 36.8216C17.2158 36.8216 16.2495 37.8006 16.2495 38.9958V61.7802C16.2495 62.9753 17.2285 63.9544 18.4237 63.9544H18.5254C19.7205 63.9544 20.6996 62.9753 20.6996 61.7802V38.9958C20.6996 37.8006 19.7205 36.8216 18.5254 36.8216ZM75.3585 44.3358V56.3637H79.4402C79.8089 56.3637 80.1014 56.0712 80.1014 55.7025V44.9969C80.1014 44.6282 79.8089 44.3358 79.4402 44.3358H75.3585ZM60.6732 38.9958C60.6732 37.8006 61.6395 36.8216 62.9491 36.8216C64.157 36.8216 65.1233 37.8006 65.1233 38.9958V61.7802C65.1233 62.9753 64.1443 63.9544 62.9491 63.9544H62.8474C61.6523 63.9544 60.6732 62.9753 60.6732 61.7802V38.9958Z" fill="url(#paint0_linear_333_376)"/>
<path fill-rule="evenodd" clip-rule="evenodd" d="M57.6554 76.7196H60.5722C66.2555 76.7196 70.8836 72.0916 70.8836 66.4082V62.0471C70.8836 61.6911 70.6039 61.4114 70.2479 61.4114C69.8919 61.4114 69.6122 61.6911 69.6122 62.0471V66.4082C69.6122 71.3923 65.5562 75.4482 60.5722 75.4482H57.6666C57.3838 73.6011 55.7831 72.1805 53.8585 72.1805H49.7136C47.5903 72.1805 45.8611 73.9097 45.8611 76.1474C45.8611 78.2708 47.5903 79.9999 49.7136 79.9999H53.8585C55.7589 79.9999 57.3436 78.6148 57.6554 76.7196ZM47.1325 76.0203C47.1325 74.5963 48.2896 73.4393 49.7136 73.4393V73.452H53.8585C55.2825 73.452 56.4395 74.609 56.4395 76.1474C56.4395 77.5715 55.2825 78.7285 53.8585 78.7285H49.7136C48.2896 78.7285 47.1325 77.5588 47.1325 76.0203Z" fill="white"/>
<path fill-rule="evenodd" clip-rule="evenodd" d="M46.5609 37.7498H52.3587C53.6556 37.7498 54.7109 36.6945 54.7109 35.3976V21.8948C54.7109 20.598 53.6556 19.5427 52.3587 19.5427H28.7733C27.4764 19.5427 26.4211 20.598 26.4211 21.8948V35.3976C26.4211 36.6945 27.4764 37.7498 28.7733 37.7498H40.175L45.4674 43.1408C45.5946 43.2679 45.7599 43.3315 45.9252 43.3315C46.0142 43.3315 46.0905 43.3188 46.1667 43.2806C46.4083 43.1916 46.5609 42.9501 46.5609 42.6958V37.7498ZM45.2895 37.1198L45.2895 37.1141C45.2895 36.7581 45.5692 36.4784 45.9252 36.4784H52.3587C52.9563 36.4784 53.4395 35.9952 53.4395 35.3976V21.8948C53.4395 21.2973 52.9563 20.8141 52.3587 20.8141H28.7733C28.1757 20.8141 27.6926 21.2973 27.6926 21.8948V35.3976C27.6926 35.9952 28.1757 36.4784 28.7733 36.4784H40.4579C40.6768 36.4784 40.8668 36.5841 40.9807 36.7482L45.2894 41.1446V37.1268L45.2895 37.1198ZM48.8749 27.0315H32.2571C31.9011 27.0315 31.6214 26.7518 31.6214 26.3958C31.6214 26.0398 31.9011 25.7601 32.2571 25.7601H48.8749C49.2309 25.7601 49.5107 26.0398 49.5107 26.3958C49.5107 26.7518 49.2309 27.0315 48.8749 27.0315ZM32.2571 31.5325H48.8749C49.2309 31.5325 49.5107 31.2528 49.5107 30.8968C49.5107 30.5408 49.2309 30.261 48.8749 30.261H32.2571C31.9011 30.261 31.6214 30.5408 31.6214 30.8968C31.6214 31.2528 31.9011 31.5325 32.2571 31.5325Z" fill="white"/>
<defs>
<linearGradient id="paint0_linear_333_376" x1="67.1782" y1="14.2807" x2="67.1782" y2="39.3773" gradientUnits="userSpaceOnUse">
<stop stop-color="#00AFB6"/>
<stop offset="1" stop-color="#F3E688"/>
</linearGradient>
</defs>
</svg>
