<svg width="70" height="78" viewBox="0 0 70 78" fill="none" xmlns="http://www.w3.org/2000/svg">
<path d="M25 72.5005H45C47.0675 72.5005 48.75 70.818 48.75 68.7505V48.7505C48.75 47.123 47.7013 45.748 46.25 45.2305V38.7505C46.25 32.548 41.2025 27.5005 35 27.5005C28.7975 27.5005 23.75 32.548 23.75 38.7505V45.2305C22.2987 45.748 21.25 47.123 21.25 48.7505V68.7505C21.25 70.818 22.9325 72.5005 25 72.5005ZM35 30.0005C39.825 30.0005 43.75 33.9255 43.75 38.7505V45.0005H41.25V38.7505C41.25 35.3042 38.4463 32.5005 35 32.5005C31.5538 32.5005 28.75 35.3042 28.75 38.7505V45.0005H26.25V38.7505C26.25 33.9255 30.175 30.0005 35 30.0005ZM38.75 45.0005H31.25V38.7505C31.25 36.683 32.9325 35.0005 35 35.0005C37.0675 35.0005 38.75 36.683 38.75 38.7505V45.0005ZM23.75 48.7505C23.75 48.0617 24.3112 47.5005 25 47.5005H45C45.6887 47.5005 46.25 48.0617 46.25 48.7505V68.7505C46.25 69.4392 45.6887 70.0005 45 70.0005H25C24.3112 70.0005 23.75 69.4392 23.75 68.7505V48.7505Z" fill="url(#paint0_linear_97_357)"/>
<path d="M31.2502 61.2233V67.4995H38.7502V61.2233C40.3077 60.0495 41.2502 58.2033 41.2502 56.2495C41.2502 52.8033 38.4465 49.9995 35.0002 49.9995C31.554 49.9995 28.7502 52.8033 28.7502 56.2495C28.7502 58.2033 29.6927 60.0508 31.2502 61.2233ZM35.0002 52.4995C37.0677 52.4995 38.7502 54.182 38.7502 56.2495C38.7502 57.5845 38.0477 58.7908 36.8715 59.4758L36.2502 59.837V64.9995H33.7502V59.837L33.129 59.4758C31.9527 58.7908 31.2502 57.5845 31.2502 56.2495C31.2502 54.182 32.9327 52.4995 35.0002 52.4995Z" fill="white"/>
<path d="M59.9575 15.0637C59.3488 6.655 52.3112 0 43.75 0C38.37 0 33.5575 2.6025 30.5888 6.70375C28.2325 4.05 24.8538 2.5 21.25 2.5C14.3575 2.5 8.75 8.1075 8.75 15C8.75 15.0962 8.76375 15.19 8.76625 15.2863C3.75625 16.4212 0 20.9013 0 26.25C0 32.4525 5.0475 37.5 11.25 37.5H13.75V77.5H56.25V37.5H58.75C64.9525 37.5 70 32.4525 70 26.25C70 20.455 65.595 15.6687 59.9575 15.0637ZM53.75 75H16.25V25H53.75V75ZM58.75 35H56.25V22.5H13.75V35H11.25C6.425 35 2.5 31.075 2.5 26.25C2.5 21.425 6.425 17.5 11.25 17.5C12.385 17.5 13.49 17.7138 14.5312 18.135L15.47 15.8175C14.1275 15.275 12.7087 15 11.25 15C11.25 9.48625 15.7362 5 21.25 5C24.3988 5 27.3263 6.4875 29.215 8.98375C28.515 10.3925 27.9975 11.9187 27.725 13.5437L30.1912 13.9575C31.3037 7.3175 37.0062 2.5 43.75 2.5C51.3312 2.5 57.5 8.66875 57.5 16.25V17.5H58.75C63.575 17.5 67.5 21.425 67.5 26.25C67.5 31.075 63.575 35 58.75 35Z" fill="url(#paint1_linear_97_357)"/>
<path d="M43.7502 5V7.5C48.5752 7.5 52.5002 11.425 52.5002 16.25H55.0002C55.0002 10.0475 49.9527 5 43.7502 5Z" fill="white"/>
<path d="M5.00024 26.25H7.50024C7.50024 24.1825 9.18274 22.5 11.2502 22.5V20C7.80399 20 5.00024 22.8038 5.00024 26.25Z" fill="white"/>
<path d="M36.2498 17.5H33.7498V20H36.2498V17.5Z" fill="white"/>
<path d="M41.25 17.5H38.75V20H41.25V17.5Z" fill="white"/>
<path d="M46.2502 17.5H43.7502V20H46.2502V17.5Z" fill="white"/>
<path d="M31.2502 17.5H28.7502V20H31.2502V17.5Z" fill="white"/>
<path d="M26.2502 17.5H23.7502V20H26.2502V17.5Z" fill="white"/>
<defs>
<linearGradient id="paint0_linear_97_357" x1="35" y1="12.4472" x2="35" y2="72.5005" gradientUnits="userSpaceOnUse">
<stop stop-color="#00AFB6"/>
<stop offset="1" stop-color="#F3E688"/>
</linearGradient>
<linearGradient id="paint1_linear_97_357" x1="35" y1="-25.9251" x2="35" y2="77.5" gradientUnits="userSpaceOnUse">
<stop stop-color="#00AFB6"/>
<stop offset="1" stop-color="#F3E688"/>
</linearGradient>
</defs>
</svg>
