<svg width="57" height="80" viewBox="0 0 57 80" fill="none" xmlns="http://www.w3.org/2000/svg">
<path d="M51.0151 80H5.18237C2.32844 80 0.0065918 77.6776 0.0065918 74.8236V5.17519C0.0065918 2.32126 2.32844 0 5.18237 0H51.0151C53.869 0 56.1909 2.32126 56.1909 5.17519V74.8236C56.1909 77.6776 53.869 80 51.0151 80ZM5.18237 2.42424C3.66545 2.42424 2.43083 3.65885 2.43083 5.17519V74.8236C2.43083 76.3411 3.66545 77.5758 5.18237 77.5758H51.0151C52.532 77.5758 53.7667 76.3411 53.7667 74.8236V5.17519C53.7667 3.65885 52.532 2.42424 51.0151 2.42424H5.18237Z" fill="black"/>
<path d="M50.7366 80H5.46138C2.45357 80 0.00683594 77.5533 0.00683594 74.5455V65.9055C0.00683594 65.2356 0.549568 64.6934 1.21896 64.6934H54.979C55.6484 64.6934 56.1911 65.2356 56.1911 65.9055V74.5455C56.1911 77.5533 53.7444 80 50.7366 80ZM2.43108 67.1177V74.5455C2.43108 76.2169 3.79057 77.5758 5.46138 77.5758H50.7366C52.4074 77.5758 53.7669 76.2169 53.7669 74.5455V67.1177H2.43108Z" fill="black"/>
<path d="M28.0992 75.1635C29.6551 75.1635 30.9164 73.9022 30.9164 72.3463C30.9164 70.7904 29.6551 69.5291 28.0992 69.5291C26.5433 69.5291 25.282 70.7904 25.282 72.3463C25.282 73.9022 26.5433 75.1635 28.0992 75.1635Z" fill="white"/>
<path d="M54.979 11.7543H1.21896C0.549568 11.7543 0.00683594 11.2121 0.00683594 10.5421C0.00683594 9.87216 0.549568 9.33002 1.21896 9.33002H54.979C55.6484 9.33002 56.1911 9.87216 56.1911 10.5421C56.1911 11.2121 55.6484 11.7543 54.979 11.7543Z" fill="black"/>
<path d="M51.0085 80H5.17578C2.32185 80 0 77.6776 0 74.8236V5.17519C0 2.32126 2.32185 0 5.17578 0H51.0085C53.8625 0 56.1843 2.32126 56.1843 5.17519V74.8236C56.1843 77.6776 53.8625 80 51.0085 80ZM5.17578 2.42424C3.65885 2.42424 2.42424 3.65885 2.42424 5.17519V74.8236C2.42424 76.3411 3.65885 77.5758 5.17578 77.5758H51.0085C52.5255 77.5758 53.7601 76.3411 53.7601 74.8236V5.17519C53.7601 3.65885 52.5255 2.42424 51.0085 2.42424H5.17578Z" fill="url(#paint0_linear_333_337)"/>
<path d="M50.7298 80H5.45455C2.44673 80 0 77.5533 0 74.5455V65.9055C0 65.2356 0.542732 64.6934 1.21212 64.6934H54.9722C55.6416 64.6934 56.1843 65.2356 56.1843 65.9055V74.5455C56.1843 77.5533 53.7376 80 50.7298 80ZM2.42424 67.1177V74.5455C2.42424 76.2169 3.78374 77.5758 5.45455 77.5758H50.7298C52.4006 77.5758 53.7601 76.2169 53.7601 74.5455V67.1177H2.42424Z" fill="url(#paint1_linear_333_337)"/>
<path d="M32.1657 7.0703H24.0188C23.3494 7.0703 22.8066 6.52816 22.8066 5.85818C22.8066 5.1882 23.3494 4.64606 24.0188 4.64606H32.1657C32.8351 4.64606 33.3778 5.1882 33.3778 5.85818C33.3778 6.52816 32.8351 7.0703 32.1657 7.0703Z" fill="white"/>
<path d="M54.9722 11.7543H1.21212C0.542732 11.7543 0 11.2121 0 10.5421C0 9.87216 0.542732 9.33002 1.21212 9.33002H54.9722C55.6416 9.33002 56.1843 9.87216 56.1843 10.5421C56.1843 11.2121 55.6416 11.7543 54.9722 11.7543Z" fill="url(#paint2_linear_333_337)"/>
<path d="M26.2198 26.8134C25.8605 26.8134 25.5054 26.6548 25.2663 26.3506C23.1829 23.6979 20.3687 22.1733 20.3403 22.159C19.7502 21.843 19.5282 21.1079 19.8437 20.5184C20.1603 19.9277 20.8936 19.7064 21.4849 20.0213C21.6181 20.0935 24.7786 21.8051 27.172 24.852C27.5858 25.3787 27.4946 26.1411 26.9679 26.5542C26.7459 26.7294 26.4819 26.8134 26.2198 26.8134Z" fill="white"/>
<path d="M20.4713 35.4569C20.2535 35.4569 20.0327 35.3977 19.8339 35.2746L16.5207 33.2209L13.5182 34.1797C12.8784 34.3821 12.1977 34.0305 11.9947 33.3925C11.7911 32.7557 12.1433 32.0727 12.7807 31.8691L16.3159 30.741C16.6544 30.6357 17.0226 30.6795 17.3232 30.8665L21.1111 33.215C21.6799 33.5677 21.8557 34.3146 21.5029 34.884C21.2733 35.2533 20.8767 35.4569 20.4713 35.4569Z" fill="white"/>
<path d="M11.4472 48.6766C11.259 48.6766 11.0684 48.6328 10.8897 48.5405C10.2955 48.2315 10.064 47.5 10.3724 46.9058L12.4031 42.9948C12.5279 42.7545 12.7298 42.5627 12.9766 42.4503L18.134 40.1006C18.7424 39.8201 19.4621 40.0911 19.7397 40.7007C20.0173 41.3104 19.748 42.0289 19.139 42.307L14.3621 44.4827L12.5244 48.0232C12.3084 48.4387 11.8852 48.6766 11.4472 48.6766Z" fill="white"/>
<path d="M19.5648 57.6479C19.018 57.6479 18.5214 57.2751 18.3876 56.7199L17.0311 51.0831C16.9246 50.6404 17.0743 50.1764 17.4188 49.8804L19.7761 47.8527C20.2834 47.4148 21.0492 47.4739 21.486 47.9806C21.9222 48.4884 21.8648 49.2542 21.3576 49.6899L19.5613 51.2346L20.7444 56.1517C20.9013 56.8028 20.5006 57.4574 19.8495 57.6148C19.7542 57.6373 19.6589 57.6479 19.5648 57.6479Z" fill="white"/>
<path d="M29.9767 26.8134C29.7145 26.8134 29.4505 26.7294 29.2286 26.5542C28.7018 26.1411 28.6107 25.3788 29.0244 24.852C31.4178 21.8052 34.5784 20.0935 34.7115 20.0213C35.3052 19.7064 36.0355 19.929 36.351 20.5173C36.6676 21.1056 36.4463 21.8407 35.8574 22.1579C35.8289 22.1733 33.0005 23.7157 30.9302 26.3506C30.691 26.6548 30.3359 26.8134 29.9767 26.8134Z" fill="white"/>
<path d="M35.7253 35.4569C35.3199 35.4569 34.9233 35.2533 34.6937 34.884C34.3409 34.3146 34.5167 33.5677 35.0855 33.215L38.8734 30.8665C39.174 30.6795 39.5422 30.6357 39.8807 30.741L43.4159 31.8691C44.0533 32.0727 44.4054 32.7557 44.2018 33.3925C43.9982 34.0305 43.3164 34.3833 42.6784 34.1797L39.6759 33.2209L36.3627 35.2746C36.1639 35.3977 35.9431 35.4569 35.7253 35.4569Z" fill="white"/>
<path d="M44.749 48.6766C44.311 48.6766 43.8878 48.4387 43.6718 48.0232L41.8341 44.4827L37.0572 42.307C36.4482 42.0289 36.1789 41.3103 36.4565 40.7007C36.7341 40.0911 37.4538 39.8212 38.0622 40.1006L43.2196 42.4503C43.4664 42.5627 43.6683 42.7545 43.7931 42.9948L45.8238 46.9057C46.1322 47.5 45.9007 48.2315 45.3065 48.5405C45.1278 48.6328 44.9372 48.6766 44.749 48.6766Z" fill="white"/>
<path d="M36.6337 57.648C36.5396 57.648 36.4443 57.6374 36.349 57.6149C35.698 57.4574 35.2973 56.8028 35.4541 56.1518L36.6378 51.2323L34.8386 49.6745C34.3319 49.2366 34.2769 48.4707 34.7155 47.9653C35.1534 47.4598 35.9193 47.403 36.4248 47.8421L38.7821 49.8829C39.1248 50.1788 39.2734 50.6416 39.1674 51.0831L37.8109 56.72C37.6771 57.2751 37.1806 57.648 36.6337 57.648Z" fill="white"/>
<path d="M28.0987 54.401C21.9138 54.401 17.4246 48.8956 17.4246 41.3092C17.4246 32.758 22.7856 28.9311 28.0987 28.9311C33.4112 28.9311 38.7722 32.758 38.7722 41.3092C38.7722 48.8956 34.2836 54.401 28.0987 54.401ZM28.0987 31.3553C23.0868 31.3553 19.8488 35.2628 19.8488 41.3092C19.8488 47.4905 23.3183 51.9768 28.0987 51.9768C32.8785 51.9768 36.348 47.4905 36.348 41.3092C36.348 35.2628 33.1099 31.3553 28.0987 31.3553Z" fill="white"/>
<path d="M32.047 32.2065C31.8836 32.2065 31.7173 32.1733 31.5581 32.1035C30.9461 31.8336 30.6685 31.1174 30.9384 30.5055C31.0746 30.1977 31.1403 29.8816 31.1403 29.5384C31.1403 28.0362 29.776 26.8135 28.0987 26.8135C26.4214 26.8135 25.0566 28.0362 25.0566 29.5384C25.0566 29.8816 25.1223 30.1977 25.2584 30.5055C25.5283 31.1174 25.2507 31.8336 24.6387 32.1035C24.0267 32.3745 23.3112 32.0964 23.0401 31.4832C22.7696 30.87 22.6323 30.2155 22.6323 29.5384C22.6323 26.6986 25.0844 24.3892 28.0987 24.3892C31.1124 24.3892 33.5645 26.6986 33.5645 29.5384C33.5645 30.2155 33.4272 30.87 33.1567 31.4832C32.9567 31.9366 32.5128 32.2065 32.047 32.2065Z" fill="white"/>
<defs>
<linearGradient id="paint0_linear_333_337" x1="28.0922" y1="-26.7614" x2="28.0922" y2="80" gradientUnits="userSpaceOnUse">
<stop stop-color="#00AFB6"/>
<stop offset="1" stop-color="#F3E688"/>
</linearGradient>
<linearGradient id="paint1_linear_333_337" x1="28.0922" y1="59.5731" x2="28.0922" y2="80" gradientUnits="userSpaceOnUse">
<stop stop-color="#00AFB6"/>
<stop offset="1" stop-color="#F3E688"/>
</linearGradient>
<linearGradient id="paint2_linear_333_337" x1="28.0922" y1="8.51907" x2="28.0922" y2="11.7543" gradientUnits="userSpaceOnUse">
<stop stop-color="#00AFB6"/>
<stop offset="1" stop-color="#F3E688"/>
</linearGradient>
</defs>
</svg>
