<svg width="91" height="100" viewBox="0 0 91 100" fill="none" xmlns="http://www.w3.org/2000/svg">
<path d="M89.4119 66.2937C88.6462 64.9785 87.3987 64.013 85.9336 63.6014C84.4685 63.1899 82.9007 63.3647 81.5622 64.0888L64.8503 72.7483C64.1514 71.484 63.003 70.5285 61.6327 70.0711L38.5526 62.3412C36.2222 61.5287 33.6834 61.5421 31.3618 62.3792L15.9055 67.7395L13.1246 63.34C12.9621 63.0836 12.7045 62.9022 12.4084 62.8357C12.1122 62.7691 11.8017 62.8229 11.5452 62.9852L0.532174 69.9536C0.27578 70.1161 0.0943826 70.3737 0.0278502 70.6698C-0.0386822 70.966 0.0150936 71.2765 0.17736 71.533L17.8524 99.4665C17.9326 99.5938 18.0372 99.7041 18.1602 99.7909C18.2832 99.8777 18.4221 99.9393 18.5689 99.9723C18.7158 100.005 18.8677 100.009 19.016 99.983C19.1643 99.9571 19.3059 99.9021 19.4329 99.8213L30.4506 92.8529C30.7071 92.6902 30.8885 92.4324 30.955 92.136C31.0215 91.8397 30.9677 91.5291 30.8054 91.2724L29.8366 89.7402L31.0922 89.0087L51.6473 91.9797C52.2043 92.0605 52.7663 92.1013 53.3292 92.1018C55.4411 92.1 57.5063 91.4801 59.27 90.3185L87.2277 74.1791C88.5617 73.4213 89.5411 72.1657 89.9513 70.6874C90.3616 69.209 90.1693 67.6283 89.4165 66.2914L89.4119 66.2937ZM19.176 97.2743L2.72442 71.2761L11.801 65.5322L28.2526 91.5304L19.176 97.2743ZM87.7415 70.0769C87.6202 70.5212 87.4119 70.937 87.1287 71.3003C86.8456 71.6635 86.4931 71.967 86.0918 72.1931L58.0984 88.3521C58.0811 88.3613 58.065 88.3717 58.0489 88.382C56.263 89.5768 54.0915 90.0521 51.9698 89.7126L31.0185 86.6863C30.7624 86.6483 30.501 86.6991 30.2778 86.8303L28.6051 87.8049L17.1635 69.7186L32.1118 64.5346C33.9553 63.8641 35.9749 63.8568 37.8233 64.5139L60.9035 72.2438C61.3391 72.389 61.7414 72.6193 62.0873 72.9213C62.4332 73.2233 62.7157 73.5909 62.9184 74.0028C63.0186 74.2036 63.0996 74.4135 63.1603 74.6295L63.166 74.6514C63.3414 75.289 63.3302 75.9635 63.1338 76.5948C62.2974 78.2076 60.6121 79.5209 58.6825 78.8758L41.8231 73.231C41.5364 73.1394 41.2252 73.1644 40.9568 73.3005C40.6884 73.4366 40.4843 73.6729 40.3888 73.9583C40.2933 74.2437 40.3139 74.5552 40.4463 74.8255C40.5787 75.0957 40.8121 75.303 41.0961 75.4025L57.9556 81.0473C58.5062 81.2322 59.0831 81.3267 59.664 81.3272C60.8506 81.2782 61.9999 80.898 62.9816 80.2296C63.9633 79.5612 64.7383 78.6313 65.2189 77.5452C65.2434 77.4973 65.2642 77.4477 65.2811 77.3966C65.5433 76.6149 65.6345 75.7859 65.5484 74.9659L82.6163 66.1267C83.4287 65.6762 84.3847 65.5601 85.2814 65.8029C86.1781 66.0457 86.9448 66.6284 87.4189 67.4273C87.6451 67.8257 87.79 68.265 87.8454 68.7198C87.9007 69.1746 87.8654 69.6358 87.7415 70.0769Z" fill="white"/>
<path d="M22.1459 56.0537H60.8839C61.119 56.0536 61.3483 55.9812 61.5408 55.8463C61.7333 55.7114 61.8796 55.5205 61.9599 55.2996C62.0401 55.0787 62.0505 54.8384 61.9895 54.6114C61.9285 54.3844 61.7991 54.1817 61.6189 54.0308C61.1614 53.6518 60.7931 53.1765 60.5403 52.6389C60.2875 52.1013 60.1565 51.5145 60.1565 50.9204C60.1565 50.3263 60.2875 49.7395 60.5403 49.2019C60.7931 48.6642 61.1614 48.189 61.6189 47.81C61.6596 47.7764 61.6981 47.7403 61.7341 47.7017L61.7548 47.6787C61.7881 47.6396 61.8189 47.5984 61.847 47.5554L61.8597 47.5335C61.8852 47.4919 61.9083 47.4488 61.9288 47.4045L61.9345 47.3918C61.9551 47.3434 61.9728 47.2938 61.9875 47.2432L61.9933 47.2179C62.0051 47.1713 62.014 47.1239 62.0198 47.0762V47.0589C62.0244 47.0168 62.0267 46.9745 62.0267 46.9322L61.9714 29.6189H71.3924C72.2356 29.6569 73.0597 29.3603 73.6853 28.7938C74.311 28.2273 74.6876 27.4366 74.7332 26.5938V19.8051L82.0783 17.6935V24.375C82.0783 24.6787 82.1989 24.97 82.4137 25.1847C82.6284 25.3995 82.9197 25.5201 83.2234 25.5201C83.5271 25.5201 83.8183 25.3995 84.0331 25.1847C84.2478 24.97 84.3684 24.6787 84.3684 24.375V17.0368L85.0205 16.849C85.2597 16.7809 85.4702 16.6366 85.62 16.4381C85.7699 16.2396 85.851 15.9976 85.851 15.7489C85.851 15.5002 85.7699 15.2582 85.62 15.0597C85.4702 14.8612 85.2597 14.7169 85.0205 14.6487L61.9011 8.00174L61.8792 1.14163C61.8765 0.839091 61.7549 0.549769 61.5406 0.33616C61.3264 0.122551 61.0367 0.00180307 60.7342 0H23.1562C21.5273 0.00182945 19.9658 0.649685 18.814 1.80143C17.6623 2.95318 17.0144 4.51476 17.0126 6.14358V50.2822C17.0127 50.3514 17.0193 50.4204 17.0322 50.4884C17.0195 50.6301 17.0126 50.7741 17.0126 50.9192C17.0138 52.2804 17.555 53.5855 18.5174 54.5481C19.4797 55.5107 20.7847 56.0521 22.1459 56.0537ZM58.5419 53.7635H22.1459C21.4016 53.7485 20.6928 53.4423 20.1718 52.9107C19.6507 52.379 19.3588 51.6642 19.3588 50.9198C19.3588 50.1754 19.6507 49.4606 20.1718 48.9289C20.6928 48.3973 21.4016 48.0911 22.1459 48.0761H58.5419C58.0973 48.9581 57.8657 49.9321 57.8657 50.9198C57.8657 51.9075 58.0973 52.8815 58.5419 53.7635ZM72.4476 26.5891C72.4476 26.9347 72.0145 27.3241 71.3924 27.3241H49.5322C48.9101 27.3241 48.4758 26.9371 48.4758 26.5891V20.4629L60.1455 23.8175C60.3524 23.8774 60.5721 23.8774 60.7791 23.8175L72.4476 20.4629V26.5891ZM60.4669 21.5261L40.3577 15.7466L60.4623 9.96704L80.5623 15.7466L60.4669 21.5261ZM23.1562 2.28786H24.2632C24.2525 2.35104 24.2471 2.41501 24.2471 2.47909V39.8613C24.2471 40.165 24.3677 40.4562 24.5825 40.6709C24.7972 40.8857 25.0885 41.0063 25.3922 41.0063C25.6959 41.0063 25.9871 40.8857 26.2019 40.6709C26.4166 40.4562 26.5373 40.165 26.5373 39.8613V2.47909C26.5368 2.41498 26.531 2.35101 26.52 2.28786H59.596L59.6144 7.82779L35.8983 14.6464C35.6598 14.7153 35.4501 14.8599 35.3008 15.0583C35.1516 15.2567 35.0709 15.4983 35.0709 15.7466C35.0709 15.9949 35.1516 16.2365 35.3008 16.4349C35.4501 16.6333 35.6598 16.7779 35.8983 16.8467L46.1856 19.8051V26.5891C46.2313 27.432 46.6079 28.2227 47.2335 28.7892C47.8592 29.3557 48.6832 29.6523 49.5264 29.6143H59.6778L59.7296 45.786H22.1459C21.1337 45.7849 20.144 46.0849 19.3027 46.6476V6.14127C19.304 5.11966 19.7103 4.14023 20.4327 3.41784C21.1551 2.69545 22.1345 2.28908 23.1562 2.28786Z" fill="url(#paint0_linear_59_23623)"/>
<defs>
<linearGradient id="paint0_linear_59_23623" x1="45.0813" y1="0" x2="45.0813" y2="100" gradientUnits="userSpaceOnUse">
<stop stop-color="#00AFB6"/>
<stop offset="1" stop-color="#F3E688"/>
</linearGradient>
</defs>
</svg>
