<svg width="71" height="82" viewBox="0 0 71 82" fill="none" xmlns="http://www.w3.org/2000/svg">
<path d="M34.7249 13.9484C34.8489 14.0734 34.9964 14.1726 35.1589 14.2403C35.3214 14.308 35.4957 14.3429 35.6717 14.3429C35.8478 14.3429 36.0221 14.308 36.1846 14.2403C36.3471 14.1726 36.4946 14.0734 36.6185 13.9484L41.9526 8.61435C42.1376 8.42683 42.263 8.1887 42.3128 7.93001C42.3626 7.67133 42.3347 7.40367 42.2326 7.16083C42.1326 6.9173 41.9627 6.70884 41.7444 6.56171C41.526 6.41458 41.2691 6.33536 41.0058 6.33405H39.6723V2.33351C39.6723 1.97984 39.5318 1.64066 39.2817 1.39058C39.0316 1.14049 38.6924 1 38.3388 1H33.0047C32.651 1 32.3119 1.14049 32.0618 1.39058C31.8117 1.64066 31.6712 1.97984 31.6712 2.33351V6.33405H30.3377C30.0744 6.33536 29.8174 6.41458 29.5991 6.56171C29.3808 6.70884 29.2109 6.9173 29.1109 7.16083C29.0087 7.40367 28.9808 7.67133 29.0307 7.93001C29.0805 8.1887 29.2059 8.42683 29.3909 8.61435L34.7249 13.9484ZM37.872 8.92106L35.6717 11.1214L33.4714 8.92106C33.7267 8.8257 33.9466 8.65444 34.1015 8.43033C34.2565 8.20623 34.3391 7.94003 34.3382 7.66756V3.66702H37.0052V7.66756C37.0044 7.94003 37.087 8.20623 37.2419 8.43033C37.3969 8.65444 37.6168 8.8257 37.872 8.92106Z" fill="white" stroke="#000408"/>
<path d="M52.9136 22.3362H60.4613C60.725 22.3351 60.9825 22.2558 61.2012 22.1084C61.4198 21.9609 61.5899 21.752 61.6898 21.5079C61.7897 21.2638 61.815 20.9956 61.7625 20.7371C61.71 20.4787 61.582 20.2416 61.3947 20.0559L60.4613 19.1224L63.2883 16.2821C63.5347 16.0337 63.6736 15.6984 63.675 15.3486C63.676 15.1731 63.6424 14.9991 63.576 14.8367C63.5097 14.6742 63.4119 14.5264 63.2883 14.4018L59.5145 10.628C59.3852 10.5062 59.2365 10.4071 59.0744 10.3346C58.7498 10.2012 58.3856 10.2012 58.0609 10.3346C57.8989 10.4071 57.7501 10.5062 57.6209 10.628L54.7938 13.455L53.8604 12.5215C53.6743 12.3343 53.4369 12.2064 53.1782 12.1542C52.9194 12.102 52.651 12.1277 52.4069 12.2282C52.1633 12.3282 51.9549 12.4981 51.8077 12.7164C51.6606 12.9348 51.5814 13.1917 51.5801 13.455V21.0027C51.5801 21.3564 51.7206 21.6955 51.9707 21.9456C52.2207 22.1957 52.5599 22.3362 52.9136 22.3362ZM54.2471 16.5621C54.495 16.673 54.7708 16.7057 55.0377 16.6556C55.3046 16.6056 55.5498 16.4752 55.7406 16.2821L58.5677 13.455L60.4613 15.3486L57.6209 18.1756C57.4299 18.368 57.3021 18.614 57.2544 18.8808C57.2068 19.1476 57.2416 19.4226 57.3542 19.6692H54.2471V16.5621Z" fill="white" stroke="#000408"/>
<path d="M7.66715 15.8553C7.73612 16.0154 7.83579 16.1603 7.96052 16.2821L10.7876 19.1224L9.85411 20.0559C9.66686 20.2416 9.53888 20.4787 9.48636 20.7371C9.43384 20.9956 9.45913 21.2638 9.55905 21.5079C9.65896 21.752 9.82901 21.9609 10.0477 22.1084C10.2664 22.2558 10.5238 22.3351 10.7876 22.3362H18.3352C18.6889 22.3362 19.0281 22.1957 19.2782 21.9456C19.5283 21.6955 19.6688 21.3564 19.6688 21.0027V13.455C19.6674 13.1917 19.5882 12.9348 19.4411 12.7164C19.294 12.4981 19.0855 12.3282 18.842 12.2282C18.5979 12.1277 18.3294 12.102 18.0707 12.1542C17.8119 12.2064 17.5745 12.3343 17.3885 12.5215L16.455 13.455L13.6146 10.628C13.4929 10.5032 13.3479 10.4036 13.1879 10.3346C12.8632 10.2012 12.4991 10.2012 12.1744 10.3346C12.0124 10.4071 11.8636 10.5062 11.7344 10.628L7.96052 14.4018C7.83592 14.5287 7.73638 14.678 7.66715 14.8419C7.60937 15.0001 7.57784 15.1668 7.5738 15.3353C7.56992 15.5131 7.60166 15.6899 7.66715 15.8553ZM16.455 16.6821C16.6437 16.6812 16.83 16.6403 17.0017 16.5621V19.6692H13.8947C13.9729 19.4975 14.0138 19.3111 14.0147 19.1224C14.0139 18.946 13.9782 18.7715 13.9095 18.6089C13.8409 18.4464 13.7406 18.2991 13.6146 18.1756L10.7876 15.3486L12.6812 13.455L15.5082 16.2821C15.6317 16.4081 15.779 16.5083 15.9415 16.577C16.104 16.6456 16.2786 16.6814 16.455 16.6821Z" fill="white" stroke="#000408"/>
<path d="M10.9348 70.6227C14.162 73.9087 18.0117 76.5188 22.2589 78.3006C26.506 80.0823 31.0657 81 35.6714 81C40.2772 81 44.8369 80.0823 49.084 78.3006C53.3312 76.5188 57.1809 73.9087 60.4081 70.6227C66.796 64.1574 70.3673 55.428 70.3428 46.3394C70.3428 45.9857 70.2023 45.6465 69.9522 45.3965C69.7021 45.1464 69.3629 45.0059 69.0093 45.0059H51.8203C53.4663 42.1684 54.3356 38.9472 54.3406 35.6669C54.3456 32.3865 53.4862 29.1628 51.849 26.3202C50.2117 23.4776 47.8543 21.1167 45.0143 19.475C42.1743 17.8334 38.9518 16.9691 35.6714 16.9691C32.3911 16.9691 29.1686 17.8334 26.3286 19.475C23.4885 21.1167 21.1312 23.4776 19.4939 26.3202C17.8566 29.1628 16.9973 32.3865 17.0023 35.6669C17.0073 38.9472 17.8766 42.1684 19.5226 45.0059H2.33364C1.97997 45.0059 1.64079 45.1464 1.3907 45.3965C1.14062 45.6465 1.00013 45.9857 1.00013 46.3394C0.97555 55.4215 4.54172 64.1452 10.9215 70.6093L10.9348 70.6227ZM21.5095 49.0064C21.5095 48.6064 21.5095 48.233 21.6029 47.8596C23.1961 49.7232 25.1407 51.2547 27.3258 52.3667C29.5109 53.4787 31.8936 54.1494 34.3379 54.3405V58.341C30.4129 58.4751 26.5412 59.2919 22.8964 60.7547C21.7032 56.9599 21.2327 52.9748 21.5095 49.0064ZM49.74 47.8596C49.74 48.233 49.8067 48.6197 49.8333 49.0198C50.1332 52.9717 49.6807 56.9447 48.4998 60.728C44.8349 59.2743 40.9457 58.4666 37.005 58.341V54.3405C41.9334 53.9682 46.5132 51.6567 49.74 47.9129V47.8596ZM37.005 61.008C40.6249 61.1434 44.1939 61.9059 47.553 63.2617C47.4197 63.595 47.273 63.9151 47.1263 64.2751C45.5368 67.8401 43.3036 71.0813 40.5388 73.8364C39.4411 74.9804 38.2599 76.0413 37.005 77.0102V61.008ZM34.3379 76.8768C33.0839 75.9553 31.9025 74.9388 30.8041 73.8364C28.036 71.0789 25.8025 67.8327 24.2166 64.2618C24.0699 63.9284 23.9365 63.595 23.8032 63.2617C27.1573 61.9046 30.7222 61.142 34.3379 61.008V76.8768ZM42.4324 75.73C45.4258 72.7407 47.8401 69.2232 49.5533 65.3553C49.7133 65.0219 49.8333 64.7019 49.9667 64.3818C52.7422 65.7741 55.295 67.5718 57.5411 69.7159C52.6839 74.2937 46.5046 77.22 39.8853 78.077C40.7655 77.3436 41.6189 76.5835 42.4324 75.77V75.73ZM21.7896 65.382C23.4992 69.2559 25.9139 72.7783 28.9105 75.77C29.724 76.5835 30.5774 77.3436 31.4575 78.0637C24.8383 77.2067 18.659 74.2804 13.8018 69.7025C16.0542 67.5601 18.6111 65.7627 21.3895 64.3685C21.5229 64.7419 21.6429 65.0086 21.7896 65.382ZM59.3946 67.7689C56.8708 65.3891 53.997 63.4103 50.8735 61.9015C52.2576 57.7149 52.8102 53.2983 52.5004 48.8997C52.5004 48.473 52.407 48.0863 52.367 47.6729H67.6757C67.3667 55.1375 64.4342 62.2537 59.3946 67.7689ZM35.6714 19.6692C38.8364 19.6692 41.9302 20.6077 44.5618 22.366C47.1933 24.1243 49.2443 26.6235 50.4555 29.5475C51.6667 32.4716 51.9836 35.6891 51.3661 38.7932C50.7487 41.8973 49.2246 44.7486 46.9867 46.9865C44.7487 49.2245 41.8974 50.7485 38.7933 51.366C35.6892 51.9834 32.4717 51.6665 29.5477 50.4554C26.6237 49.2442 24.1245 47.1932 22.3661 44.5616C20.6078 41.9301 19.6693 38.8362 19.6693 35.6713C19.6693 31.4273 21.3552 27.3571 24.3562 24.3561C27.3572 21.3551 31.4274 19.6692 35.6714 19.6692ZM18.9759 47.6729C18.9759 48.0863 18.8692 48.473 18.8425 48.8864C18.5415 53.2881 19.0893 57.7066 20.4561 61.9015C17.3394 63.4153 14.4708 65.3937 11.9483 67.7689C6.90865 62.2537 3.9762 55.1375 3.66715 47.6729H18.9759Z" fill="url(#paint0_linear_333_328)" stroke="#000408"/>
<path d="M35.6713 38.3385C36.3244 38.3702 36.9664 38.1609 37.4753 37.7503C37.9842 37.3397 38.3245 36.7565 38.4317 36.1115L39.5518 25.0033C39.5809 24.6863 39.5424 24.3667 39.439 24.0656C39.3355 23.7645 39.1695 23.4887 38.9517 23.2564C38.6744 22.9589 38.3375 22.7232 37.963 22.5647C37.5885 22.4061 37.1847 22.3283 36.7781 22.3363H34.5645C34.1578 22.3283 33.7541 22.4061 33.3796 22.5647C33.0051 22.7232 32.6682 22.9589 32.3908 23.2564C32.1742 23.4867 32.0087 23.7602 31.9052 24.059C31.8018 24.3578 31.7628 24.6751 31.7908 24.99L32.9109 36.1115C33.018 36.7565 33.3584 37.3397 33.8673 37.7503C34.3762 38.1609 35.0182 38.3702 35.6713 38.3385ZM34.5645 25.0033H36.8581L35.8046 35.6714C35.7162 35.6848 35.6263 35.6848 35.5379 35.6714L34.4845 25.0033H34.5645Z" fill="white" stroke="#000408"/>
<path d="M35.6707 49.0054C36.4618 49.0054 37.2351 48.7708 37.8929 48.3312C38.5507 47.8917 39.0634 47.267 39.3662 46.5361C39.6689 45.8052 39.7481 45.0009 39.5938 44.225C39.4395 43.4491 39.0585 42.7364 38.4991 42.1769C37.9397 41.6175 37.2269 41.2366 36.451 41.0822C35.6751 40.9279 34.8708 41.0071 34.1399 41.3099C33.409 41.6126 32.7843 42.1253 32.3448 42.7831C31.9052 43.4409 31.6707 44.2142 31.6707 45.0054C31.6707 46.0662 32.0921 47.0837 32.8422 47.8338C33.5924 48.5839 34.6098 49.0054 35.6707 49.0054ZM35.6707 43.672C35.9344 43.672 36.1921 43.7502 36.4114 43.8967C36.6307 44.0433 36.8016 44.2515 36.9025 44.4951C37.0034 44.7388 37.0298 45.0069 36.9784 45.2655C36.9269 45.5241 36.7999 45.7617 36.6135 45.9482C36.427 46.1347 36.1894 46.2616 35.9308 46.3131C35.6721 46.3645 35.404 46.3381 35.1604 46.2372C34.9168 46.1363 34.7085 45.9654 34.562 45.7461C34.4155 45.5269 34.3373 45.2691 34.3373 45.0054C34.3373 44.6518 34.4778 44.3126 34.7278 44.0626C34.9779 43.8125 35.317 43.672 35.6707 43.672Z" fill="white" stroke="#000408"/>
<path d="M57.3945 34.7245C57.2695 34.8485 57.1703 34.996 57.1026 35.1585C57.0349 35.321 57 35.4953 57 35.6713C57 35.8473 57.0349 36.0216 57.1026 36.1841C57.1703 36.3466 57.2695 36.4941 57.3945 36.6181L62.7285 41.9521C62.8531 42.0757 63.0009 42.1735 63.1633 42.2399C63.3258 42.3062 63.4998 42.3399 63.6753 42.3389C63.8502 42.3434 64.0238 42.3068 64.182 42.2322C64.4256 42.1321 64.634 41.9623 64.7811 41.7439C64.9283 41.5256 65.0075 41.2686 65.0088 41.0054V39.6718H69.0093C69.363 39.6718 69.7022 39.5313 69.9523 39.2813C70.2024 39.0312 70.3429 38.692 70.3429 38.3383V33.0043C70.3429 32.6506 70.2024 32.3114 69.9523 32.0613C69.7022 31.8113 69.363 31.6708 69.0093 31.6708H65.0088V30.3373C65.0075 30.074 64.9283 29.817 64.7811 29.5987C64.634 29.3804 64.4256 29.2105 64.182 29.1104C63.9392 29.0083 63.6715 28.9804 63.4128 29.0302C63.1542 29.0801 62.916 29.2054 62.7285 29.3905L57.3945 34.7245ZM67.6758 34.3378V37.0048H63.6753C63.4028 37.0039 63.1366 37.0865 62.9125 37.2415C62.6884 37.3965 62.5172 37.6164 62.4218 37.8716L60.2215 35.6713L62.4218 33.471C62.5172 33.7262 62.6884 33.9461 62.9125 34.1011C63.1366 34.2561 63.4028 34.3387 63.6753 34.3378H67.6758Z" fill="white" stroke="#000408"/>
<path d="M2.33351 39.6718H6.33405V41.0054C6.33536 41.2686 6.41458 41.5256 6.56171 41.7439C6.70884 41.9623 6.9173 42.1321 7.16083 42.2322C7.31909 42.3068 7.49264 42.3434 7.66756 42.3389C7.84306 42.3399 8.01703 42.3062 8.17951 42.2399C8.34198 42.1735 8.48975 42.0757 8.61436 41.9521L13.9484 36.6181C14.0734 36.4941 14.1726 36.3466 14.2403 36.1841C14.308 36.0216 14.3429 35.8473 14.3429 35.6713C14.3429 35.4953 14.308 35.321 14.2403 35.1585C14.1726 34.996 14.0734 34.8485 13.9484 34.7245L8.61436 29.3905C8.42683 29.2054 8.1887 29.0801 7.93001 29.0302C7.67133 28.9804 7.40367 29.0083 7.16083 29.1104C6.9173 29.2105 6.70884 29.3804 6.56171 29.5987C6.41458 29.817 6.33536 30.074 6.33405 30.3373V31.6708H2.33351C1.97984 31.6708 1.64066 31.8113 1.39058 32.0613C1.14049 32.3114 1 32.6506 1 33.0043V38.3383C1 38.692 1.14049 39.0312 1.39058 39.2813C1.64066 39.5313 1.97984 39.6718 2.33351 39.6718ZM3.66702 34.3378H7.66756C7.94003 34.3387 8.20623 34.2561 8.43034 34.1011C8.65444 33.9461 8.8257 33.7262 8.92106 33.471L11.1214 35.6713L8.92106 37.8716C8.8257 37.6164 8.65444 37.3965 8.43034 37.2415C8.20623 37.0865 7.94003 37.0039 7.66756 37.0048H3.66702V34.3378Z" fill="white" stroke="#000408"/>
<defs>
<linearGradient id="paint0_linear_333_328" x1="35.6714" y1="-4.45039" x2="35.6714" y2="81" gradientUnits="userSpaceOnUse">
<stop stop-color="#00AFB6"/>
<stop offset="1" stop-color="#F3E688"/>
</linearGradient>
</defs>
</svg>
