<svg width="57" height="70" viewBox="0 0 57 70" fill="none" xmlns="http://www.w3.org/2000/svg">
<path d="M28.3507 69.9533C28.2379 69.9533 28.2379 69.9533 28.125 69.9533C27.7865 70.0661 27.5609 69.9533 27.2224 69.8404C20.2271 65.1017 14.36 59.2346 9.95974 52.465C0.59503 38.2486 -0.194765 23.9195 0.030891 16.6985C0.030891 16.1344 0.482202 15.6831 1.04634 15.5702C12.442 14.6676 22.258 6.8825 27.2224 0.451311C27.4481 0.112828 27.7865 0 28.125 0C28.4635 0 28.802 0.225656 29.0276 0.451311C30.8329 2.93352 34.7819 7.78512 41.4387 11.3956C47.3058 14.6676 52.7215 15.4574 55.4294 15.6831C55.9935 15.6831 56.4448 16.2472 56.4448 16.8113C56.6705 25.7247 55.0909 38.9256 46.6288 52.0136C42.1157 59.009 36.3615 64.7632 28.9148 69.7276C28.802 69.8404 28.5763 69.9533 28.3507 69.9533ZM28.125 67.5839C35.1203 62.8451 40.5361 57.3165 44.8235 50.7725C52.4958 38.7 54.1883 26.4017 54.1883 17.8268C51.1419 17.4883 45.9518 16.4729 40.3104 13.3137C34.1049 9.92885 30.1559 5.64139 28.0122 2.8207C22.7093 9.25188 13.2317 16.4729 2.28745 17.714C2.06179 24.935 3.3029 38.1358 11.765 51.111C16.0524 57.5422 21.4682 63.0708 28.125 67.5839C28.0122 67.5839 28.0122 67.5839 28.125 67.5839Z" fill="url(#paint0_linear_148_188)"/>
<path d="M24.3707 44.3414C24.145 44.3414 23.8066 44.2285 23.5809 44.0029L14.8932 36.1049C14.4419 35.6536 14.4419 34.9767 14.7803 34.5253C15.2316 34.074 15.9086 34.074 16.3599 34.4125L24.2579 41.6335L40.1666 25.1606C40.6179 24.7093 41.2949 24.7093 41.7462 25.1606C42.1975 25.6119 42.1975 26.2889 41.7462 26.7402L25.1605 44.0029C24.9348 44.2285 24.5964 44.3414 24.3707 44.3414Z" fill="white"/>
<defs>
<linearGradient id="paint0_linear_148_188" x1="28.2324" y1="-23.4162" x2="28.2324" y2="70" gradientUnits="userSpaceOnUse">
<stop stop-color="#00AFB6"/>
<stop offset="1" stop-color="#F3E688"/>
</linearGradient>
</defs>
</svg>
