<svg width="98" height="100" viewBox="0 0 98 100" fill="none" xmlns="http://www.w3.org/2000/svg">
<path d="M70.2365 0C68.9955 0.00148638 67.8058 0.492168 66.9283 1.36441C66.0508 2.23666 65.5572 3.41926 65.5557 4.6528V46.4583C65.5572 47.6919 66.0508 48.8745 66.9283 49.7467C67.8058 50.619 68.9955 51.1096 70.2365 51.1111H93.0959C94.3371 51.1099 95.5271 50.6194 96.4049 49.7471C97.2826 48.8748 97.7764 47.6921 97.7779 46.4583V4.6528C97.7764 3.41906 97.2826 2.2363 96.4049 1.36402C95.5271 0.491739 94.3371 0.00118911 93.0959 0H70.2365ZM95.5177 4.6528V46.4583C95.5168 47.0964 95.2613 47.7081 94.8073 48.1591C94.3533 48.6102 93.7379 48.8639 93.0959 48.8645H70.2365C69.5948 48.8636 68.9796 48.6098 68.5258 48.1588C68.0721 47.7077 67.8167 47.0962 67.8158 46.4583V4.6528C67.8167 4.01492 68.0721 3.40342 68.5258 2.95237C68.9796 2.50133 69.5948 2.24753 70.2365 2.24664H93.0959C93.7379 2.24724 94.3533 2.5009 94.8073 2.95198C95.2613 3.40306 95.5168 4.01473 95.5177 4.6528Z" fill="url(#paint0_linear_59_23648)"/>
<path d="M84.4027 7.77764H85.6019C85.8843 7.77764 86.1552 7.66058 86.3549 7.45221C86.5546 7.24383 86.6668 6.96122 86.6668 6.66653C86.6668 6.37185 86.5546 6.08923 86.3549 5.88086C86.1552 5.67248 85.8843 5.55542 85.6019 5.55542H84.3985C84.116 5.55542 83.8451 5.67248 83.6454 5.88086C83.4457 6.08923 83.3335 6.37185 83.3335 6.66653C83.3335 6.96122 83.4457 7.24383 83.6454 7.45221C83.8451 7.66058 84.116 7.77764 84.3985 7.77764H84.4027Z" fill="white"/>
<path d="M77.7799 7.77764H81.1092C81.4044 7.77764 81.6875 7.66058 81.8963 7.45221C82.105 7.24383 82.2223 6.96122 82.2223 6.66653C82.2223 6.37185 82.105 6.08923 81.8963 5.88086C81.6875 5.67248 81.4044 5.55542 81.1092 5.55542H77.7799C77.4846 5.55542 77.2015 5.67248 76.9928 5.88086C76.784 6.08923 76.6667 6.37185 76.6667 6.66653C76.6667 6.96122 76.784 7.24383 76.9928 7.45221C77.2015 7.66058 77.4846 7.77764 77.7799 7.77764Z" fill="white"/>
<path d="M89.0705 14.5337C88.4592 14.3854 87.8175 14.4228 87.2276 14.6411C86.6376 14.8593 86.1262 15.2486 85.7586 15.759L83.4904 18.8412C83.4573 18.8862 83.4276 18.9334 83.4013 18.9827C83.1527 19.4409 83.0219 19.9536 83.0205 20.4749C83.0192 20.9962 83.1473 21.5096 83.3935 21.9691C83.6742 22.4057 84.0218 22.8914 84.2914 23.2568C83.5508 24.323 82.7035 25.3109 81.7626 26.2053C80.8674 27.1455 79.8803 27.9938 78.816 28.7372C78.4506 28.4677 77.9638 28.119 77.526 27.8372C77.0664 27.5904 76.5527 27.4618 76.0311 27.4632C75.5094 27.4646 74.9964 27.5958 74.5382 27.845C74.4887 27.8709 74.4414 27.9007 74.3967 27.9341L71.3142 30.2021C70.804 30.5701 70.4149 31.0817 70.1967 31.6718C69.9784 32.2618 69.9409 32.9034 70.0888 33.5148C70.2734 34.3954 70.6721 35.217 71.2495 35.9071C71.8269 36.5971 72.5653 37.1344 73.3996 37.4715C73.9324 37.678 74.4993 37.7819 75.0707 37.7778C77.9381 37.7778 81.7247 35.4386 86.3612 30.8058C91.9659 25.2017 94.2084 20.8396 93.0275 17.8409C92.6885 17.0083 92.1505 16.2715 91.4607 15.6949C90.7708 15.1183 89.9502 14.7196 89.0705 14.5337ZM84.7871 29.2374C80.145 33.878 76.1947 36.186 74.2118 35.4052C73.708 35.1979 73.2642 34.8676 72.9211 34.4446C72.578 34.0215 72.3465 33.5192 72.2477 32.9835C72.2096 32.8001 72.2259 32.6095 72.2948 32.4353C72.3637 32.2611 72.4821 32.1109 72.6354 32.0033L75.6299 29.7988C75.8426 29.6888 76.0881 29.6599 76.3206 29.7175C77.0625 30.1943 78.015 30.9272 78.0239 30.935C78.1589 31.039 78.316 31.1107 78.4831 31.1445C78.6501 31.1783 78.8227 31.1733 78.9875 31.1299C79.3084 31.0453 80.5683 30.5552 83.3378 27.7882C86.1072 25.0212 86.5952 23.7603 86.6799 23.4439C86.7231 23.279 86.7279 23.1064 86.6939 22.9393C86.6599 22.7723 86.588 22.6153 86.4838 22.4804C86.4771 22.4715 85.743 21.5191 85.2662 20.7772C85.2102 20.5455 85.2386 20.3014 85.3464 20.0888L87.5521 17.0924C87.6595 16.939 87.8095 16.8204 87.9835 16.7513C88.1575 16.6822 88.348 16.6656 88.5313 16.7036C89.0675 16.802 89.5703 17.0335 89.9937 17.3768C90.4171 17.7201 90.7474 18.1643 90.9543 18.6685C91.7353 20.6391 89.4281 24.5912 84.7871 29.2341V29.2374Z" fill="white"/>
<path d="M4.68196 100H27.5414C28.7824 99.9986 29.9721 99.5079 30.8496 98.6356C31.7271 97.7634 32.2207 96.5808 32.2222 95.3472V53.5417C32.2207 52.3082 31.7271 51.1256 30.8496 50.2533C29.9721 49.3811 28.7824 48.8904 27.5414 48.8889H4.68196C3.44079 48.8901 2.25078 49.3807 1.37303 50.2529C0.495289 51.1252 0.00149589 52.308 0 53.5417V95.3472C0.00149589 96.581 0.495289 97.7637 1.37303 98.636C2.25078 99.5083 3.44079 99.9989 4.68196 100ZM2.26018 53.5417C2.26108 52.9036 2.51655 52.292 2.97056 51.8409C3.42457 51.3898 4.04004 51.1362 4.68196 51.1356H27.5414C28.1831 51.1365 28.7983 51.3902 29.2521 51.8413C29.7058 52.2923 29.9612 52.9038 29.9621 53.5417V95.3472C29.9612 95.9851 29.7058 96.5966 29.2521 97.0477C28.7983 97.4987 28.1831 97.7525 27.5414 97.7534H4.68196C4.04004 97.7528 3.42457 97.4991 2.97056 97.0481C2.51655 96.597 2.26108 95.9853 2.26018 95.3472V53.5417Z" fill="url(#paint1_linear_59_23648)"/>
<path d="M18.8431 56.6668H20.0459C20.3284 56.6668 20.5994 56.5497 20.7991 56.3414C20.9989 56.133 21.1112 55.8504 21.1112 55.5557C21.1112 55.261 20.9989 54.9784 20.7991 54.77C20.5994 54.5616 20.3284 54.4446 20.0459 54.4446H18.8431C18.5606 54.4446 18.2896 54.5616 18.0899 54.77C17.8901 54.9784 17.7778 55.261 17.7778 55.5557C17.7778 55.8504 17.8901 56.133 18.0899 56.3414C18.2896 56.5497 18.5606 56.6668 18.8431 56.6668Z" fill="white"/>
<path d="M12.2242 56.6668H15.5535C15.8487 56.6668 16.1319 56.5497 16.3406 56.3414C16.5494 56.133 16.6666 55.8504 16.6666 55.5557C16.6666 55.261 16.5494 54.9784 16.3406 54.77C16.1319 54.5616 15.8487 54.4446 15.5535 54.4446H12.2242C11.929 54.4446 11.6459 54.5616 11.4371 54.77C11.2284 54.9784 11.1111 55.261 11.1111 55.5557C11.1111 55.8504 11.2284 56.133 11.4371 56.3414C11.6459 56.5497 11.929 56.6668 12.2242 56.6668Z" fill="white"/>
<path d="M7.84957 86.3605C8.38215 86.5668 8.94891 86.6707 9.52004 86.6667C12.3866 86.6667 16.1719 84.3279 20.808 79.6958C26.4096 74.0925 28.6525 69.731 27.4721 66.7328C27.1334 65.8996 26.5956 65.1622 25.9057 64.5851C25.2159 64.008 24.3951 63.6089 23.5153 63.4227C22.9041 63.2743 22.2626 63.3117 21.6728 63.5299C21.083 63.7481 20.5718 64.1374 20.2044 64.6479L17.9359 67.7296C17.9032 67.7746 17.8738 67.8218 17.8479 67.8711C17.5994 68.3292 17.4686 68.8419 17.4673 69.3631C17.4659 69.8842 17.594 70.3976 17.8401 70.857C18.1196 71.2936 18.4671 71.7792 18.731 72.1445C17.9918 73.2114 17.1446 74.1993 16.203 75.0926C15.3087 76.0329 14.3223 76.881 13.2586 77.6242C12.8933 77.3547 12.4055 77.0061 11.9678 76.7243C11.5086 76.4779 10.9952 76.3496 10.474 76.3509C9.95282 76.3523 9.44015 76.4833 8.98215 76.7321C8.93255 76.7577 8.88523 76.7875 8.84072 76.8212L5.75814 79.0888C5.24807 79.4565 4.85912 79.9678 4.64093 80.5576C4.42274 81.1474 4.38521 81.7888 4.53313 82.4C4.71945 83.2812 5.1193 84.1032 5.69756 84.7938C6.27582 85.4843 7.0148 86.0223 7.84957 86.3605ZM7.08895 80.8864L10.0836 78.6822C10.2962 78.5722 10.5416 78.5433 10.774 78.6009C11.5146 79.0776 12.4668 79.8105 12.4768 79.8183C12.6117 79.9223 12.7688 79.994 12.9358 80.0278C13.1028 80.0615 13.2753 80.0566 13.4401 80.0132C13.7608 79.9285 15.0204 79.4385 17.7833 76.6719C20.5463 73.9054 21.0407 72.6446 21.1243 72.3283C21.1675 72.1634 21.1723 71.9908 21.1383 71.8238C21.1043 71.6568 21.0325 71.4998 20.9283 71.3649C20.9216 71.3549 20.1877 70.4037 19.7122 69.662C19.6559 69.4304 19.6839 69.1864 19.7912 68.9737L21.9962 65.9777C22.104 65.8244 22.2541 65.706 22.4282 65.6369C22.6023 65.5679 22.7928 65.5512 22.9763 65.589C23.5121 65.6875 24.0147 65.9191 24.4379 66.2623C24.8611 66.6056 25.1914 67.0496 25.3984 67.5536C26.178 69.5328 23.8716 73.4844 19.2311 78.1265C14.5905 82.7686 10.6381 85.0752 8.66031 84.2933C8.15644 84.0863 7.71257 83.7562 7.36936 83.3332C7.02614 82.9102 6.79456 82.4078 6.69583 81.872C6.65768 81.6868 6.67506 81.4945 6.74579 81.3192C6.81652 81.1438 6.93745 80.9932 7.09341 80.8864H7.08895Z" fill="white"/>
<path d="M88.8817 54.513C88.915 54.2178 88.8304 53.9213 88.6465 53.6888C88.4625 53.4563 88.1943 53.3069 87.9008 53.2733C87.6073 53.2397 87.3125 53.3248 87.0814 53.5099C86.8503 53.6949 86.7017 53.9647 86.6683 54.2599C85.8268 61.7299 82.7672 68.7715 77.8882 74.4664H61.132C59.8583 74.4664 58.6366 73.9583 57.7349 73.0534C56.8332 72.1485 56.3252 70.9208 56.3223 69.6396V64.8128C56.3319 63.5338 56.8421 62.31 57.7423 61.4065C58.6426 60.5031 59.8604 59.9928 61.132 59.986C62.9068 59.9817 64.6144 59.3029 65.9127 58.0857C67.211 56.8685 68.004 55.2028 68.1329 53.4223C68.1533 53.1252 68.0555 52.8322 67.8611 52.6077C67.6667 52.3832 67.3916 52.2456 67.0963 52.2251C66.8011 52.2046 66.5098 52.3029 66.2866 52.4984C66.0634 52.694 65.9265 52.9707 65.9062 53.2677C65.8185 54.4831 65.2773 55.6202 64.391 56.451C63.5048 57.2818 62.339 57.7449 61.1276 57.7473C59.2654 57.7544 57.4814 58.5008 56.1637 59.8242C54.8459 61.1476 54.101 62.9409 54.0911 64.814V69.6408C54.0946 71.5158 54.8374 73.3128 56.1566 74.6376C57.4757 75.9624 59.2635 76.7068 61.1276 76.7074H75.8241C68.7819 83.789 59.2324 87.7684 49.2746 87.7709C48.1735 87.7709 47.079 87.7205 45.9935 87.6276C46.2465 86.9422 46.3773 86.2174 46.3799 85.4863V78.9461C46.3796 77.2996 45.73 75.7206 44.5736 74.5553C43.4173 73.3901 41.8486 72.7338 40.2118 72.7306H35.5579C35.2626 72.7306 34.9794 72.8486 34.7706 73.0586C34.5618 73.2686 34.4445 73.5535 34.4445 73.8505C34.4445 74.1475 34.5618 74.4324 34.7706 74.6424C34.9794 74.8524 35.2626 74.9704 35.5579 74.9704H40.2118C41.2582 74.9731 42.2608 75.3931 42.9997 76.1385C43.7386 76.8838 44.1534 77.8935 44.1531 78.9461V85.4863C44.1553 86.1368 43.9965 86.7776 43.6911 87.351C41.047 86.9597 38.4531 86.2801 35.9554 85.3239C35.6793 85.218 35.3727 85.2268 35.103 85.3483C34.8333 85.4698 34.6227 85.6941 34.5174 85.9718C34.4122 86.2495 34.4209 86.5579 34.5417 86.8292C34.6625 87.1004 34.8854 87.3123 35.1615 87.4182C40.8343 89.57 46.9199 90.3935 52.9563 89.8261C58.9928 89.2587 64.8213 87.3153 69.9995 84.1435C75.1777 80.9717 79.5694 76.6549 82.8411 71.5208C86.1128 66.3867 88.1786 60.5702 88.8817 54.513Z" fill="url(#paint2_linear_59_23648)"/>
<path d="M39.1275 40.0419C38.6855 40.4959 38.1586 40.8559 37.5776 41.1006C36.9966 41.3454 36.3732 41.4701 35.744 41.4674C34.2791 41.4665 32.8507 41.9306 31.6592 42.7945C30.4677 43.6585 29.573 44.8789 29.1005 46.2846C29.0534 46.4249 29.034 46.5733 29.0435 46.7213C29.053 46.8692 29.0911 47.0138 29.1557 47.1468C29.2203 47.2799 29.3102 47.3987 29.4201 47.4965C29.53 47.5943 29.6579 47.6691 29.7964 47.7168C29.9118 47.7567 30.0329 47.7773 30.1549 47.7778C30.3876 47.7778 30.6144 47.7038 30.8035 47.5664C30.9926 47.4289 31.1345 47.2348 31.2092 47.0114C31.5319 46.0522 32.1428 45.2194 32.956 44.63C33.7693 44.0405 34.7442 43.724 35.744 43.7247C37.6057 43.7197 39.3897 42.9677 40.7061 41.6332C42.0225 40.2987 42.7643 38.4901 42.7693 36.6028V31.7383C42.7673 29.85 42.0264 28.0398 40.7094 26.7046C39.3923 25.3694 37.6066 24.6184 35.744 24.6163H20.7914C27.3207 17.4027 36.3396 13.0151 45.9758 12.3646V17.0881C45.979 18.7474 46.6315 20.3376 47.7899 21.5099C48.9483 22.6821 50.5182 23.3407 52.155 23.3409H62.2198C62.5151 23.3409 62.7983 23.222 63.0071 23.0104C63.2159 22.7987 63.3332 22.5116 63.3332 22.2123C63.3332 21.9129 63.2159 21.6259 63.0071 21.4142C62.7983 21.2025 62.5151 21.0836 62.2198 21.0836H52.155C51.1086 21.0839 50.1048 20.6634 49.3638 19.9144C48.6228 19.1653 48.2052 18.1489 48.2025 17.0881V12.2687C48.3039 12.2687 48.4018 12.2619 48.5032 12.2619C53.0543 12.2517 57.5686 13.0876 61.8224 14.7281C62.0985 14.8348 62.4051 14.8259 62.6747 14.7035C62.9444 14.581 63.155 14.355 63.2603 14.0751C63.3655 13.7952 63.3568 13.4844 63.236 13.2111C63.1152 12.9377 62.8923 12.7242 62.6162 12.6175C58.109 10.8784 53.3257 9.99129 48.5032 10.0001C48.0066 10.0001 47.5219 10.0117 47.0491 10.0351C37.5271 10.3907 28.4452 14.1901 21.447 20.7456C14.4489 27.3011 9.99669 36.1796 8.89623 45.7744C8.87949 45.9217 8.89155 46.071 8.93174 46.2136C8.97193 46.3562 9.03945 46.4894 9.13044 46.6055C9.22143 46.7217 9.33411 46.8185 9.46204 46.8905C9.58997 46.9624 9.73063 47.0081 9.876 47.025C9.91853 47.0294 9.96127 47.0317 10.004 47.0317C10.2772 47.0316 10.5409 46.9296 10.7447 46.7452C10.9486 46.5608 11.0785 46.3069 11.1096 46.0317C11.9007 39.0356 14.5995 32.4014 18.9032 26.8737H35.744C37.0162 26.8752 38.2359 27.3882 39.1355 28.3001C40.0351 29.2121 40.5411 30.4485 40.5426 31.7383V36.6028C40.5447 37.2427 40.4207 37.8766 40.1776 38.4672C39.9346 39.0578 39.5776 39.5932 39.1275 40.0419Z" fill="url(#paint3_linear_59_23648)"/>
<path d="M3.21802 44.4307C3.28899 44.4417 3.36093 44.4462 3.43282 44.4441C3.7086 44.4383 3.97352 44.3417 4.18158 44.1709C4.38964 44.0001 4.52769 43.766 4.57176 43.5092C5.01226 40.9389 5.68791 38.4095 6.59115 35.9491C6.64658 35.81 6.67193 35.6619 6.66569 35.5134C6.65945 35.365 6.62176 35.2192 6.55483 35.0847C6.4879 34.9502 6.39309 34.8297 6.276 34.7303C6.1589 34.631 6.02188 34.5547 5.87303 34.506C5.72417 34.4573 5.56649 34.4373 5.40928 34.447C5.25206 34.4567 5.0985 34.4959 4.95764 34.5625C4.81679 34.6291 4.69149 34.7215 4.58913 34.8345C4.48677 34.9474 4.40944 35.0785 4.36167 35.2201C3.41166 37.8019 2.70085 40.4566 2.23724 43.1542C2.2125 43.2988 2.21826 43.4465 2.2542 43.589C2.29013 43.7315 2.35553 43.8658 2.44665 43.9844C2.53776 44.103 2.6528 44.2035 2.78516 44.2801C2.91753 44.3566 3.06463 44.4078 3.21802 44.4307Z" fill="url(#paint4_linear_59_23648)"/>
<path d="M14.2166 20.7196C14.3884 20.4882 14.4679 20.1965 14.4385 19.9054C14.4092 19.6142 14.2732 19.3462 14.059 19.1572C13.8449 18.9682 13.569 18.8729 13.2891 18.8911C13.0092 18.9094 12.7469 19.0398 12.5569 19.2551C10.8308 21.3839 9.28219 23.6627 7.92799 26.0669C7.85557 26.1954 7.80811 26.3375 7.78832 26.4852C7.76853 26.6328 7.7768 26.7831 7.81265 26.9274C7.84851 27.0718 7.91124 27.2073 7.99728 27.3263C8.08332 27.4453 8.19097 27.5455 8.3141 27.6211C8.43721 27.6967 8.57339 27.7462 8.71484 27.7669C8.8563 27.7875 9.00027 27.7789 9.13854 27.7415C9.2768 27.704 9.40664 27.6385 9.52066 27.5487C9.63468 27.4589 9.73063 27.3466 9.80304 27.218C11.0937 24.9243 12.5702 22.7502 14.2166 20.7196Z" fill="white"/>
<path d="M26.1306 7.91431C23.7315 9.22882 21.4491 10.7474 19.3088 12.4534C19.1265 12.5991 18.9943 12.7984 18.9309 13.0234C18.8675 13.2484 18.8761 13.4877 18.9554 13.7075C19.0347 13.9274 19.1808 14.1167 19.373 14.2489C19.5653 14.3811 19.794 14.4494 20.027 14.4442C20.2703 14.4397 20.5053 14.3544 20.6952 14.2018C22.7353 12.576 24.9107 11.1288 27.1974 9.87608C27.3258 9.80581 27.4392 9.71085 27.531 9.59663C27.6228 9.48241 27.6913 9.35117 27.7326 9.21039C27.7738 9.06962 27.7871 8.92207 27.7715 8.77617C27.7559 8.63027 27.7118 8.48888 27.6418 8.36006C27.5717 8.23125 27.4771 8.11754 27.3632 8.02543C27.2494 7.93332 27.1185 7.8646 26.9782 7.82321C26.8379 7.78182 26.6908 7.76856 26.5454 7.78419C26.4 7.79982 26.259 7.84404 26.1306 7.91431Z" fill="url(#paint5_linear_59_23648)"/>
<path d="M35.2227 4.82135C34.968 4.8887 34.7504 5.03238 34.61 5.22591C34.4696 5.41945 34.4159 5.6498 34.4587 5.87451C34.5015 6.09922 34.638 6.30314 34.843 6.4487C35.048 6.59426 35.3077 6.67165 35.5742 6.6666C35.6773 6.66438 35.7796 6.65009 35.8782 6.62412C38.3486 5.97016 40.8803 5.49931 43.4455 5.21683C43.5928 5.20466 43.7357 5.16735 43.8658 5.10713C43.9959 5.0469 44.1105 4.96498 44.2028 4.86622C44.2952 4.76747 44.3633 4.65388 44.4033 4.53221C44.4432 4.41054 44.4542 4.28325 44.4355 4.1579C44.4167 4.03255 44.3687 3.91169 44.2943 3.80248C44.2198 3.69327 44.1204 3.59794 44.002 3.52215C43.8836 3.44635 43.7486 3.39163 43.6049 3.36122C43.4613 3.33082 43.312 3.32535 43.1658 3.34515C40.4732 3.64084 37.8156 4.13475 35.2227 4.82135Z" fill="white"/>
<path d="M52.2852 2.22558C51.9939 2.20028 51.7067 2.32717 51.487 2.57834C51.2672 2.82952 51.1329 3.1844 51.1135 3.56491C51.0941 3.94543 51.1913 4.32041 51.3836 4.60737C51.576 4.89433 51.8477 5.06976 52.1391 5.09506C54.7042 5.31806 57.2497 5.82977 59.7474 6.6245C59.8878 6.67007 60.0337 6.67898 60.1768 6.65071C60.3198 6.62244 60.4572 6.55756 60.581 6.45978C60.7048 6.362 60.8126 6.23326 60.8982 6.08093C60.9838 5.92861 61.0455 5.75571 61.0798 5.57216C61.1141 5.3886 61.1203 5.19801 61.098 5.01133C61.0757 4.82464 61.0255 4.64554 60.95 4.4843C60.8746 4.32306 60.7756 4.18285 60.6586 4.07174C60.5416 3.96062 60.4089 3.88078 60.2682 3.8368C57.6475 3.002 54.9767 2.46295 52.2852 2.22558Z" fill="url(#paint6_linear_59_23648)"/>
<path d="M94.3448 56.6671C94.069 56.6729 93.8041 56.7696 93.5961 56.9403C93.388 57.1111 93.25 57.3452 93.2059 57.602C92.7654 60.1722 92.0898 62.7017 91.1865 65.162C91.1311 65.3011 91.1058 65.4492 91.112 65.5977C91.1182 65.7461 91.1559 65.8919 91.2229 66.0264C91.2898 66.1608 91.3846 66.2813 91.5017 66.3807C91.6188 66.4801 91.7558 66.5564 91.9046 66.6051C92.0535 66.6538 92.2112 66.6738 92.3684 66.6641C92.5256 66.6544 92.6792 66.6151 92.82 66.5486C92.9609 66.482 93.0862 66.3896 93.1885 66.2766C93.2909 66.1637 93.3682 66.0326 93.416 65.891C94.366 63.3092 95.0767 60.6546 95.5403 57.957C95.5904 57.6657 95.5157 57.3675 95.3326 57.1282C95.1496 56.8888 94.8732 56.7277 94.5643 56.6805C94.4918 56.6692 94.4182 56.6647 94.3448 56.6671Z" fill="url(#paint7_linear_59_23648)"/>
<path d="M85.2425 81.8223C86.9606 79.7024 88.5023 77.433 89.8507 75.0388C89.9228 74.9107 89.97 74.769 89.9897 74.6219C90.0094 74.4747 90.0012 74.3249 89.9655 74.1811C89.9298 74.0372 89.8674 73.9021 89.7817 73.7835C89.696 73.6649 89.5889 73.5651 89.4663 73.4897C89.3437 73.4144 89.2082 73.365 89.0673 73.3444C88.9265 73.3238 88.7832 73.3324 88.6455 73.3697C88.5079 73.407 88.3786 73.4723 88.2651 73.5618C88.1516 73.6513 88.0561 73.7633 87.984 73.8914C86.6987 76.1745 85.2287 78.3383 83.5902 80.3592C83.4045 80.5882 83.3135 80.8849 83.3372 81.184C83.3608 81.4831 83.4972 81.7601 83.7163 81.9541C83.9354 82.1482 84.2193 82.2433 84.5055 82.2185C84.7917 82.1938 85.0568 82.0513 85.2425 81.8223Z" fill="white"/>
<path d="M77.0826 85.7981C75.0425 87.424 72.8671 88.8712 70.5804 90.1238C70.3211 90.2658 70.1286 90.5052 70.0452 90.7895C69.9619 91.0738 69.9946 91.3797 70.136 91.6399C70.2775 91.9 70.5162 92.0931 70.7996 92.1767C71.083 92.2603 71.3879 92.2275 71.6472 92.0856C74.0464 90.7711 76.3287 89.2525 78.469 87.5465C78.6513 87.4008 78.7835 87.2015 78.8469 86.9765C78.9103 86.7515 78.9017 86.5122 78.8224 86.2924C78.7431 86.0725 78.597 85.8832 78.4048 85.751C78.2125 85.6189 77.9838 85.5505 77.7508 85.5557C77.5075 85.5602 77.2725 85.6455 77.0826 85.7981Z" fill="url(#paint8_linear_59_23648)"/>
<path d="M62.2029 94.4448C62.0997 94.447 61.9974 94.4613 61.8988 94.4873C59.4269 95.1414 56.8936 95.6123 54.3269 95.8948C54.18 95.9076 54.0376 95.9454 53.9081 96.006C53.7786 96.0665 53.6647 96.1486 53.5729 96.2474C53.4812 96.3461 53.4135 96.4595 53.3739 96.5809C53.3344 96.7024 53.3237 96.8293 53.3425 96.9543C53.3614 97.0793 53.4093 97.1998 53.4836 97.3087C53.5579 97.4177 53.6569 97.5128 53.775 97.5885C53.893 97.6642 54.0276 97.719 54.1708 97.7496C54.3141 97.7803 54.4631 97.7861 54.609 97.7668C57.3024 97.4709 59.9609 96.9769 62.5546 96.2903C62.8095 96.223 63.0272 96.0793 63.1677 95.8857C63.3082 95.6922 63.362 95.4618 63.3191 95.237C63.2763 95.0123 63.1398 94.8083 62.9346 94.6627C62.7295 94.5172 62.4696 94.4398 62.2029 94.4448Z" fill="white"/>
<path d="M38.0304 94.4764C37.89 94.4422 37.7441 94.4355 37.601 94.4567C37.458 94.4779 37.3206 94.5267 37.1968 94.6001C37.073 94.6735 36.9652 94.7702 36.8796 94.8846C36.7941 94.999 36.7323 95.1288 36.698 95.2667C36.6638 95.4045 36.6576 95.5476 36.6798 95.6878C36.7021 95.828 36.7524 95.9625 36.8278 96.0836C36.9032 96.2047 37.0023 96.31 37.1193 96.3934C37.2363 96.4769 37.369 96.5368 37.5097 96.5699C40.1305 97.1953 42.8013 97.5987 45.4926 97.7755C45.6369 97.7849 45.7816 97.7664 45.9186 97.7209C46.0556 97.6755 46.1821 97.604 46.2909 97.5106C46.3997 97.4172 46.4887 97.3037 46.5527 97.1766C46.6168 97.0495 46.6547 96.9112 46.6643 96.7697C46.6739 96.6282 46.655 96.4863 46.6087 96.352C46.5623 96.2176 46.4894 96.0936 46.3942 95.9869C46.299 95.8802 46.1832 95.7929 46.0536 95.7301C45.924 95.6672 45.783 95.6301 45.6387 95.6206C43.0738 95.4546 40.5282 95.0718 38.0304 94.4764Z" fill="url(#paint9_linear_59_23648)"/>
<defs>
<linearGradient id="paint0_linear_59_23648" x1="81.6668" y1="-17.0976" x2="81.6668" y2="51.1111" gradientUnits="userSpaceOnUse">
<stop stop-color="#00AFB6"/>
<stop offset="1" stop-color="#F3E688"/>
</linearGradient>
<linearGradient id="paint1_linear_59_23648" x1="16.1111" y1="31.7914" x2="16.1111" y2="100" gradientUnits="userSpaceOnUse">
<stop stop-color="#00AFB6"/>
<stop offset="1" stop-color="#F3E688"/>
</linearGradient>
<linearGradient id="paint2_linear_59_23648" x1="61.6666" y1="39.5851" x2="61.6666" y2="90.0002" gradientUnits="userSpaceOnUse">
<stop stop-color="#00AFB6"/>
<stop offset="1" stop-color="#F3E688"/>
</linearGradient>
<linearGradient id="paint3_linear_59_23648" x1="36.1111" y1="-2.63732" x2="36.1111" y2="47.7778" gradientUnits="userSpaceOnUse">
<stop stop-color="#00AFB6"/>
<stop offset="1" stop-color="#F3E688"/>
</linearGradient>
<linearGradient id="paint4_linear_59_23648" x1="4.44439" y1="31.0994" x2="4.44439" y2="44.4446" gradientUnits="userSpaceOnUse">
<stop stop-color="#00AFB6"/>
<stop offset="1" stop-color="#F3E688"/>
</linearGradient>
<linearGradient id="paint5_linear_59_23648" x1="23.3334" y1="5.54772" x2="23.3334" y2="14.4445" gradientUnits="userSpaceOnUse">
<stop stop-color="#00AFB6"/>
<stop offset="1" stop-color="#F3E688"/>
</linearGradient>
<linearGradient id="paint6_linear_59_23648" x1="56.1111" y1="0.735668" x2="56.1111" y2="6.66686" gradientUnits="userSpaceOnUse">
<stop stop-color="#00AFB6"/>
<stop offset="1" stop-color="#F3E688"/>
</linearGradient>
<linearGradient id="paint7_linear_59_23648" x1="93.3333" y1="53.3213" x2="93.3333" y2="66.6665" gradientUnits="userSpaceOnUse">
<stop stop-color="#00AFB6"/>
<stop offset="1" stop-color="#F3E688"/>
</linearGradient>
<linearGradient id="paint8_linear_59_23648" x1="74.4444" y1="83.3253" x2="74.4444" y2="92.2221" gradientUnits="userSpaceOnUse">
<stop stop-color="#00AFB6"/>
<stop offset="1" stop-color="#F3E688"/>
</linearGradient>
<linearGradient id="paint9_linear_59_23648" x1="41.6667" y1="93.3295" x2="41.6667" y2="97.7779" gradientUnits="userSpaceOnUse">
<stop stop-color="#00AFB6"/>
<stop offset="1" stop-color="#F3E688"/>
</linearGradient>
</defs>
</svg>
