<svg width="72" height="73" viewBox="0 0 72 73" fill="none" xmlns="http://www.w3.org/2000/svg">
<path d="M69.3275 7H43.2937L45.1912 10.2877H67.6837V46.3865H4.28769V10.2877H26.7802L28.6776 7H2.64384C1.73738 7 1 7.73738 1 8.64384V56.7333C1 57.6398 1.73738 58.3772 2.64384 58.3772H25.1974V67.8363H18.9883C18.0772 67.8363 17.3445 68.5737 17.3445 69.4801C17.3445 70.3866 18.0772 71.124 18.9883 71.124H52.9877C53.8942 71.124 54.6316 70.3866 54.6316 69.4801C54.6316 68.5737 53.8942 67.8363 52.9877 67.8363H46.6754V58.3772H69.3275C70.234 58.3772 70.9714 57.6398 70.9714 56.7333V8.64384C70.9714 7.73738 70.234 7 69.3275 7ZM43.3877 67.8363H28.4851V58.3772H43.3877V67.8363ZM67.6837 55.0895H4.28769V49.6742H67.6837V55.0895Z" fill="url(#paint0_linear_148_176)" stroke="#071718" stroke-width="2"/>
<path d="M37.0436 27.0098C37.6269 26.4265 37.6269 25.4773 37.0436 24.894C36.4603 24.3106 35.5111 24.3106 34.9277 24.894C34.3444 25.4773 34.3444 26.4265 34.9277 27.0098C35.2194 27.3015 35.6026 27.4476 35.9854 27.4476C36.3682 27.4476 36.7519 27.3015 37.0436 27.0098Z" fill="white" stroke="#071718" stroke-width="2"/>
<path d="M14.4125 38.3655C15.2142 39.7534 16.6495 40.5823 18.252 40.5823H53.7186C55.3216 40.5823 56.7574 39.7534 57.5587 38.3655C58.3599 36.9776 58.3599 35.3202 57.5587 33.9323L39.8253 3.21684C39.0236 1.8285 37.5883 1 35.9858 1C34.3828 1 32.9475 1.82897 32.1462 3.21684L14.4125 33.9318C13.6112 35.3202 13.6112 36.9776 14.4125 38.3655ZM17.2601 35.5757L34.9934 4.86068C35.2916 4.34358 35.7867 4.28769 35.9853 4.28769C36.1845 4.28769 36.6795 4.34358 36.9777 4.86068L54.7111 35.5757C55.0098 36.0928 54.8106 36.5488 54.7111 36.7212C54.6115 36.8931 54.3156 37.2942 53.7186 37.2942H18.2525C17.6555 37.2942 17.3596 36.8931 17.2601 36.7212C17.1605 36.5493 16.9614 36.0928 17.2601 35.5757Z" fill="white" stroke="#071718" stroke-width="2"/>
<path d="M25.868 31.5431C26.5166 31.5431 27.0422 31.0175 27.0422 30.3689V28.4414C27.0422 27.812 27.5541 27.3001 28.1835 27.3001H28.2163V30.3689C28.2163 31.0175 28.7419 31.5431 29.3905 31.5431H32.8952V32.2743H31.7426C31.094 32.2743 30.5684 32.7999 30.5684 33.4485C30.5684 34.0971 31.094 34.6227 31.7426 34.6227H34.0694C34.718 34.6227 35.2435 34.0971 35.2435 33.4485V31.5431H35.9856H36.7277V33.4485C36.7277 34.0971 37.2532 34.6227 37.9019 34.6227H40.2286C40.8772 34.6227 41.4028 34.0971 41.4028 33.4485C41.4028 32.7999 40.8772 32.2743 40.2286 32.2743H39.076V31.5431H42.5807C43.2293 31.5431 43.7549 31.0175 43.7549 30.3689V27.3001H43.7873C44.4166 27.3001 44.9291 27.812 44.9291 28.4414V30.3689C44.9291 31.0175 45.4546 31.5431 46.1032 31.5431C46.7518 31.5431 47.2774 31.0175 47.2774 30.3689V28.4414C47.2774 26.5171 45.712 24.9517 43.7873 24.9517H43.2002L41.0613 21.8242C40.4799 20.9746 39.6641 20.3377 38.7336 19.9704V18.9061C39.983 18.8822 40.9923 17.8583 40.9923 16.6033V15.5184C40.9923 14.8698 40.4663 14.3442 39.8181 14.3442C39.17 14.3442 38.6439 14.8698 38.6439 15.5184V16.5587C37.3946 16.5827 36.3853 17.6066 36.3853 18.8615V19.6135H35.9856H35.1003C35.0336 19.6135 34.9683 19.6229 34.9016 19.6257V19.0376C34.9016 17.9959 34.4643 16.9904 33.7021 16.2797C33.0018 15.6264 32.0883 15.2667 31.1302 15.2667H30.545C29.8963 15.2667 29.3708 15.7922 29.3708 16.4408C29.3708 17.0895 29.8963 17.615 30.545 17.615H31.1302C31.4918 17.615 31.8361 17.7508 32.1 17.9973C32.3879 18.2655 32.5528 18.6445 32.5528 19.0376V20.3076C31.9093 20.6815 31.3425 21.1911 30.9094 21.8242L28.7705 24.9513H28.1825C26.2583 24.9513 24.6929 26.5167 24.6929 28.4409V30.3684C24.6938 31.017 25.2198 31.5431 25.868 31.5431ZM30.5647 26.4885L32.8482 23.1496C33.3569 22.4061 34.1985 21.9618 35.0998 21.9618H35.9856H36.8709C37.7718 21.9618 38.6139 22.4061 39.1225 23.1501L41.4061 26.489V29.1943H35.9856H30.5647V26.4885Z" fill="white" stroke="#071718" stroke-width="1.5"/>
<defs>
<linearGradient id="paint0_linear_148_176" x1="35.9857" y1="-14.4506" x2="35.9857" y2="71.124" gradientUnits="userSpaceOnUse">
<stop stop-color="#00AFB6"/>
<stop offset="1" stop-color="#F3E688"/>
</linearGradient>
</defs>
</svg>
