<svg width="85" height="100" viewBox="0 0 85 100" fill="none" xmlns="http://www.w3.org/2000/svg">
<path d="M1.25 100H83.6292C84.3201 100 84.8792 99.4403 84.8792 98.75V88.5406C84.8792 87.8503 84.3201 87.2906 83.6292 87.2906H82.1436V35.9558H83.6292C84.3201 35.9558 84.8792 35.3961 84.8792 34.7058V24.4965C84.8792 23.8062 84.3201 23.2465 83.6292 23.2465H70.0952V1.25C70.0952 0.559692 69.5361 0 68.8452 0H16.0327C15.3418 0 14.7827 0.559692 14.7827 1.25V23.2465H1.25C0.559082 23.2465 0 23.8062 0 24.4965V34.7058C0 35.3961 0.559082 35.9558 1.25 35.9558H2.7356V87.2906H1.25C0.559082 87.2906 0 87.8503 0 88.5406V98.75C0 99.4403 0.559082 100 1.25 100ZM17.2827 2.5H67.5952V23.2465H17.2827V2.5ZM2.5 25.7465H82.3792V33.4558H2.5V25.7465ZM5.2356 35.9558H79.6436V87.2906H5.2356V35.9558ZM2.5 89.7906H82.3792V97.5H2.5V89.7906Z" fill="url(#paint0_linear_59_23483)"/>
<path d="M31.2671 15.6572H26.3025C25.6116 15.6572 25.0525 16.2169 25.0525 16.9072C25.0525 17.5975 25.6116 18.1572 26.3025 18.1572H31.2671C31.958 18.1572 32.5171 17.5975 32.5171 16.9072C32.5171 16.2169 31.958 15.6572 31.2671 15.6572Z" fill="white"/>
<path d="M58.5767 15.6572H39.5679C38.877 15.6572 38.3179 16.2169 38.3179 16.9072C38.3179 17.5975 38.877 18.1572 39.5679 18.1572H58.5767C59.2676 18.1572 59.8267 17.5975 59.8267 16.9072C59.8267 16.2169 59.2676 15.6572 58.5767 15.6572Z" fill="white"/>
<path d="M31.2671 8.20996H26.3025C25.6116 8.20996 25.0525 8.76965 25.0525 9.45996C25.0525 10.1503 25.6116 10.71 26.3025 10.71H31.2671C31.958 10.71 32.5171 10.1503 32.5171 9.45996C32.5171 8.76965 31.958 8.20996 31.2671 8.20996Z" fill="white"/>
<path d="M39.5679 10.71H58.5767C59.2676 10.71 59.8267 10.1503 59.8267 9.45996C59.8267 8.76965 59.2676 8.20996 58.5767 8.20996H39.5679C38.877 8.20996 38.3179 8.76965 38.3179 9.45996C38.3179 10.1503 38.877 10.71 39.5679 10.71Z" fill="white"/>
<path d="M25.5872 60.2321H25.3748C23.1897 60.2321 21.4124 58.4626 21.4124 56.288C21.4124 54.1133 23.1897 52.3445 25.3748 52.3445C27.5598 52.3445 29.3372 54.1133 29.3372 56.288C29.3372 56.9783 29.8962 57.538 30.5872 57.538C31.2781 57.538 31.8372 56.9783 31.8372 56.288C31.8372 53.1619 29.5912 50.5533 26.6248 49.9705V48.835C26.6248 48.1447 26.0657 47.585 25.3748 47.585C24.6838 47.585 24.1248 48.1447 24.1248 48.835V49.9705C21.1583 50.5533 18.9124 53.1619 18.9124 56.288C18.9124 59.8414 21.8115 62.7321 25.3748 62.7321H25.5872C27.7722 62.7321 29.5496 64.5009 29.5496 66.6755C29.5496 68.8502 27.7722 70.6196 25.5872 70.6196C23.4021 70.6196 21.6248 68.8502 21.6248 66.6755C21.6248 65.9852 21.0657 65.4255 20.3748 65.4255C19.6838 65.4255 19.1248 65.9852 19.1248 66.6755C19.1248 69.7256 21.2665 72.2737 24.1248 72.9384V74.1285C24.1248 74.8188 24.6838 75.3785 25.3748 75.3785C26.0657 75.3785 26.6248 74.8188 26.6248 74.1285V73.015C29.6935 72.516 32.0496 69.8747 32.0496 66.6755C32.0496 63.1227 29.1504 60.2321 25.5872 60.2321Z" fill="white"/>
<path d="M42.384 60.2321H42.1716C39.9866 60.2321 38.2092 58.4626 38.2092 56.288C38.2092 54.1133 39.9866 52.3445 42.1716 52.3445C44.3567 52.3445 46.134 54.1133 46.134 56.288C46.134 56.9783 46.6931 57.538 47.384 57.538C48.075 57.538 48.634 56.9783 48.634 56.288C48.634 53.1619 46.3881 50.5533 43.4216 49.9705V48.835C43.4216 48.1447 42.8625 47.585 42.1716 47.585C41.4807 47.585 40.9216 48.1447 40.9216 48.835V49.9705C37.9552 50.5533 35.7092 53.1619 35.7092 56.288C35.7092 59.8414 38.6084 62.7321 42.1716 62.7321H42.384C44.5691 62.7321 46.3464 64.5009 46.3464 66.6755C46.3464 68.8502 44.5691 70.6196 42.384 70.6196C40.199 70.6196 38.4216 68.8502 38.4216 66.6755C38.4216 65.9852 37.8625 65.4255 37.1716 65.4255C36.4807 65.4255 35.9216 65.9852 35.9216 66.6755C35.9216 69.7256 38.0634 72.2737 40.9216 72.9384V74.1285C40.9216 74.8188 41.4807 75.3785 42.1716 75.3785C42.8625 75.3785 43.4216 74.8188 43.4216 74.1285V73.015C46.4903 72.516 48.8464 69.8747 48.8464 66.6755C48.8464 63.1227 45.9473 60.2321 42.384 60.2321Z" fill="white"/>
<path d="M65.6433 66.6755C65.6433 63.1227 62.7441 60.2321 59.1809 60.2321H58.9685C56.7834 60.2321 55.0061 58.4626 55.0061 56.288C55.0061 54.1133 56.7834 52.3445 58.9685 52.3445C61.1536 52.3445 62.9309 54.1133 62.9309 56.288C62.9309 56.9783 63.49 57.538 64.1809 57.538C64.8718 57.538 65.4309 56.9783 65.4309 56.288C65.4309 53.1619 63.185 50.5533 60.2185 49.9705V48.835C60.2185 48.1447 59.6594 47.585 58.9685 47.585C58.2776 47.585 57.7185 48.1447 57.7185 48.835V49.9705C54.752 50.5533 52.5061 53.1619 52.5061 56.288C52.5061 59.8414 55.4053 62.7321 58.9685 62.7321H59.1809C61.366 62.7321 63.1433 64.5009 63.1433 66.6755C63.1433 68.8502 61.366 70.6196 59.1809 70.6196C56.9958 70.6196 55.2185 68.8502 55.2185 66.6755C55.2185 65.9852 54.6594 65.4255 53.9685 65.4255C53.2776 65.4255 52.7185 65.9852 52.7185 66.6755C52.7185 69.7256 54.8602 72.2737 57.7185 72.9384V74.1285C57.7185 74.8188 58.2776 75.3785 58.9685 75.3785C59.6594 75.3785 60.2185 74.8188 60.2185 74.1285V73.015C63.2872 72.516 65.6433 69.8747 65.6433 66.6755Z" fill="white"/>
<defs>
<linearGradient id="paint0_linear_59_23483" x1="42.4396" y1="-33.4517" x2="42.4396" y2="100" gradientUnits="userSpaceOnUse">
<stop stop-color="#00AFB6"/>
<stop offset="1" stop-color="#F3E688"/>
</linearGradient>
</defs>
</svg>
